<svg width="36" height="30" viewBox="0 0 36 30" fill="none" xmlns="http://www.w3.org/2000/svg">
<path d="M7 20.3427L7.47227 20.0767L7.05693 19.7285C4.62984 17.6938 3.19531 15.0327 3.19531 12.1545C3.19531 9.02455 4.89853 6.15792 7.7138 4.06068C10.5291 1.96347 14.4376 0.653778 18.7763 0.653778C23.1014 0.653778 27.0099 1.96336 29.8286 4.06412C32.6473 6.16486 34.3572 9.03848 34.3572 12.1824C34.3572 15.3118 32.6478 18.1785 29.8289 20.2761C27.01 22.3735 23.1014 23.6831 18.7763 23.6831C15.086 23.6831 11.7198 22.7239 9.0449 21.1427L8.90876 21.0622L8.75611 21.1035L5.36486 22.0214C5.44385 21.9287 5.52622 21.833 5.61051 21.7362C5.87975 21.4269 6.16568 21.1102 6.42191 20.8502C6.6896 20.5785 6.89161 20.4037 7 20.3427Z" stroke="#F17298" stroke-width="0.75"/>
<path d="M18.7769 24.3369C15.1298 24.3369 11.6972 23.4448 8.82786 21.7722L3.59859 23.1939L4.13492 22.5249C4.29582 22.3297 5.60984 20.685 6.38753 20.0159C3.92039 17.8415 2.55273 15.0537 2.55273 12.1545C2.55273 5.46395 9.82007 0 18.7769 0C27.7069 0 35.001 5.46395 35.001 12.1545C35.001 18.8451 27.7069 24.3369 18.7769 24.3369ZM8.88149 21.1868L8.98876 21.2425C11.8045 22.9151 15.1834 23.7793 18.7769 23.7793C27.4119 23.7793 34.4647 18.5663 34.4647 12.1824C34.4647 5.79848 27.4119 0.557546 18.7769 0.557546C10.1151 0.557546 3.08907 5.7706 3.08907 12.1545C3.08907 14.9701 4.48354 17.6742 6.9775 19.8208L7.27248 20.0717L6.92387 20.2668C6.54843 20.4898 5.69029 21.4376 5.07351 22.1903L8.88149 21.1868Z" fill="#F17298"/>
<path d="M13.6515 21.6271L13.6513 21.6254C13.2484 17.3585 17.2486 13.3232 22.8095 12.7506C28.3673 12.1783 33.0454 15.3131 33.5001 19.5795C33.9014 23.8455 29.9016 27.8796 24.3417 28.4521L24.3413 28.4521C21.9927 28.6963 19.7604 28.2878 17.981 27.3763L17.8288 27.2983L17.6701 27.3621L15.9062 28.0714C16.037 27.8751 16.1723 27.6798 16.2968 27.514C16.4516 27.3079 16.5624 27.185 16.616 27.1441L17.0143 26.8405L16.6109 26.5438C14.9374 25.3126 13.8278 23.5915 13.6515 21.6271Z" stroke="#F17298" stroke-width="0.75"/>
<path d="M14.2696 29.4105L14.6987 28.6857C14.8328 28.4348 15.5032 27.4034 15.9591 26.8458C14.2428 25.4799 13.1969 23.6678 13.0092 21.6607C12.5533 17.0051 16.9245 12.712 22.7437 12.0987C28.5629 11.4854 33.6581 14.8307 34.114 19.5141C34.3285 21.8 33.4436 24.0581 31.5664 25.8701C29.7429 27.6543 27.1685 28.8251 24.3795 29.1039C22.0196 29.3548 19.7402 28.9645 17.7826 28.0167L14.2696 29.4105ZM17.7826 27.4034L17.8899 27.4591C19.7938 28.407 22.0196 28.7972 24.2991 28.5464C26.9807 28.2676 29.4211 27.1804 31.191 25.452C32.934 23.7515 33.7654 21.6607 33.5776 19.5699C33.1486 15.1931 28.3216 12.0987 22.7973 12.6563C17.2731 13.2138 13.1165 17.256 13.5456 21.6328C13.7333 23.5563 14.7791 25.3126 16.5222 26.6228L16.8172 26.8458L16.5222 27.0689C16.3613 27.2082 15.9591 27.7379 15.6104 28.2676L17.7826 27.4034Z" fill="#F17298"/>
<path d="M9.49669 6.52329C9.33578 6.52329 9.22852 6.41178 9.22852 6.24452V5.43608C9.22852 5.26881 9.33578 5.1573 9.49669 5.1573C9.65759 5.1573 9.76486 5.26881 9.76486 5.43608V6.24452C9.76486 6.41178 9.65759 6.52329 9.49669 6.52329Z" fill="#F17298"/>
<path d="M9.49669 10.0916C9.33578 10.0916 9.22852 9.98009 9.22852 9.81283V9.00438C9.22852 8.83712 9.33578 8.72561 9.49669 8.72561C9.65759 8.72561 9.76486 8.83712 9.76486 9.00438V9.81283C9.76486 9.95221 9.65759 10.0916 9.49669 10.0916Z" fill="#F17298"/>
<path d="M11.6162 7.88876H10.8385C10.6776 7.88876 10.5703 7.77736 10.5703 7.61025C10.5703 7.44314 10.6776 7.33174 10.8385 7.33174H11.6162C11.7771 7.33174 11.8843 7.44314 11.8843 7.61025C11.8843 7.77736 11.7503 7.88876 11.6162 7.88876Z" fill="#F17298"/>
<path d="M8.18258 7.88876H7.40489C7.24399 7.88876 7.13672 7.77736 7.13672 7.61025C7.13672 7.44314 7.24399 7.33174 7.40489 7.33174H8.18258C8.34348 7.33174 8.45074 7.44314 8.45074 7.61025C8.45074 7.77736 8.31666 7.88876 8.18258 7.88876Z" fill="#F17298"/>
<path d="M11.6685 13.7993C11.5077 13.7993 11.4004 13.6878 11.4004 13.5205V12.9072C11.4004 12.74 11.5077 12.6284 11.6685 12.6284C11.8294 12.6284 11.9367 12.74 11.9367 12.9072V13.5205C11.9367 13.6599 11.8294 13.7993 11.6685 13.7993Z" fill="#F17298"/>
<path d="M11.6685 16.4198C11.5077 16.4198 11.4004 16.3082 11.4004 16.141V15.5277C11.4004 15.3604 11.5077 15.2489 11.6685 15.2489C11.8294 15.2489 11.9367 15.3604 11.9367 15.5277V16.141C11.9367 16.3082 11.8294 16.4198 11.6685 16.4198Z" fill="#F17298"/>
<path d="M13.2253 14.8023H12.6353C12.4745 14.8023 12.3672 14.6909 12.3672 14.5238C12.3672 14.3567 12.4745 14.2453 12.6353 14.2453H13.2253C13.3862 14.2453 13.4935 14.3567 13.4935 14.5238C13.4935 14.6909 13.3862 14.8023 13.2253 14.8023Z" fill="#F17298"/>
<path d="M10.7038 14.8023H10.1139C9.95297 14.8023 9.8457 14.6909 9.8457 14.5238C9.8457 14.3567 9.95297 14.2453 10.1139 14.2453H10.7038C10.8647 14.2453 10.972 14.3567 10.972 14.5238C10.972 14.6909 10.8379 14.8023 10.7038 14.8023Z" fill="#F17298"/>
<path d="M3.51713 17.9809C3.38304 17.9809 3.24896 17.8415 3.27577 17.6742C3.30259 17.5348 3.40986 17.3954 3.57076 17.4233C3.70484 17.4233 3.83893 17.5627 3.81211 17.73C3.78529 17.8693 3.67803 17.9809 3.51713 17.9809ZM4.45571 17.6742C4.42889 17.5348 4.50934 17.3676 4.64343 17.3397C4.77751 17.3118 4.93841 17.3954 4.96523 17.5348C4.99204 17.6742 4.91159 17.8415 4.77751 17.8693C4.75069 17.8693 4.72388 17.8693 4.72388 17.8693C4.58979 17.8693 4.48253 17.7857 4.45571 17.6742ZM2.28356 17.6463C2.14947 17.5906 2.06902 17.4233 2.14947 17.2839C2.20311 17.1445 2.36401 17.0888 2.49809 17.1445C2.63217 17.2003 2.68581 17.3676 2.63217 17.5069C2.57854 17.6185 2.49809 17.6742 2.39082 17.6742C2.33719 17.6742 2.31037 17.6742 2.28356 17.6463ZM5.58201 17.256C5.50156 17.1167 5.52838 16.9494 5.66246 16.8658C5.79655 16.7821 5.95745 16.81 6.0379 16.9494C6.11835 17.0888 6.09153 17.256 5.95745 17.3397C5.90381 17.3676 5.85018 17.3954 5.79655 17.3954C5.7161 17.3954 5.63564 17.3397 5.58201 17.256ZM1.21089 16.9215C1.10362 16.81 1.10362 16.6427 1.18407 16.5312C1.29134 16.4197 1.45224 16.4197 1.55951 16.5034C1.66677 16.6149 1.66677 16.7821 1.58632 16.8936C1.53269 16.9773 1.45224 17.0052 1.39861 17.0052C1.31816 17.0052 1.26452 16.9773 1.21089 16.9215ZM6.5206 16.4755C6.41333 16.3918 6.38651 16.1967 6.46696 16.0852C6.54741 15.9737 6.73513 15.9458 6.8424 16.0294C6.94966 16.1131 6.97648 16.3082 6.89603 16.4197C6.8424 16.4755 6.76195 16.5312 6.6815 16.5312C6.62786 16.5591 6.54741 16.5312 6.5206 16.4755ZM0.433204 15.8901C0.352754 15.7507 0.406387 15.5834 0.540471 15.4998C0.674554 15.4161 0.835455 15.4719 0.915905 15.6113C0.996355 15.7507 0.942721 15.9179 0.808638 16.0016C0.755005 16.0294 0.728188 16.0294 0.674554 16.0294C0.567288 16.0294 0.460021 15.9737 0.433204 15.8901ZM7.1642 15.444C7.03011 15.3883 6.94966 15.221 7.0033 15.0816C7.05693 14.9422 7.21783 14.8586 7.35191 14.9144C7.486 14.9701 7.56645 15.1095 7.51281 15.2768C7.486 15.3883 7.37873 15.4719 7.27146 15.4719C7.21783 15.4719 7.19101 15.4719 7.1642 15.444ZM0.00413678 14.6356C-0.0226799 14.4962 0.0845869 14.3289 0.21867 14.3289C0.352754 14.3011 0.486837 14.4126 0.513654 14.5519C0.540471 14.6913 0.433204 14.8586 0.299121 14.8865C0.272304 14.8865 0.272304 14.8865 0.245487 14.8865C0.13822 14.8586 0.0309535 14.775 0.00413678 14.6356ZM7.1642 13.9665C7.1642 13.7993 7.29828 13.6877 7.43236 13.6877C7.56645 13.6877 7.70053 13.7993 7.70053 13.9665C7.70053 14.1338 7.56645 14.2453 7.43236 14.2453C7.29828 14.2453 7.1642 14.1338 7.1642 13.9665ZM0.21867 13.632C0.0845869 13.6041 -0.0226799 13.4647 0.00413678 13.3253C0.0309535 13.186 0.165037 13.0744 0.299121 13.1023C0.460021 13.1023 0.567288 13.2417 0.540471 13.409C0.513654 13.5484 0.406387 13.632 0.272304 13.632C0.245487 13.632 0.245487 13.632 0.21867 13.632ZM6.97648 12.8236C6.92285 12.6842 7.0033 12.5169 7.13738 12.4611C7.27146 12.4054 7.43236 12.489 7.486 12.6284C7.53963 12.7678 7.45918 12.9351 7.3251 12.9908C7.29828 12.9908 7.27146 13.0187 7.24465 13.0187C7.13738 13.0187 7.03011 12.9351 6.97648 12.8236ZM0.540471 12.4333C0.406387 12.3496 0.352754 12.1824 0.433204 12.043C0.513654 11.9036 0.674554 11.8478 0.808638 11.9315C0.942721 12.0151 0.996355 12.1824 0.915905 12.2939C0.862271 12.3775 0.781821 12.4333 0.674554 12.4333C0.620921 12.4611 0.567288 12.4611 0.540471 12.4333ZM6.46696 11.82C6.38651 11.7085 6.38651 11.5133 6.5206 11.4297C6.62786 11.3461 6.81558 11.3461 6.89603 11.4854C6.97648 11.5969 6.97648 11.7921 6.8424 11.8757C6.78876 11.9036 6.73513 11.9315 6.6815 11.9315C6.60105 11.9315 6.5206 11.9036 6.46696 11.82ZM1.18407 11.4018C1.07681 11.2903 1.0768 11.123 1.21089 11.0115C1.31816 10.9 1.47906 10.9 1.58632 11.0394C1.69359 11.1509 1.69359 11.3182 1.58632 11.4297C1.53269 11.4854 1.47906 11.5133 1.39861 11.5133C1.31816 11.4854 1.23771 11.4576 1.18407 11.4018ZM5.63564 11.0673C5.50156 10.9836 5.47474 10.8164 5.5552 10.677C5.63565 10.5376 5.79655 10.5097 5.93063 10.5934C6.06471 10.677 6.09153 10.8443 6.01108 10.9836C5.95745 11.0673 5.877 11.123 5.79655 11.123C5.74291 11.0952 5.68928 11.0952 5.63564 11.0673ZM2.12266 10.6491C2.06902 10.5097 2.12266 10.3425 2.25674 10.2867C2.39082 10.231 2.55172 10.2867 2.60536 10.4261C2.65899 10.5655 2.60536 10.7328 2.47127 10.7885C2.44446 10.8164 2.39082 10.8164 2.36401 10.8164C2.28356 10.8164 2.17629 10.7606 2.12266 10.6491ZM4.64343 10.5934C4.50934 10.5655 4.40208 10.3982 4.45571 10.2588C4.48253 10.1195 4.64343 10.0079 4.77751 10.0637C4.91159 10.0916 5.01886 10.2588 4.96523 10.3982C4.93841 10.5097 4.83114 10.6212 4.69706 10.6212C4.69706 10.6212 4.67024 10.6212 4.64343 10.5934ZM3.24896 10.2588C3.24896 10.1195 3.35622 9.98006 3.49031 9.95219C3.65121 9.95219 3.75848 10.0637 3.78529 10.2031C3.78529 10.3425 3.67803 10.4819 3.54394 10.5097C3.54394 10.5097 3.54394 10.5097 3.51713 10.5097C3.38304 10.5097 3.27577 10.3982 3.24896 10.2588Z" fill="#F17298"/>
</svg>
