<svg width="30" height="32" viewBox="0 0 30 32" fill="none" xmlns="http://www.w3.org/2000/svg">
<path d="M16.0227 0.597695L7.30266 1.65124C7.30266 1.65124 7.30266 1.62929 7.28155 1.62929C5.82469 0.158719 3.5444 -0.477797 1.64416 0.400156C-0.0660591 1.19031 -0.382763 3.53884 0.419561 5.11915C0.989634 6.28244 2.15089 7.00675 3.35438 7.33598L1.53859 12.1867L15.5159 31.0846L30 19.5176L16.0227 0.597695ZM0.926291 5.20695C-0.0449439 3.82417 0.250648 1.71708 1.64416 0.817183C3.22769 -0.192462 5.50799 0.5099 6.83816 1.69514L5.3813 1.87073L3.48106 6.96285C2.50983 6.74336 1.58082 6.15075 0.926291 5.20695ZM2.02421 12.0989L3.77665 7.40183C4.05113 7.44573 4.3045 7.48962 4.57898 7.48962C5.46576 7.53352 6.2892 7.27013 6.94373 6.78726C7.2182 7.0726 7.59825 7.22624 7.9783 7.22624C8.33723 7.22624 8.71728 7.09454 9.03399 6.85311C9.37181 6.58972 9.60406 6.19464 9.68852 5.77762C9.77297 5.33864 9.6674 4.92161 9.43515 4.59238C9.2029 4.26315 8.82285 4.06561 8.40058 4.04366C7.99941 4.02171 7.57714 4.1534 7.23932 4.41679C6.9015 4.68017 6.66924 5.07525 6.58479 5.49228C6.52145 5.82151 6.56368 6.15074 6.71147 6.43608C5.88803 6.96285 4.89569 7.16039 3.92445 7.0287L5.69801 2.26581L15.8538 1.03667L29.4299 19.3859L15.6004 30.4481L2.02421 12.0989ZM7.00706 5.58008C7.07041 5.27279 7.23932 4.98746 7.49269 4.76797C7.72494 4.59238 7.99942 4.48264 8.25278 4.48264C7.9783 5.20695 7.55603 5.77762 7.04929 6.19464C6.98595 5.9971 6.96484 5.79956 7.00706 5.58008ZM8.63283 4.54848C8.82285 4.61433 8.97065 4.72407 9.09734 4.87771C9.26625 5.0972 9.32958 5.40449 9.26624 5.71177C9.2029 6.01905 9.03399 6.30439 8.78063 6.52387C8.29501 6.897 7.68271 6.897 7.30266 6.54582C7.89385 6.01905 8.33724 5.33864 8.63283 4.54848Z" fill="black"/>
<path d="M27.3604 18.9689L17.1202 5.14111C17.0569 5.05331 16.9091 5.03136 16.8246 5.09721L5.35984 14.2718C5.31762 14.3157 5.2965 14.3596 5.27539 14.4255C5.27539 14.4913 5.27539 14.5352 5.31761 14.5791L15.5578 28.4068C15.6 28.4727 15.6634 28.4946 15.7267 28.4946C15.7689 28.4946 15.8112 28.4727 15.8534 28.4507L27.3182 19.2761C27.3604 19.2322 27.3815 19.1883 27.4026 19.1225C27.4026 19.0786 27.3815 19.0128 27.3604 18.9689ZM15.7689 27.9679L5.80324 14.4913L16.9302 5.60203L26.8959 19.0786L15.7689 27.9679Z" fill="black"/>
<path d="M13.7418 10.4087C13.6785 10.321 13.5307 10.2991 13.4462 10.3649C13.3618 10.4307 13.3407 10.5842 13.404 10.6719L13.6152 10.9569C13.6574 11.0227 13.7207 11.0447 13.7841 11.0447C13.8263 11.0447 13.8685 11.0227 13.9107 11.0008C13.9952 10.935 14.0163 10.7815 13.953 10.6938L13.7418 10.4087Z" fill="black"/>
<path d="M14.8612 11.9449L14.65 11.6598C14.5867 11.5721 14.4389 11.5502 14.3544 11.616C14.27 11.6817 14.2489 11.8352 14.3122 11.923L14.5233 12.208C14.5656 12.2738 14.6289 12.2957 14.6923 12.2957C14.7345 12.2957 14.7767 12.2738 14.8189 12.2519C14.9245 12.1642 14.9456 12.0326 14.8612 11.9449Z" fill="black"/>
<path d="M13.5528 11.5062L13.2783 11.7255C13.1938 11.7913 13.1727 11.9448 13.236 12.0325C13.2783 12.0983 13.3416 12.1202 13.405 12.1202C13.4472 12.1202 13.4894 12.0983 13.5317 12.0763L13.8061 11.8571C13.8906 11.7913 13.9117 11.6378 13.8484 11.5501C13.785 11.4404 13.6372 11.4185 13.5528 11.5062Z" fill="black"/>
<path d="M14.5866 11.1545C14.6288 11.1545 14.6711 11.1325 14.7133 11.1106L14.9878 10.8913C15.0722 10.8255 15.0933 10.6721 15.03 10.5843C14.9667 10.4966 14.8189 10.4747 14.7344 10.5405L14.4599 10.7598C14.3755 10.8255 14.3543 10.979 14.4177 11.0668C14.4599 11.1325 14.5233 11.1545 14.5866 11.1545Z" fill="black"/>
<path d="M21.3437 15.4565C21.3859 15.5222 21.4492 15.5442 21.5126 15.5442C21.5548 15.5442 21.597 15.5222 21.6393 15.5003C21.7237 15.4345 21.7448 15.281 21.6815 15.1933L21.4704 14.9083C21.407 14.8205 21.2592 14.7986 21.1748 14.8644C21.0903 14.9302 21.0692 15.0837 21.1325 15.1714L21.3437 15.4565Z" fill="black"/>
<path d="M22.2519 16.6856C22.2941 16.7513 22.3574 16.7733 22.4208 16.7733C22.463 16.7733 22.5052 16.7513 22.5475 16.7294C22.6319 16.6636 22.653 16.5101 22.5897 16.4224L22.3786 16.1374C22.3152 16.0497 22.1674 16.0277 22.083 16.0935C21.9985 16.1593 21.9774 16.3128 22.0407 16.4005L22.2519 16.6856Z" fill="black"/>
<path d="M21.1315 16.5978C21.1738 16.5978 21.216 16.5758 21.2582 16.5539L21.5327 16.3346C21.6172 16.2688 21.6383 16.1154 21.5749 16.0276C21.5116 15.9399 21.3638 15.918 21.2793 15.9838L21.0048 16.2031C20.9204 16.2688 20.8993 16.4223 20.9626 16.5101C21.0048 16.5758 21.0682 16.5978 21.1315 16.5978Z" fill="black"/>
<path d="M22.3151 15.6539C22.3573 15.6539 22.3996 15.632 22.4418 15.6101L22.7163 15.3908C22.8007 15.325 22.8219 15.1715 22.7585 15.0838C22.6952 14.9961 22.5474 14.9742 22.4629 15.04L22.1884 15.2592C22.104 15.325 22.0829 15.4785 22.1462 15.5662C22.1884 15.632 22.2518 15.6539 22.3151 15.6539Z" fill="black"/>
<path d="M15.1354 13.1081C15.1565 13.1301 15.1988 13.1301 15.2199 13.1301C15.3043 13.1301 15.3677 13.0862 15.4099 12.9985C15.4521 12.8889 15.4099 12.7573 15.3043 12.7134C15.1988 12.6696 15.0721 12.7134 15.0299 12.8231C14.9876 12.9327 15.0299 13.0423 15.1354 13.1081Z" fill="black"/>
<path d="M15.2619 14.7545C15.2408 14.6449 15.1141 14.5791 15.0085 14.601C14.9029 14.623 14.8185 14.7545 14.8607 14.8642C14.8818 14.9519 14.9663 15.0396 15.0719 15.0396C15.093 15.0396 15.1141 15.0396 15.1141 15.0396C15.2197 14.9957 15.283 14.8642 15.2619 14.7545Z" fill="black"/>
<path d="M16.4245 11.3526C16.3189 11.3964 16.2767 11.528 16.3189 11.6377C16.3611 11.7254 16.4245 11.7692 16.5089 11.7692C16.5301 11.7692 16.5723 11.7692 16.5934 11.7473C16.699 11.7034 16.7412 11.5719 16.699 11.4622C16.6567 11.3307 16.5301 11.2868 16.4245 11.3526Z" fill="black"/>
<path d="M14.9878 14.0519C15.0933 14.0519 15.1778 13.9642 15.1989 13.8546C15.1989 13.7449 15.1145 13.6353 15.0089 13.6133C14.8822 13.6133 14.7978 13.6791 14.7766 13.8107C14.7555 13.9423 14.84 14.0519 14.9878 14.0519C14.9667 14.0519 14.9667 14.0519 14.9878 14.0519Z" fill="black"/>
<path d="M15.7069 15.6763C15.6858 15.6544 15.6858 15.6325 15.6647 15.6325C15.6647 15.6105 15.6436 15.5886 15.6436 15.5667C15.5803 15.457 15.4536 15.4351 15.348 15.5228C15.2636 15.5886 15.2213 15.7202 15.3058 15.8298C15.3269 15.8518 15.3269 15.8737 15.348 15.8737C15.348 15.8956 15.3691 15.9175 15.3902 15.9395C15.4325 15.9833 15.4958 16.0272 15.5591 16.0272C15.6014 16.0272 15.6436 16.0053 15.6858 15.9833C15.7492 15.8956 15.7703 15.764 15.7069 15.6763Z" fill="black"/>
<path d="M15.6005 11.9452C15.516 12.0329 15.516 12.1644 15.6005 12.2522C15.6427 12.296 15.706 12.3179 15.7483 12.3179C15.8116 12.3179 15.8538 12.296 15.8961 12.2522C15.9805 12.1644 15.9805 12.0329 15.8961 11.9452C15.8116 11.8575 15.6849 11.8575 15.6005 11.9452Z" fill="black"/>
<path d="M16.339 16.2691C16.2335 16.2033 16.1068 16.2253 16.0434 16.3349C15.9801 16.4446 16.0012 16.5761 16.1068 16.6419C16.149 16.6638 16.1912 16.6858 16.2124 16.6858C16.2757 16.6858 16.339 16.6419 16.3813 16.5761C16.4657 16.4665 16.4235 16.3349 16.339 16.2691Z" fill="black"/>
<path d="M20.2457 14.9961C20.1402 14.9523 20.0135 14.9961 19.9713 15.1058C19.929 15.2154 19.9713 15.347 20.0768 15.3908C20.0979 15.3908 20.1402 15.4127 20.1613 15.4127C20.2457 15.4127 20.3302 15.3689 20.3513 15.2812C20.4147 15.1715 20.3513 15.0619 20.2457 14.9961Z" fill="black"/>
<path d="M18.008 17.1028H18.0291C18.1347 17.0809 18.2192 16.9712 18.2192 16.8616C18.1981 16.7519 18.0925 16.6642 17.9869 16.6642C17.8602 16.6862 17.7969 16.7958 17.7969 16.9054C17.818 17.0151 17.9025 17.1028 18.008 17.1028Z" fill="black"/>
<path d="M17.4162 11.5058C17.4162 11.5058 17.4373 11.5058 17.4162 11.5058C17.5429 11.4839 17.6274 11.3962 17.6274 11.2646C17.6274 11.155 17.5218 11.0454 17.3951 11.0673C17.2895 11.0673 17.2051 11.1769 17.2051 11.3085C17.2051 11.4181 17.3107 11.5058 17.4162 11.5058Z" fill="black"/>
<path d="M16.8673 16.7958C16.8462 16.9054 16.9095 17.037 17.0362 17.0589C17.0573 17.0589 17.0573 17.0589 17.0784 17.0589C17.184 17.0589 17.2685 16.9931 17.2896 16.8835C17.3107 16.7738 17.2474 16.6423 17.1207 16.6203C17.0151 16.5984 16.9095 16.6642 16.8673 16.7958Z" fill="black"/>
<path d="M18.9151 16.8175C18.9573 16.8175 18.9784 16.8175 19.0207 16.7955C19.1262 16.7517 19.1685 16.5982 19.1051 16.4885C19.0629 16.3789 18.9151 16.335 18.8095 16.4008C18.704 16.4447 18.6617 16.5982 18.7251 16.6859C18.7462 16.7736 18.8306 16.8175 18.9151 16.8175Z" fill="black"/>
<path d="M18.3034 11.5717C18.3245 11.5717 18.3456 11.5717 18.3456 11.5717C18.4512 11.5717 18.5356 11.5059 18.5567 11.3963C18.5779 11.2866 18.5145 11.155 18.409 11.1331C18.3034 11.1112 18.1767 11.177 18.1556 11.2866C18.1134 11.4182 18.1767 11.5278 18.3034 11.5717Z" fill="black"/>
<path d="M19.1905 11.9668C19.2538 11.9668 19.3172 11.9449 19.3594 11.8791C19.4227 11.7694 19.4016 11.6379 19.2961 11.5721C19.1905 11.5063 19.0638 11.5282 19.0005 11.6379C18.9371 11.7475 18.9582 11.8791 19.0638 11.9449C19.106 11.9668 19.1483 11.9668 19.1905 11.9668Z" fill="black"/>
<path d="M20.0763 13.3497C20.0974 13.4374 20.1818 13.5032 20.2874 13.5032C20.3085 13.5032 20.3296 13.5032 20.3507 13.5032C20.4563 13.4813 20.5196 13.3497 20.4985 13.2401C20.4774 13.1304 20.3507 13.0646 20.2452 13.0866C20.1185 13.1085 20.0552 13.2401 20.0763 13.3497Z" fill="black"/>
<path d="M20.1816 14.2497C20.1816 14.3812 20.2661 14.4689 20.3717 14.4909C20.3717 14.4909 20.3717 14.4909 20.3928 14.4909C20.4984 14.4909 20.6039 14.4032 20.6039 14.2935C20.6039 14.1839 20.5195 14.0742 20.4139 14.0523C20.2872 14.0304 20.1816 14.1181 20.1816 14.2497Z" fill="black"/>
<path d="M19.8656 12.6472C19.9078 12.6472 19.95 12.6253 19.9922 12.6033C20.0978 12.5375 20.0978 12.406 20.0345 12.2963C19.9711 12.1867 19.8233 12.1867 19.7389 12.2525C19.6333 12.3183 19.6122 12.4718 19.6966 12.5595C19.7389 12.6033 19.8022 12.6472 19.8656 12.6472Z" fill="black"/>
<path d="M19.6545 16.2248C19.7179 16.2248 19.7601 16.2029 19.8023 16.1591C19.8868 16.0713 19.8868 15.9398 19.8023 15.8521C19.7179 15.7644 19.5912 15.7644 19.5067 15.8521C19.4222 15.9398 19.4222 16.0713 19.5067 16.1591C19.5489 16.2029 19.6123 16.2248 19.6545 16.2248Z" fill="black"/>
</svg>
