<svg width="30" height="26" viewBox="0 0 30 26" fill="none" xmlns="http://www.w3.org/2000/svg">
<path d="M3.61609 1.26104C3.75605 1.26104 3.84937 1.16404 3.84937 1.01853V0.242508C3.84937 0.097003 3.75605 0 3.61609 0C3.47612 0 3.38281 0.097003 3.38281 0.242508V1.04278C3.38281 1.16404 3.49945 1.26104 3.61609 1.26104Z" fill="black"/>
<path d="M3.84937 4.48639V3.68612C3.84937 3.54062 3.75605 3.44361 3.61609 3.44361C3.47612 3.44361 3.38281 3.54062 3.38281 3.68612V4.48639C3.38281 4.6319 3.47612 4.7289 3.61609 4.7289C3.75605 4.7289 3.84937 4.6319 3.84937 4.48639Z" fill="black"/>
<path d="M2.33329 2.10981H1.5868C1.44683 2.10981 1.35352 2.20672 1.35352 2.35209C1.35352 2.49745 1.44683 2.59436 1.5868 2.59436H2.35662C2.49659 2.59436 2.5899 2.49745 2.5899 2.35209C2.5899 2.20672 2.47326 2.10981 2.33329 2.10981Z" fill="black"/>
<path d="M4.92273 2.59436H5.69256C5.83253 2.59436 5.92584 2.49745 5.92584 2.35209C5.92584 2.20672 5.83253 2.10981 5.69256 2.10981H4.92273C4.78277 2.10981 4.68945 2.20672 4.68945 2.35209C4.68945 2.49745 4.78277 2.59436 4.92273 2.59436Z" fill="black"/>
<path d="M11.6169 19.0611C11.6169 18.9156 11.5236 18.8186 11.3837 18.8186C11.2437 18.8186 11.1504 18.9156 11.1504 19.0611V19.8614C11.1504 20.0069 11.2437 20.1039 11.3837 20.1039C11.5236 20.1039 11.6169 20.0069 11.6169 19.8614V19.0611Z" fill="black"/>
<path d="M11.3837 22.2864C11.2437 22.2864 11.1504 22.3834 11.1504 22.5289V23.3292C11.1504 23.4747 11.2437 23.5717 11.3837 23.5717C11.5236 23.5717 11.6169 23.4747 11.6169 23.3292V22.5289C11.6169 22.3834 11.5236 22.2864 11.3837 22.2864Z" fill="black"/>
<path d="M9.09766 21.1949C9.09766 21.3403 9.19097 21.4372 9.33094 21.4372H10.1008C10.2407 21.4372 10.334 21.3403 10.334 21.1949C10.334 21.0495 10.2407 20.9526 10.1008 20.9526H9.33094C9.2143 20.9526 9.09766 21.0495 9.09766 21.1949Z" fill="black"/>
<path d="M12.4336 21.1949C12.4336 21.3403 12.5269 21.4372 12.6669 21.4372H13.4367C13.5767 21.4372 13.67 21.3403 13.67 21.1949C13.67 21.0495 13.5767 20.9526 13.4367 20.9526H12.6669C12.5502 20.9526 12.4336 21.0495 12.4336 21.1949Z" fill="black"/>
<path d="M7.62903 2.42506V5.96567C7.58237 5.98992 7.53572 6.03843 7.53572 6.11118C7.51239 6.23243 7.58238 6.37794 7.69902 6.40219C7.72234 6.40219 7.74567 6.40219 7.74567 6.40219C7.83898 6.40219 7.9323 6.32943 7.97895 6.23243C8.02561 6.25668 8.04894 6.25668 8.09559 6.25668V2.91008H29.5575V25.2208H8.09559V18.4548C8.11892 18.4548 8.14225 18.4548 8.14225 18.4548C8.16558 18.4548 8.18891 18.4548 8.21223 18.4306C8.32888 18.3821 8.39886 18.2608 8.35221 18.1153C8.30555 17.994 8.18891 17.9213 8.04894 17.9698C7.9323 18.0183 7.86232 18.1395 7.90897 18.2608C7.81566 18.2851 7.72235 18.3093 7.6057 18.3336V25.7058H30.0007V2.42506H7.62903Z" fill="black"/>
<path d="M2.98661 6.98411C2.91663 6.86297 2.77666 6.83874 2.66002 6.93565C2.56671 7.00834 2.52005 7.15371 2.61336 7.27485C2.66002 7.34753 2.73 7.37176 2.79999 7.37176C2.84664 7.37176 2.8933 7.34753 2.93996 7.3233C3.03327 7.25062 3.07992 7.08102 2.98661 6.98411Z" fill="black"/>
<path d="M2.14534 16.8542C2.05203 16.9511 2.07536 17.0965 2.16867 17.1934C2.21533 17.2418 2.26198 17.2418 2.33197 17.2418C2.40196 17.2418 2.47194 17.2176 2.5186 17.1692C2.61191 17.0722 2.58858 16.9269 2.49527 16.83C2.37863 16.7573 2.21533 16.7573 2.14534 16.8542Z" fill="black"/>
<path d="M3.26654 17.4362C3.1499 17.3636 3.00993 17.412 2.93995 17.5331C2.86996 17.6543 2.91662 17.7997 3.00993 17.8723C3.05659 17.8966 3.07992 17.8966 3.12657 17.8966C3.19656 17.8966 3.28987 17.8481 3.33653 17.7754C3.42984 17.6543 3.38319 17.5089 3.26654 17.4362Z" fill="black"/>
<path d="M5.13203 18.1881C5.01538 18.1638 4.87541 18.2365 4.85208 18.3819C4.82875 18.503 4.89874 18.6484 5.03871 18.6726C5.06204 18.6726 5.06204 18.6726 5.08537 18.6726C5.20202 18.6726 5.29534 18.5999 5.31866 18.4788C5.31866 18.3334 5.24868 18.2123 5.13203 18.1881Z" fill="black"/>
<path d="M3.91828 6.47481C3.87162 6.35367 3.73164 6.30521 3.615 6.35367C3.49835 6.40213 3.45169 6.54749 3.49835 6.66864C3.54501 6.76555 3.615 6.814 3.70831 6.814C3.73164 6.814 3.7783 6.814 3.80163 6.78978C3.91828 6.74132 3.96494 6.59595 3.91828 6.47481Z" fill="black"/>
<path d="M4.17531 17.897C4.05866 17.8486 3.91869 17.9213 3.87204 18.0424C3.82538 18.1635 3.89536 18.3089 4.012 18.3574C4.03533 18.3574 4.05866 18.3816 4.10532 18.3816C4.19863 18.3816 4.29195 18.3331 4.31527 18.2362C4.3386 18.0909 4.29195 17.9455 4.17531 17.897Z" fill="black"/>
<path d="M4.89886 6.15951C4.87553 6.03837 4.73556 5.94146 4.61892 5.98992C4.50228 6.01414 4.40897 6.15951 4.45563 6.28066C4.47896 6.37757 4.57227 6.45025 4.68891 6.45025C4.71224 6.45025 4.73557 6.45025 4.75889 6.45025C4.85221 6.4018 4.92219 6.28066 4.89886 6.15951Z" fill="black"/>
<path d="M5.66861 5.77167C5.52864 5.77167 5.43532 5.89281 5.45865 6.03818C5.48198 6.15932 5.5753 6.25623 5.69194 6.25623H5.71527C5.83191 6.25623 5.92523 6.13509 5.92523 5.98972C5.92523 5.84435 5.80859 5.77167 5.66861 5.77167Z" fill="black"/>
<path d="M0.466553 12.2706C0.466553 12.1253 0.373242 12.0284 0.233276 12.0284C0.0933105 12.0284 0 12.1253 0 12.2706C0 12.416 0.0933105 12.5129 0.233276 12.5129C0.349915 12.5129 0.466553 12.3918 0.466553 12.2706Z" fill="black"/>
<path d="M2.17001 7.63892C2.0767 7.54201 1.93673 7.54201 1.84342 7.63892C1.75011 7.73584 1.75011 7.8812 1.84342 7.97812C1.89008 8.02657 1.96006 8.0508 2.00671 8.0508C2.05337 8.0508 2.12335 8.02657 2.17001 7.97812C2.26332 7.8812 2.26332 7.73584 2.17001 7.63892Z" fill="black"/>
<path d="M0.395938 10.7911C0.419266 10.7911 0.442595 10.7911 0.465923 10.7911C0.559236 10.7911 0.652548 10.7185 0.699205 10.6215C0.722533 10.5004 0.652549 10.355 0.535908 10.3308C0.419268 10.2823 0.279299 10.3793 0.255971 10.5004C0.185987 10.6215 0.255969 10.7669 0.395938 10.7911Z" fill="black"/>
<path d="M0.536658 13.2892C0.513331 13.1681 0.396693 13.0712 0.280057 13.0954C0.163421 13.1196 0.0701151 13.2408 0.0934423 13.3861C0.11677 13.5073 0.210078 13.58 0.326714 13.58C0.350042 13.58 0.350041 13.58 0.373368 13.58C0.466677 13.5557 0.559985 13.4346 0.536658 13.2892Z" fill="black"/>
<path d="M0.722685 9.77263C0.746013 9.79686 0.792666 9.79686 0.815994 9.79686C0.909305 9.79686 0.97929 9.7484 1.02594 9.65149C1.0726 9.53035 1.02594 9.38498 0.909307 9.33652C0.792669 9.28807 0.652702 9.33652 0.606047 9.45766C0.536064 9.5788 0.606047 9.72417 0.722685 9.77263Z" fill="black"/>
<path d="M0.233049 11.8582H0.256378C0.373015 11.8582 0.466325 11.7613 0.489653 11.6401C0.51298 11.519 0.419668 11.3978 0.279704 11.3736C0.163066 11.3494 0.0464312 11.4463 0.0231037 11.5917C-0.000223703 11.737 0.0930847 11.8582 0.233049 11.8582Z" fill="black"/>
<path d="M1.46883 8.4392C1.35219 8.36652 1.21223 8.39074 1.14225 8.48766C1.07227 8.6088 1.0956 8.75417 1.18891 8.82685C1.23556 8.85108 1.28221 8.87531 1.32887 8.87531C1.39885 8.87531 1.46883 8.85108 1.51548 8.77839C1.60879 8.65725 1.58547 8.51188 1.46883 8.4392Z" fill="black"/>
<path d="M0.793773 14.3078C0.747118 14.1866 0.607153 14.114 0.490517 14.1624C0.37388 14.2109 0.303896 14.3562 0.350551 14.4774C0.373878 14.5743 0.46719 14.647 0.560499 14.647C0.583827 14.647 0.607151 14.647 0.630479 14.6227C0.770443 14.5743 0.840428 14.4289 0.793773 14.3078Z" fill="black"/>
<path d="M1.44601 16.0539C1.3527 16.1266 1.32937 16.2962 1.42269 16.3931C1.46935 16.4416 1.53933 16.4901 1.60932 16.4901C1.65598 16.4901 1.70264 16.4658 1.7493 16.4416C1.84261 16.3447 1.86594 16.1993 1.77263 16.1024C1.67931 15.9813 1.53933 15.9813 1.44601 16.0539Z" fill="black"/>
<path d="M0.885373 15.1567C0.768731 15.2294 0.745404 15.3747 0.792061 15.4959C0.838717 15.5685 0.908701 15.617 1.00201 15.617C1.04867 15.617 1.072 15.617 1.11866 15.5928C1.2353 15.5201 1.25862 15.3747 1.21197 15.2536C1.14198 15.1324 1.00201 15.084 0.885373 15.1567Z" fill="black"/>
<path d="M12.2236 11.2766C12.107 11.3008 12.0137 11.4219 12.0137 11.5431C12.037 11.6642 12.1303 11.7611 12.2469 11.7611H12.2703C12.4102 11.7369 12.4802 11.6158 12.4802 11.4946C12.4802 11.3493 12.3636 11.2524 12.2236 11.2766Z" fill="black"/>
<path d="M11.1507 15.4961C11.0807 15.6172 11.104 15.7626 11.2207 15.8353C11.2673 15.8595 11.314 15.8838 11.3373 15.8838C11.4073 15.8838 11.5006 15.8353 11.5472 15.7626C11.6172 15.6415 11.5939 15.4961 11.4773 15.4234C11.384 15.3507 11.2207 15.3992 11.1507 15.4961Z" fill="black"/>
<path d="M11.5701 9.23951C11.4534 9.28796 11.4068 9.45756 11.4534 9.55447C11.5001 9.65139 11.5701 9.67561 11.6634 9.67561C11.6867 9.67561 11.7334 9.67561 11.7567 9.65138C11.8734 9.60293 11.92 9.45756 11.8734 9.33642C11.8034 9.23951 11.6634 9.19105 11.5701 9.23951Z" fill="black"/>
<path d="M11.7576 14.9138C11.7809 14.9138 11.8043 14.938 11.8509 14.938C11.9442 14.938 12.0375 14.8896 12.0609 14.7926C12.1075 14.6715 12.0609 14.5261 11.9442 14.4777C11.8276 14.4292 11.6876 14.4777 11.641 14.5988C11.5943 14.72 11.6176 14.8653 11.7576 14.9138Z" fill="black"/>
<path d="M12.1537 13.8952C12.247 13.8952 12.3637 13.8225 12.387 13.7014C12.4103 13.5802 12.3403 13.4349 12.2004 13.4107C12.0837 13.3864 11.9438 13.4591 11.9204 13.6045C11.8971 13.7256 11.9671 13.871 12.1071 13.8952C12.1071 13.8952 12.1304 13.8952 12.1537 13.8952Z" fill="black"/>
<path d="M10.9877 8.34221C10.8944 8.4149 10.8711 8.56026 10.9411 8.6814C10.9877 8.75408 11.0577 8.77831 11.1277 8.77831C11.1744 8.77831 11.221 8.75408 11.2677 8.72986C11.361 8.65717 11.3843 8.48758 11.3143 8.39067C11.2444 8.29376 11.0811 8.26953 10.9877 8.34221Z" fill="black"/>
<path d="M11.9666 10.2338C11.85 10.2823 11.78 10.4034 11.8033 10.5245C11.8266 10.6214 11.9199 10.6941 12.0366 10.6941C12.0599 10.6941 12.0832 10.6941 12.1066 10.6941C12.2232 10.6457 12.2932 10.5245 12.2699 10.4034C12.2232 10.258 12.1066 10.1853 11.9666 10.2338Z" fill="black"/>
<path d="M6.11218 18.3093C5.99554 18.3093 5.87891 18.4062 5.87891 18.5516C5.87891 18.697 5.97222 18.7939 6.11218 18.7939C6.22882 18.7939 6.34546 18.697 6.34546 18.5516C6.34546 18.4062 6.22882 18.3093 6.11218 18.3093Z" fill="black"/>
<path d="M10.5438 16.3207C10.4505 16.4176 10.4738 16.5629 10.5671 16.6599C10.6138 16.7083 10.6604 16.7325 10.7304 16.7325C10.8004 16.7325 10.8471 16.7083 10.8937 16.6599C10.987 16.5629 10.9637 16.3934 10.8704 16.3207C10.8004 16.2238 10.6371 16.2238 10.5438 16.3207Z" fill="black"/>
<path d="M8.81726 6.32942C8.70061 6.28097 8.56063 6.32942 8.51397 6.45056C8.46731 6.5717 8.51397 6.71707 8.63062 6.76553C8.65395 6.78976 8.70061 6.78976 8.72394 6.78976C8.81726 6.78976 8.91057 6.7413 8.9339 6.64439C8.98056 6.52325 8.9339 6.37788 8.81726 6.32942Z" fill="black"/>
<path d="M10.5899 7.56616C10.4966 7.46925 10.3567 7.46925 10.2633 7.56616C10.17 7.66307 10.17 7.80844 10.2633 7.90535C10.31 7.95381 10.3567 7.97803 10.4266 7.97803C10.4966 7.97803 10.5433 7.95381 10.5899 7.90535C10.6832 7.80844 10.6832 7.66307 10.5899 7.56616Z" fill="black"/>
<path d="M8.98166 17.606C8.86502 17.6787 8.81837 17.8241 8.88835 17.9452C8.935 18.0179 9.00499 18.0663 9.0983 18.0663C9.14495 18.0663 9.16828 18.0663 9.21493 18.0421C9.33157 17.9694 9.37823 17.8241 9.30824 17.7271C9.23826 17.5818 9.0983 17.5333 8.98166 17.606Z" fill="black"/>
<path d="M9.77507 17.3632C9.82173 17.4358 9.89171 17.4601 9.9617 17.4601C10.0084 17.4601 10.055 17.4358 10.1017 17.4116C10.195 17.3389 10.2183 17.1693 10.1483 17.0724C10.0783 16.9755 9.91504 16.9513 9.82173 17.024C9.72841 17.1209 9.70508 17.2662 9.77507 17.3632Z" fill="black"/>
<path d="M9.44757 6.9356C9.37759 7.05674 9.40091 7.20211 9.51755 7.2748C9.5642 7.29903 9.61086 7.32325 9.65751 7.32325C9.72749 7.32325 9.79747 7.2748 9.84412 7.22634C9.9141 7.1052 9.89078 6.95983 9.77414 6.88715C9.65751 6.81446 9.51755 6.81446 9.44757 6.9356Z" fill="black"/>
<path d="M12.2937 12.3436C12.1537 12.3436 12.0604 12.4405 12.0371 12.5859C12.0371 12.707 12.1304 12.8282 12.2704 12.8282C12.2704 12.8282 12.2704 12.8282 12.2937 12.8282C12.4103 12.8282 12.527 12.7313 12.527 12.6101C12.527 12.4648 12.4337 12.3678 12.2937 12.3436Z" fill="black"/>
<path d="M6.741 5.77167C6.62435 5.77167 6.5077 5.86858 6.48438 5.98972C6.48438 6.11086 6.57769 6.232 6.69434 6.25623C6.69434 6.25623 6.69434 6.25623 6.71767 6.25623C6.83431 6.25623 6.95096 6.15932 6.95096 6.03818C6.97429 5.89281 6.88097 5.77167 6.741 5.77167Z" fill="black"/>
<path d="M7.11405 18.2365C6.99741 18.2608 6.9041 18.3819 6.92743 18.503C6.95075 18.6242 7.04407 18.7211 7.1607 18.7211H7.18403C7.30067 18.6969 7.39398 18.5757 7.39398 18.4546C7.34733 18.3092 7.23069 18.2123 7.11405 18.2365Z" fill="black"/>
<path d="M27.1071 7.34797C22.6048 7.34797 18.0791 7.34797 13.5768 7.34797C13.2036 7.34797 13.2036 7.95366 13.5768 7.95366C18.0791 7.95366 22.6048 7.95366 27.1071 7.95366C27.4804 7.95366 27.4804 7.34797 27.1071 7.34797Z" fill="black"/>
<path d="M27.107 10.3066C23.1412 10.3066 19.1754 10.3066 15.2096 10.3066C14.8364 10.3066 14.8364 10.9123 15.2096 10.9123C19.1754 10.9123 23.1412 10.9123 27.107 10.9123C27.4802 10.9123 27.4802 10.3066 27.107 10.3066Z" fill="black"/>
<path d="M27.1076 13.2894C23.4684 13.2894 19.8292 13.2894 16.1667 13.2894C15.7934 13.2894 15.7934 13.8951 16.1667 13.8951C19.8059 13.8951 23.445 13.8951 27.1076 13.8951C27.4808 13.8951 27.4808 13.2894 27.1076 13.2894Z" fill="black"/>
<path d="M27.107 16.248C23.1412 16.248 19.1754 16.248 15.2096 16.248C14.8364 16.248 14.8364 16.8537 15.2096 16.8537C19.1754 16.8537 23.1412 16.8537 27.107 16.8537C27.4802 16.8537 27.4802 16.248 27.107 16.248Z" fill="black"/>
<path d="M27.1081 19.2308C22.6758 19.2308 18.2434 19.2308 13.7878 19.2308C13.4145 19.2308 13.4145 19.8365 13.7878 19.8365C18.2201 19.8365 22.6524 19.8365 27.1081 19.8365C27.4814 19.8365 27.4814 19.2308 27.1081 19.2308Z" fill="black"/>
</svg>
