<svg width="13" height="20" viewBox="0 0 13 20" fill="none" xmlns="http://www.w3.org/2000/svg">
<path d="M10.4958 19.8274C10.6433 19.8494 10.7981 19.8222 10.9112 19.7386C11.0451 19.6831 11.1089 19.5921 11.1592 19.4237L12.1307 16.9546C12.2019 16.8145 12.1956 16.6878 12.1685 16.533C12.113 16.3991 12.0294 16.286 11.8892 16.2149L9.29053 14.5957C9.17127 14.5527 9.052 14.5098 8.92539 14.5161C8.77054 14.5432 8.66485 14.5777 8.55183 14.6614L7.09509 16.0024C6.22679 15.4205 5.45792 14.6775 4.80941 13.8016C4.1609 12.9257 3.67459 11.9734 3.32954 10.9166L5.03732 9.91462C5.15034 9.83094 5.21419 9.73992 5.28537 9.59973C5.32829 9.48047 5.34296 9.38212 5.31579 9.22726L4.52545 6.2692C4.49828 6.11434 4.4146 6.00132 4.30266 5.90922C4.16248 5.83804 4.04321 5.79512 3.88835 5.82229L1.24326 6.03096C1.0884 6.05813 0.982719 6.09263 0.8697 6.17631C0.777601 6.28825 0.706422 6.42843 0.663497 6.5477C0.376347 8.64128 0.602945 10.6607 1.39247 12.6133C2.14015 14.5093 3.31165 16.0916 4.90698 17.36C6.51588 18.7059 8.40218 19.5403 10.4958 19.8274ZM6.11504 5.04852C5.99578 5.0056 5.86917 5.01185 5.75615 5.09552C5.64314 5.1792 5.57929 5.27022 5.53637 5.38949L5.49236 5.68453C5.47769 5.78288 5.49127 5.86031 5.53311 5.91682C5.56761 6.0225 5.63037 6.10727 5.72872 6.12194C6.07919 6.29989 6.28839 6.58243 6.35631 6.96958C6.36256 7.09618 6.42532 7.18095 6.49542 7.21654C6.55818 7.3013 6.62827 7.33689 6.7057 7.3233L7.00074 7.36731C7.14827 7.38932 7.25395 7.35481 7.36697 7.27114C7.47999 7.18746 7.52291 7.06819 7.49574 6.91333C7.45608 6.50527 7.31072 6.1317 7.05969 5.79265C6.82957 5.48185 6.51469 5.2338 6.11504 5.04852ZM6.81079 0.55273C6.71244 0.53806 6.58583 0.54431 6.47281 0.627989C6.3598 0.711668 6.29595 0.802681 6.28128 0.90103L6.26553 1.17516C6.2226 1.29443 6.25711 1.40011 6.31986 1.48487C6.40354 1.59789 6.47364 1.63348 6.57199 1.64815C7.87769 1.99372 8.97719 2.71068 9.77214 3.78436C10.588 4.88629 10.932 6.11891 10.8814 7.46862C10.8668 7.56697 10.9013 7.67265 10.964 7.75742C11.0477 7.87044 11.1178 7.90603 11.2444 7.89978L11.5112 7.96471C11.6096 7.97938 11.7152 7.94487 11.8283 7.86119C11.9413 7.77751 12.0051 7.6865 11.9989 7.5599C12.0619 6.46339 11.8853 5.45681 11.4555 4.46273C11.0183 3.51783 10.4117 2.69844 9.61455 1.97632C8.81009 1.30337 7.87795 0.812449 6.81079 0.55273ZM6.45246 2.7865C6.35411 2.77183 6.2275 2.77808 6.11448 2.86176C6.00147 2.94544 5.93762 3.03645 5.92295 3.1348L5.87894 3.42984C5.86427 3.52819 5.87052 3.6548 5.93328 3.73956C5.99604 3.82432 6.06613 3.85991 6.16448 3.87458C6.90835 4.11121 7.5036 4.50161 7.96384 5.12322C8.42407 5.74482 8.64468 6.45635 8.63301 7.20864C8.61834 7.30699 8.65284 7.41267 8.7156 7.49744C8.77836 7.5822 8.87671 7.59687 8.97506 7.61154L9.2701 7.65555C9.38937 7.69847 9.49505 7.66397 9.60807 7.58029C9.72109 7.49661 9.76402 7.37734 9.75777 7.25074C9.7852 6.22433 9.49558 5.30143 8.86799 4.45379C8.26132 3.6344 7.46311 3.08806 6.45246 2.7865Z" fill="#F17298"/>
</svg>
