<svg width="19" height="32" viewBox="0 0 19 32" fill="none" xmlns="http://www.w3.org/2000/svg">
<path d="M0 0V31.1864H18.2433V0H0ZM17.8379 30.765H0.405406V0.421438H17.8379V30.765Z" fill="#F17298"/>
<path d="M17.0276 1.11681H1.2168V26.5085H17.0276V1.11681ZM16.6222 26.087H1.6222V1.53824H16.6222V26.087Z" fill="#F17298"/>
<path d="M12.6285 5.18369C12.7501 5.18369 12.8312 5.0994 12.8312 4.97297V4.31974C12.8312 4.19331 12.7501 4.10902 12.6285 4.10902C12.5069 4.10902 12.4258 4.19331 12.4258 4.31974V4.97297C12.4258 5.0994 12.5271 5.18369 12.6285 5.18369Z" fill="#F17298"/>
<path d="M12.6285 8.00735C12.7501 8.00735 12.8312 7.92306 12.8312 7.79663V7.1434C12.8312 7.01697 12.7501 6.93268 12.6285 6.93268C12.5069 6.93268 12.4258 7.01697 12.4258 7.1434V7.79663C12.4258 7.92306 12.5271 8.00735 12.6285 8.00735Z" fill="#F17298"/>
<path d="M13.6832 6.27904H14.3116C14.4332 6.27904 14.5143 6.19483 14.5143 6.06852C14.5143 5.94221 14.4332 5.858 14.3116 5.858H13.6832C13.5616 5.858 13.4805 5.94221 13.4805 6.06852C13.4805 6.19483 13.5616 6.27904 13.6832 6.27904Z" fill="#F17298"/>
<path d="M10.9664 6.27904H11.5948C11.7164 6.27904 11.7975 6.19483 11.7975 6.06852C11.7975 5.94221 11.7164 5.858 11.5948 5.858H10.9664C10.8448 5.858 10.7637 5.94221 10.7637 6.06852C10.7637 6.19483 10.8448 6.27904 10.9664 6.27904Z" fill="#F17298"/>
<path d="M14.3511 10.0513C14.2295 10.0513 14.1484 10.1356 14.1484 10.262V10.7467C14.1484 10.8731 14.2295 10.9574 14.3511 10.9574C14.4728 10.9574 14.5538 10.8731 14.5538 10.7467V10.262C14.5538 10.1356 14.4728 10.0513 14.3511 10.0513Z" fill="#F17298"/>
<path d="M14.3511 12.1374C14.2295 12.1374 14.1484 12.2217 14.1484 12.3482V12.8328C14.1484 12.9592 14.2295 13.0435 14.3511 13.0435C14.4728 13.0435 14.5538 12.9592 14.5538 12.8328V12.3482C14.5538 12.2428 14.4728 12.1374 14.3511 12.1374Z" fill="#F17298"/>
<path d="M15.1421 11.7577H15.6083C15.73 11.7577 15.811 11.6735 15.811 11.5472C15.811 11.4209 15.73 11.3367 15.6083 11.3367H15.1421C15.0205 11.3367 14.9395 11.4209 14.9395 11.5472C14.9395 11.6735 15.0205 11.7577 15.1421 11.7577Z" fill="#F17298"/>
<path d="M13.1148 11.7577H13.581C13.7026 11.7577 13.7837 11.6735 13.7837 11.5472C13.7837 11.4209 13.7026 11.3367 13.581 11.3367H13.1148C12.9932 11.3367 12.9121 11.4209 12.9121 11.5472C12.9121 11.6735 13.0135 11.7577 13.1148 11.7577Z" fill="#F17298"/>
<path d="M5.69533 12.6642C5.59397 12.7274 5.59397 12.8747 5.65478 12.9589C5.69533 13.0221 5.75614 13.0431 5.81695 13.0431C5.8575 13.0431 5.89805 13.0221 5.93859 13.001C6.03995 12.9379 6.03994 12.7905 5.97912 12.7063C5.91831 12.6221 5.77642 12.601 5.69533 12.6642Z" fill="#F17298"/>
<path d="M5.35086 11.8003C5.24951 11.8424 5.18869 11.9476 5.20896 12.0739C5.22923 12.1581 5.31032 12.2213 5.41167 12.2213C5.43194 12.2213 5.45221 12.2213 5.47248 12.2213C5.57384 12.1792 5.63466 12.0739 5.59411 11.9476C5.57384 11.8213 5.45221 11.7581 5.35086 11.8003Z" fill="#F17298"/>
<path d="M10.6824 10.2829C10.7027 10.3671 10.7838 10.4302 10.8648 10.4302C10.8851 10.4302 10.9054 10.4302 10.9256 10.4302C11.027 10.3881 11.0878 10.2829 11.0675 10.1776C11.027 10.0723 10.9256 10.0092 10.8243 10.0302C10.7027 10.0513 10.6419 10.1776 10.6824 10.2829Z" fill="#F17298"/>
<path d="M10.9859 10.8942C10.8643 10.8942 10.7832 10.9784 10.7832 11.1047C10.7832 11.21 10.8643 11.3152 10.9859 11.3152C11.0872 11.3152 11.1886 11.21 11.1886 11.1047C11.1886 10.9784 11.1075 10.8942 10.9859 10.8942Z" fill="#F17298"/>
<path d="M10.9246 11.8213C10.8233 11.7792 10.7017 11.8424 10.6611 11.9477C10.6206 12.0529 10.6814 12.1792 10.7828 12.2213C10.803 12.2213 10.8233 12.2213 10.8436 12.2213C10.9246 12.2213 11.0057 12.1582 11.0463 12.074C11.0868 11.9687 11.026 11.8634 10.9246 11.8213Z" fill="#F17298"/>
<path d="M7.17533 14.1178C7.1956 14.1178 7.21587 14.1178 7.23614 14.1178C7.31722 14.1178 7.3983 14.0546 7.43884 13.9704C7.47938 13.8651 7.41857 13.7388 7.31722 13.6967C7.21587 13.6546 7.09425 13.7178 7.05371 13.823C7.01317 13.9704 7.07398 14.0757 7.17533 14.1178Z" fill="#F17298"/>
<path d="M6.48564 8.89194C6.52618 8.89194 6.56673 8.87089 6.60727 8.84983C6.68836 8.78668 6.7289 8.63931 6.64782 8.55511C6.587 8.44985 6.4451 8.4288 6.36402 8.513C6.26266 8.57616 6.24238 8.70247 6.32347 8.80773C6.34374 8.84983 6.40455 8.89194 6.48564 8.89194Z" fill="#F17298"/>
<path d="M6.44556 13.6964C6.50637 13.6964 6.56717 13.6753 6.60771 13.6121C6.66852 13.5279 6.64825 13.3806 6.56717 13.3174C6.46583 13.2543 6.34421 13.2753 6.2834 13.3595C6.2226 13.4437 6.24287 13.5911 6.32394 13.6543C6.36448 13.6964 6.40503 13.6964 6.44556 13.6964Z" fill="#F17298"/>
<path d="M7.27618 8.47052C7.29645 8.47052 7.31672 8.47052 7.337 8.47052C7.43836 8.42841 7.49918 8.32315 7.4789 8.19684C7.43836 8.09158 7.337 8.02842 7.23564 8.04947C7.13427 8.09158 7.07346 8.19684 7.09373 8.3021C7.114 8.40736 7.19509 8.47052 7.27618 8.47052Z" fill="#F17298"/>
<path d="M8.12848 14.2864C8.2501 14.2864 8.33118 14.1811 8.33118 14.0758C8.33118 13.9706 8.22983 13.8653 8.12848 13.8653C8.02713 13.8653 7.92578 13.9495 7.92578 14.0758C7.92578 14.1811 8.00686 14.2864 8.12848 14.2864Z" fill="#F17298"/>
<path d="M5.83814 9.54517C5.89895 9.54517 5.95975 9.52412 6.00029 9.46097C6.0611 9.37676 6.04083 9.22939 5.95975 9.16624C5.8584 9.10308 5.73679 9.12413 5.67598 9.20834C5.61517 9.29255 5.63544 9.43991 5.71652 9.50307C5.75706 9.52412 5.7976 9.54517 5.83814 9.54517Z" fill="#F17298"/>
<path d="M5.27106 11.2942C5.39268 11.2942 5.47375 11.2099 5.47375 11.0836C5.47375 10.9573 5.39268 10.8731 5.27106 10.8731C5.14944 10.8731 5.06836 10.9573 5.06836 11.0836C5.06836 11.1889 5.16971 11.2731 5.27106 11.2942Z" fill="#F17298"/>
<path d="M5.35086 10.3459C5.37113 10.3459 5.3914 10.3459 5.41167 10.3459C5.49275 10.3459 5.57384 10.2828 5.59411 10.1985C5.63466 10.0933 5.57384 9.96697 5.47248 9.92487C5.37113 9.88277 5.2495 9.94592 5.20896 10.0512C5.18869 10.1985 5.24951 10.3249 5.35086 10.3459Z" fill="#F17298"/>
<path d="M10.4798 9.58733C10.5203 9.58733 10.5609 9.56628 10.6014 9.54523C10.6825 9.48207 10.723 9.35576 10.642 9.2505C10.5811 9.16629 10.4595 9.12418 10.3582 9.20839C10.2568 9.27155 10.2365 9.39786 10.3176 9.50312C10.3379 9.56628 10.419 9.58733 10.4798 9.58733Z" fill="#F17298"/>
<path d="M9.85181 8.93411C9.91262 8.93411 9.97342 8.91306 10.014 8.8499C10.0748 8.76569 10.0545 8.61833 9.97342 8.55517C9.89234 8.49201 9.75046 8.51307 9.68966 8.59727C9.62885 8.68148 9.64911 8.82885 9.73019 8.892C9.77072 8.91306 9.81127 8.93411 9.85181 8.93411Z" fill="#F17298"/>
<path d="M10.4397 13.0642C10.5005 13.0642 10.5613 13.0432 10.6019 12.98C10.6627 12.8747 10.6424 12.7484 10.5613 12.6853C10.4802 12.6221 10.3383 12.6432 10.2775 12.7274C10.2167 12.8326 10.237 12.959 10.3181 13.0221C10.3586 13.0432 10.3992 13.0642 10.4397 13.0642Z" fill="#F17298"/>
<path d="M9.8111 13.7174C9.85165 13.7174 9.89219 13.6964 9.93273 13.6753C10.0341 13.6122 10.0544 13.4648 9.97328 13.3806C9.91246 13.2753 9.79084 13.2753 9.68947 13.3385C9.58811 13.4017 9.58811 13.549 9.64893 13.6332C9.68947 13.6964 9.75029 13.7174 9.8111 13.7174Z" fill="#F17298"/>
<path d="M8.97977 8.47051C9.00004 8.47051 9.02031 8.49157 9.04058 8.49157C9.12167 8.49157 9.20275 8.42841 9.22302 8.3442C9.26356 8.23894 9.20275 8.11263 9.10139 8.07052C9.00004 8.02842 8.87841 8.09158 8.83787 8.19684C8.8176 8.32315 8.87841 8.44946 8.97977 8.47051Z" fill="#F17298"/>
<path d="M8.16949 8.34409C8.29111 8.34409 8.37219 8.25988 8.37219 8.13357C8.37219 8.02831 8.29111 7.92305 8.16949 7.92305C8.06815 7.92305 7.9668 8.00726 7.9668 8.13357C7.9668 8.23883 8.04788 8.32304 8.16949 8.34409Z" fill="#F17298"/>
<path d="M9.02008 14.1389C9.04035 14.1389 9.06063 14.1389 9.0809 14.1389C9.18225 14.0968 9.24305 13.9915 9.20251 13.8652C9.16197 13.7599 9.06063 13.6968 8.93901 13.7178C8.83766 13.7599 8.77685 13.8652 8.81738 13.9915C8.83765 14.0757 8.91873 14.1389 9.02008 14.1389Z" fill="#F17298"/>
<path d="M9.12206 27.1196C8.25046 27.1196 7.54102 27.7728 7.54102 28.5946C7.54102 29.4164 8.25046 30.0696 9.12206 30.0696C9.99367 30.0696 10.7031 29.4164 10.7031 28.5946C10.7031 27.7728 9.99367 27.1196 9.12206 27.1196ZM9.12206 29.6482C8.47343 29.6482 7.94641 29.1846 7.94641 28.5946C7.94641 28.0046 8.47343 27.541 9.12206 27.541C9.7707 27.541 10.2977 28.0046 10.2977 28.5946C10.2977 29.1846 9.7707 29.6482 9.12206 29.6482Z" fill="#F17298"/>
</svg>
