<svg width="14" height="19" viewBox="0 0 14 19" fill="none" xmlns="http://www.w3.org/2000/svg">
<path d="M6.04688 17.8984C6.1875 18.1445 6.43359 18.25 6.75 18.25C7.03125 18.25 7.27734 18.1445 7.45312 17.8984L9.80859 14.5234C10.9688 12.8359 11.7422 11.7109 12.1289 11.1133C12.6562 10.2695 13.0078 9.56641 13.2188 9.00391C13.3945 8.44141 13.5 7.77344 13.5 7C13.5 5.80469 13.1836 4.67969 12.5859 3.625C11.9531 2.60547 11.1445 1.79688 10.125 1.16406C9.07031 0.566406 7.94531 0.25 6.75 0.25C5.51953 0.25 4.39453 0.566406 3.375 1.16406C2.32031 1.79688 1.51172 2.60547 0.914062 3.625C0.28125 4.67969 0 5.80469 0 7C0 7.77344 0.0703125 8.44141 0.28125 9.00391C0.457031 9.56641 0.808594 10.2695 1.37109 11.1133C1.72266 11.7109 2.49609 12.8359 3.69141 14.5234C4.64062 15.8945 5.41406 17.0195 6.04688 17.8984Z" fill="#F17298"/>
</svg>
