<svg width="387" height="77" viewBox="0 0 387 77" fill="none" xmlns="http://www.w3.org/2000/svg">
<path d="M201.347 32.289C203.853 32.289 206 30.0347 206 27.4046C206 24.7746 203.853 22.5202 201.347 22.5202H193.832V16.8844C193.832 14.2543 191.684 12 189.179 12C186.316 12 184.168 14.2543 184.168 16.8844V21.7688H176.653C174.147 21.7688 172 24.0231 172 26.6532C172 29.2832 174.147 31.5376 176.653 31.5376H184.168V63.474C184.168 70.9884 189.895 77 197.053 77H201.347C203.853 77 206 74.7457 206 72.1156C206 69.4855 203.853 66.8555 201.347 66.8555H197.053C195.263 66.8555 193.832 65.3526 193.832 63.474V32.289H201.347Z" fill="#F17298"/>
<path d="M104.871 19C102.109 19 99.7415 21.3514 99.7415 24.0946V25.6622C94.6122 21.3514 88.2993 19 81.1973 19C65.0204 19 52 31.9324 52 48C52 64.0676 65.0204 77 81.1973 77C88.2993 77 94.6122 74.6486 99.7415 70.3378V71.9054C99.7415 74.6486 102.109 77 104.871 77C107.633 77 110 74.6486 110 71.9054V24.0946C110 21.3514 107.633 19 104.871 19ZM80.8027 66.4189C70.5442 66.4189 62.2585 58.1892 62.2585 48C62.2585 37.8108 70.5442 29.1892 80.8027 29.1892C91.0612 29.1892 99.3469 37.4189 99.3469 47.6081C99.3469 57.7973 91.0612 66.4189 80.8027 66.4189Z" fill="black"/>
<path d="M260.694 19C257.837 19 255.388 21.3514 255.388 24.0946V25.6622C250.082 21.3514 243.551 19 236.204 19C219.469 19 206 31.9324 206 48C206 64.0676 219.469 77 236.204 77C243.551 77 250.082 74.6486 255.388 70.3378V71.9054C255.388 74.6486 257.837 77 260.694 77C263.551 77 266 74.6486 266 71.9054V24.0946C266 21.3514 263.551 19 260.694 19ZM235.796 66.4189C225.184 66.4189 216.612 58.1892 216.612 48C216.612 37.8108 225.184 29.1892 235.796 29.1892C246.408 29.1892 254.98 37.4189 254.98 47.6081C254.98 57.7973 246.408 66.4189 235.796 66.4189Z" fill="#F17298"/>
<path d="M46.2069 20.5386H20.7931V10.0971H61.9943C64.6897 10.0971 67 7.77676 67 5.06971C67 2.36265 64.6897 0.0423215 61.9943 0.0423215H5.00575C2.31034 -0.3444 0 1.97593 0 4.68299C0 7.39004 2.31034 9.71037 5.00575 9.71037H10.0115V63.078C10.0115 65.3983 7.31609 66.9452 5.00575 66.9452C2.31034 66.9452 0 69.2656 0 71.9726C0 74.6797 2.31034 77 5.00575 77C15.4023 77 20.408 70.8124 20.408 62.6913V30.9801H46.2069C48.9023 30.9801 51.2126 28.6597 51.2126 25.9527C51.2126 23.2456 49.2874 20.5386 46.2069 20.5386Z" fill="black"/>
<path d="M143.646 19C138.478 19 133.31 20.5782 129.335 23.3401C128.938 20.9728 126.95 19 124.168 19C121.385 19 119 21.3673 119 24.1293V71.8707C119 74.6326 121.385 77 124.168 77C126.95 77 129.335 74.6326 129.335 71.8707V42.6735C129.335 34.3878 136.888 28.0748 145.236 29.6531C151.596 30.8367 155.571 36.7551 155.571 43.068V71.8707C155.571 74.6326 157.956 77 160.739 77C163.521 77 165.906 74.6326 165.906 71.8707V43.8571C167.099 30.8367 156.763 19.3946 143.646 19Z" fill="black"/>
<path d="M292 30.9726H317.125C319.75 30.9726 322 28.6712 322 25.9863C322 23.3014 319.75 21 317.125 21H292C283.75 21 277 27.9041 277 36.3425C277 43.2466 281.125 49 287.5 50.9178L308.5 57.4384C310.75 58.2055 311.875 60.1233 311.875 62.0411C311.875 64.726 309.625 67.0274 307 67.0274H281.875C279.25 67.0274 277 69.3288 277 72.0137C277 74.6986 279.25 77 281.875 77H307C315.25 77 322 70.0959 322 61.6575C322 54.7534 317.875 49 311.5 47.0822L290.5 40.5616C288.25 39.7945 287.125 37.8767 287.125 35.9589C287.125 32.8904 289.375 30.9726 292 30.9726Z" fill="black"/>
<path d="M386.205 24.0604C386.205 21.3356 383.822 19 381.041 19C378.26 19 376.274 20.9463 375.877 23.6711C374.685 32.6242 367.137 40.0201 357.603 40.0201C348.068 40.0201 340.123 33.0134 339.329 23.6711C338.932 21.3356 336.945 19 334.164 19C331.384 19 329 21.3356 329 24.4497C329 24.4497 329 24.4497 329 24.8389C329 24.8389 329 24.8389 329 25.2282C329 25.6174 329 25.6174 329 26.0067C330.589 38.4631 340.521 48.1946 352.836 50.5302V50.9195V71.9396C352.836 74.6644 355.219 77 358 77C360.781 77 363.164 74.6644 363.164 71.9396V50.9195V50.5302C375.479 48.1946 385.411 38.4631 387 26.0067V25.6174C386.205 24.4497 386.205 24.4497 386.205 24.0604Z" fill="black"/>
</svg>
