<svg width="18" height="14" viewBox="0 0 18 14" fill="none" xmlns="http://www.w3.org/2000/svg">
<path d="M17.6484 4.96484C16.8047 5.63281 14.9766 6.96875 12.2344 8.9375L11.8828 9.21875C11.3203 9.64062 10.8984 9.95703 10.5469 10.1328C9.98438 10.4844 9.45703 10.625 9 10.625C8.50781 10.625 8.01562 10.4844 7.45312 10.168C7.10156 9.99219 6.67969 9.67578 6.11719 9.25391L5.76562 8.9375C2.91797 6.89844 1.125 5.5625 0.351562 4.96484C0.28125 4.92969 0.175781 4.92969 0.105469 4.96484C0.0351562 5 0 5.07031 0 5.14062L0 12.3125C0 12.8047 0.140625 13.1914 0.492187 13.5078C0.808594 13.8594 1.19531 14 1.6875 14H16.3125C16.7695 14 17.1562 13.8594 17.5078 13.5078C17.8242 13.1914 18 12.8047 18 12.3125V5.14063C18 5.07031 17.9297 5 17.8594 4.92969C17.7891 4.89453 17.7188 4.89453 17.6484 4.96484ZM9 9.5C8.68359 9.5 8.29688 9.35938 7.875 9.07812C7.59375 8.9375 7.24219 8.69141 6.78516 8.30469L6.43359 8.05859C3.55078 5.94922 1.58203 4.50781 0.5625 3.69922L0.316406 3.52344C0.105469 3.38281 0 3.13672 0 2.85547L0 2.1875C0 1.73047 0.140625 1.34375 0.492187 0.992188C0.808594 0.675781 1.19531 0.5 1.6875 0.5L16.3125 0.5C16.7695 0.5 17.1562 0.675781 17.5078 0.992188C17.8242 1.34375 18 1.73047 18 2.1875V2.85547C18 3.13672 17.8945 3.38281 17.6836 3.52344L17.5078 3.66406C16.4883 4.47266 14.5195 5.94922 11.5664 8.05859L11.2148 8.30469C10.7227 8.69141 10.3711 8.9375 10.125 9.07812C9.66797 9.35938 9.28125 9.5 9 9.5Z" fill="#F17298"/>
</svg>
