<svg width="64" height="56" viewBox="0 0 64 56" fill="none" xmlns="http://www.w3.org/2000/svg">
<path d="M47.1374 18.3057H16.1982V54.49C16.1982 55.1368 16.7228 55.6611 17.3693 55.6611H47.1374C48.7185 55.6611 50.0001 54.3796 50.0001 52.7984V21.1684C50.0001 19.5872 48.7182 18.3057 47.1374 18.3057Z" fill="#EFEDEE"/>
<path d="M47.1373 18.3057H16.1982V54.4006H43.8316C46.538 54.4006 48.7396 52.199 48.7396 49.4927V18.7958C48.2824 18.4866 47.7311 18.3057 47.1373 18.3057Z" fill="#D2D2D2"/>
<path d="M43.8317 15H14.0637C13.4168 15 12.8926 15.5243 12.8926 16.1711V51.1843C12.8926 51.8308 13.4168 52.3554 14.0637 52.3554H43.8317C45.4126 52.3554 46.6941 51.0735 46.6941 49.4927V17.8627C46.6941 16.2815 45.4126 15 43.8317 15Z" fill="#F17298"/>
<path d="M30.57 36.325C42.7212 29.9488 35.1372 22.6499 30.57 27.1185C26.0028 22.6499 18.4189 29.9488 30.57 36.325Z" fill="white"/>
<path d="M14.4076 17.8649H11.3774C10.6167 17.8649 10 18.4816 10 19.2426C10 20.0032 10.6167 20.6199 11.3774 20.6199H14.4076C15.1683 20.6199 15.785 20.0032 15.785 19.2426C15.785 18.4816 15.1683 17.8649 14.4076 17.8649Z" fill="#3A484A"/>
<path d="M14.4076 24.9723H11.3774C10.6167 24.9723 10 25.589 10 26.3497C10 27.1107 10.6167 27.7274 11.3774 27.7274H14.4076C15.1683 27.7274 15.785 27.1107 15.785 26.3497C15.785 25.589 15.1683 24.9723 14.4076 24.9723Z" fill="#3A484A"/>
<path d="M14.4076 32.0797H11.3774C10.6167 32.0797 10 32.6965 10 33.4571C10 34.2181 10.6167 34.8348 11.3774 34.8348H14.4076C15.1683 34.8348 15.785 34.2181 15.785 33.4571C15.785 32.6965 15.1683 32.0797 14.4076 32.0797Z" fill="#3A484A"/>
<path d="M14.4076 39.1872H11.3774C10.6167 39.1872 10 39.8039 10 40.5646C10 41.3255 10.6167 41.9423 11.3774 41.9423H14.4076C15.1683 41.9423 15.785 41.3255 15.785 40.5646C15.785 39.8039 15.1683 39.1872 14.4076 39.1872Z" fill="#3A484A"/>
<path d="M14.4076 46.2946H11.3774C10.6167 46.2946 10 46.9113 10 47.672C10 48.433 10.6167 49.0494 11.3774 49.0494H14.4076C15.1683 49.0494 15.785 48.433 15.785 47.672C15.785 46.9113 15.1683 46.2946 14.4076 46.2946Z" fill="#3A484A"/>
<path d="M40.4386 6.69912L40.8901 7.92334C40.9071 7.96943 40.951 8 41 8C41.0491 8 41.093 7.96943 41.1099 7.92334L41.5615 6.69912C41.9269 5.70804 42.7082 4.92678 43.6992 4.56136L44.9234 4.10984C44.9694 4.09287 45 4.04899 45 3.99993C45 3.95087 44.9694 3.90699 44.9234 3.89002L43.6991 3.4385C42.7081 3.07302 41.9269 2.29183 41.5615 1.30081L41.1099 0.0765874C41.093 0.030566 41.0491 0 41 0C40.951 0 40.9071 0.030566 40.8901 0.0765874L40.4386 1.30081C40.0731 2.29183 39.2919 3.07302 38.3009 3.4385L37.0766 3.89002C37.0306 3.90699 37 3.95087 37 3.99993C37 4.04899 37.0306 4.09287 37.0766 4.10984L38.3008 4.56136C39.2919 4.92678 40.0731 5.70797 40.4386 6.69912Z" fill="#F17298"/>
<path d="M63.885 14.835L62.0488 14.1578C60.5622 13.6096 59.3903 12.4378 58.8422 10.9512L58.1649 9.11488C58.1394 9.04585 58.0736 9 58 9C57.9264 9 57.8606 9.04585 57.8351 9.11488L57.1578 10.9511C56.6096 12.4378 55.4377 13.6096 53.9512 14.1578L52.1149 14.835C52.0458 14.8604 52 14.9263 52 14.9998C52 15.0734 52.0458 15.1393 52.1149 15.1647L53.9513 15.8421C55.4378 16.3903 56.6096 17.5621 57.1578 19.0487L57.8351 20.8851C57.8606 20.9542 57.9264 21 58 21C58.0736 21 58.1394 20.9542 58.1649 20.8851L58.8422 19.0487C59.3904 17.5621 60.5622 16.3902 62.0487 15.8421L63.8851 15.1647C63.9542 15.1393 64 15.0734 64 14.9998C64 14.9263 63.954 14.8604 63.885 14.835Z" fill="#F17298"/>
<path d="M5.94251 11.9175L5.0243 11.5789C4.28107 11.3048 3.69515 10.7189 3.42103 9.97562L3.08243 9.05749C3.06963 9.023 3.03674 9 2.99996 9C2.96319 9 2.93029 9.023 2.9175 9.05749L2.57897 9.97555C2.30485 10.7189 1.71893 11.3048 0.975622 11.5789L0.0574884 11.9175C0.0229956 11.9302 0 11.9631 0 11.9999C0 12.0367 0.0229956 12.0696 0.0574884 12.0823L0.975699 12.4209C1.71893 12.6951 2.30485 13.281 2.57897 14.0242L2.9175 14.9425C2.93029 14.977 2.96319 15 2.99996 15C3.03674 15 3.06963 14.977 3.08243 14.9425L3.42103 14.0242C3.69515 13.2809 4.28099 12.6951 5.0243 12.421L5.94251 12.0823C5.97701 12.0696 6 12.0367 6 11.9999C6 11.9631 5.97701 11.9302 5.94251 11.9175Z" fill="#F17298"/>
</svg>
