<svg width="35" height="35" viewBox="0 0 35 35" fill="none" xmlns="http://www.w3.org/2000/svg">
<path d="M17.5 34.9934C27.165 34.9934 35 27.3822 35 17.9934C35 8.60457 27.165 0.993408 17.5 0.993408C7.83502 0.993408 0 8.60457 0 17.9934C0 27.3822 7.83502 34.9934 17.5 34.9934Z" fill="#91DFD6"/>
<path fill-rule="evenodd" clip-rule="evenodd" d="M19.7732 20.9411C19.8492 21.6652 19.9252 22.1722 20.0012 22.6791C20.2291 24.3447 20.5331 26.0828 20.2291 27.7484C20.0012 29.2692 19.3172 29.921 17.6454 29.9934C16.6574 29.9934 15.5935 29.9934 14.6056 29.7762C13.1617 29.4865 12.8577 28.9795 12.9337 27.6036C13.0097 25.7207 13.1617 23.8378 13.3137 21.9549C13.3137 21.5928 13.3137 21.2307 13.3137 20.7962C12.4778 20.7962 11.7938 20.7962 11.1099 20.7962C8.37411 20.6514 7.38619 19.1306 8.37411 16.6683C8.67809 15.8717 9.21004 15.2924 10.198 15.22C11.4139 15.0751 12.7058 15.0751 14.0736 14.9303C14.2256 13.7716 14.4536 12.5405 14.6056 11.3093C14.6816 10.73 14.8336 10.2231 14.9096 9.71613C15.4415 7.25389 17.5694 6.1676 20.0772 6.02277C22.433 5.87793 24.6368 6.24002 26.4606 7.76082C28.3605 9.35403 28.7404 12.5405 26.2327 14.2061C25.4727 14.713 24.7128 14.713 23.8768 14.6406C23.3449 14.5682 22.8889 14.2785 22.7369 13.6992C22.6609 13.4819 22.5849 13.2647 22.509 13.0474C22.205 12.468 21.977 11.8163 21.1411 11.8163C20.3051 11.8163 19.9252 12.3956 19.6212 12.975C19.3932 13.6267 19.3172 14.2785 19.3932 14.8579C19.4692 15.7269 19.9252 16.0166 20.8371 16.0166C21.825 16.0166 22.8889 16.089 23.8768 16.089C24.7128 16.089 25.1687 16.5235 25.3207 17.1753C25.5487 18.0443 25.4727 18.9133 25.0168 19.7099C24.6368 20.4341 24.0288 20.8686 23.1929 20.7962C22.585 20.7962 21.901 20.7238 21.2931 20.7238C20.8371 20.7962 20.3811 20.8686 19.7732 20.9411ZM13.9977 28.2554C15.1376 29.052 16.2015 28.9795 17.2654 28.9795C19.0132 28.9795 19.6972 28.2554 19.4692 26.5173C19.3172 24.8517 19.0892 23.1136 18.9372 21.448C18.7853 20.2169 19.0892 19.8548 20.3811 19.7824C21.2171 19.7099 22.053 19.7824 22.8129 19.7824C23.9528 19.7099 24.4848 19.203 24.4848 18.1167C24.4848 17.4649 24.0288 17.1029 22.8889 17.1029C22.129 17.1029 21.369 17.1753 20.5331 17.1753C19.2412 17.1753 18.5573 16.5959 18.4053 15.3648C18.3293 14.2785 18.4053 13.2647 18.8613 12.2508C19.3172 11.3818 20.0012 11.0197 20.9131 10.9472C21.825 10.8748 22.585 11.2369 23.0409 12.106C23.1929 12.3956 23.2689 12.6853 23.4209 12.975C23.8009 13.6992 24.5608 13.9888 25.3207 13.6267C26.5366 13.0474 27.2206 11.3818 26.6126 10.1506C26.0807 9.06436 25.2447 8.19533 24.0288 7.76082C22.433 7.18147 20.6851 7.03663 19.0132 7.39873C17.1134 7.76082 15.9735 8.77468 15.6695 10.5852C15.4415 11.9611 15.2895 13.4095 15.0616 14.8579C14.9856 15.3648 14.9096 15.8717 14.8336 16.2338C13.3897 16.2338 12.0978 16.1614 10.8819 16.2338C9.43803 16.3062 8.5261 18.1167 9.36203 19.203C9.51402 19.4203 9.89399 19.5651 10.198 19.6375C10.8819 19.7823 11.5658 19.9272 12.2498 19.8548C14.1496 19.6375 14.2256 20.4341 14.2256 21.8825C14.2256 22.1722 14.0736 22.4618 14.0736 22.6791C14.1496 24.562 14.0736 26.4449 13.9977 28.2554Z" fill="black"/>
</svg>
