<svg width="146" height="168" viewBox="0 0 146 168" fill="none" xmlns="http://www.w3.org/2000/svg">
<path d="M29.1943 148.057C29.1943 148.057 22.1861 147.044 19.6512 153.557C17.1163 160.07 22.3352 163.399 29.1943 168.32C36.0535 173.096 33.8168 174.544 37.9919 179.609C43.2108 186.123 51.2628 187.28 65.8757 180.044C78.5502 173.675 85.4093 181.491 91.0755 182.649C99.1276 184.241 108.074 180.044 110.758 170.925C114.188 159.346 119.407 163.689 120.898 156.018C121.643 152.254 118.065 148.202 118.065 148.202H29.1943V148.057Z" fill="#FFDF4F"/>
<path d="M87.2432 112.359C93.5023 115.502 102.051 115.502 109.226 111.539C109.379 111.403 109.684 111.266 109.837 111.266C111.058 109.9 110.906 108.26 112.127 109.9C112.89 110.31 115.486 109.627 117.775 109.08C120.065 108.534 118.997 110.856 115.791 113.862C112.585 116.868 98.3875 127.525 82.0527 120.83C77.9308 115.775 87.2432 112.359 87.2432 112.359Z" fill="#FFF0D8"/>
<path d="M46.8722 112.773C40.579 116.189 31.7385 116.047 24.6961 111.635C23.4973 110.212 23.6472 108.504 22.4485 110.212C21.999 109.785 21.5494 109.642 19.3019 109.073C17.0543 108.504 15.7057 111.35 18.8523 114.481C21.999 117.612 35.934 128.713 51.9668 121.74C56.0124 116.474 46.8722 112.773 46.8722 112.773Z" fill="#FFF0D8"/>
<path d="M132.224 71.2004C133.857 75.8015 134.451 90.7923 117.669 92.8702C123.907 92.8702 126.135 92.2765 126.135 92.2765C126.135 92.2765 122.125 105.338 108.61 106.228C95.3922 106.822 90.6397 102.518 90.6397 102.518C90.6397 102.518 87.3724 108.158 79.7982 109.939C71.7785 111.868 53.5112 111.868 49.0558 103.853C43.7093 109.79 33.1648 111.72 24.551 106.822C16.5312 102.369 16.5312 96.5808 16.5312 96.5808C16.5312 96.5808 18.7589 99.8461 23.9569 96.2839C14.452 95.8386 8.51145 89.0112 7.17482 80.2542C5.68968 72.3878 14.155 68.8256 14.155 68.8256L10.5906 61.9982L17.2738 53.6865L80.0952 43L119.451 48.7885L132.224 71.2004Z" fill="#FFDF4F"/>
<path d="M103.937 54.3992C103.937 54.3992 85.7446 48.3577 67.9999 46C50.1061 48.3577 32.0632 54.3992 32.0632 54.3992C31.6158 64.1247 33.4052 85.1965 41.9048 94.6272C45.7818 99.0478 56.6671 102.142 67.8508 101.995C67.9999 101.995 67.9999 101.995 68.149 101.995C68.2981 101.995 68.2981 101.995 68.4472 101.995C79.4817 102.142 90.3671 99.0478 94.3932 94.6272C102.595 85.1965 104.384 64.1247 103.937 54.3992Z" fill="#FFF0D8"/>
<path d="M87 86.5C87 87.4375 84.6667 88 82 88C79.1667 88 77 87.25 77 86.5C77 85.5625 79.3333 85 82 85C84.6667 85 87 85.75 87 86.5Z" fill="#F9B49B"/>
<path d="M57 86.5143C57 87.4429 54.9 88 52.5 88C49.95 88 48 87.2572 48 86.5143C48 85.5858 50.1 85.0286 52.5 85.0286C54.9 84.8429 57 85.5858 57 86.5143Z" fill="#F9B49B"/>
<path d="M103.322 73.0891C110.654 71.8794 108.782 83.3721 101.761 83.9769C94.7409 84.5818 103.322 73.0891 103.322 73.0891Z" fill="#FFF0D8"/>
<path d="M102.605 76.0824C104.939 75.237 106.456 81.1546 102.838 82C101.788 81.6619 101.788 79.9711 102.488 79.2948C103.072 78.6185 103.305 77.2659 102.838 76.4206C102.605 76.0824 102.605 76.0824 102.605 76.0824Z" fill="#F9B49B"/>
<path d="M32.6784 76.0891C25.3459 74.8794 27.218 86.3721 34.2385 86.9769C41.2591 87.5818 32.6784 76.0891 32.6784 76.0891Z" fill="#FFF0D8"/>
<path d="M35.0084 78.0824C31.1808 77.237 28.5015 83.1546 34.6256 84C36.348 83.6619 36.348 82.1402 35.1997 81.2948C34.2428 80.6185 33.8601 79.2659 34.6256 78.4206C34.817 78.2515 35.0084 78.0824 35.0084 78.0824Z" fill="#F9B49B"/>
<path d="M55 86C55 86.6667 54.8333 87 54.5 87C54.1667 87 54 86.6667 54 86C54 85.3333 54.1667 85 54.5 85C54.6667 85 55 85.3333 55 86Z" fill="white"/>
<path d="M59.8846 66.3962C60.9491 66.6878 54.4101 62.1681 50 68C51.0645 66.9794 53.9539 64.7925 59.8846 66.3962Z" fill="#914A3C"/>
<path d="M48 117.354C48.6048 113.708 48.6048 112.25 54.1988 111.083C59.9441 109.917 64.4798 104.521 64.7822 100.292C70.3763 100.146 73.0977 100 73.0977 100C73.0977 100 74.4584 109.188 81.8668 110.354C89.2751 111.375 91.543 116.042 91.9966 118.959C92.4501 122.021 48 117.354 48 117.354Z" fill="#FFF0D8"/>
<path d="M43.6437 11.8922C43.6437 11.8922 39.875 9.51637 33.5437 8.03149C48.4675 5.35872 57.2108 5.95267 60.9794 11.1497C63.2406 4.4678 75.7525 -0.283792 78.4659 0.0131823C75.3002 2.53747 74.6972 6.69511 74.6972 6.69511C83.742 1.94352 93.2389 6.8436 95.5001 9.96183C102.585 5.21024 118.413 13.377 122.634 27.7803C124.745 35.2047 135.448 33.4228 136.051 32.5319C133.488 37.8774 129.719 41.5896 125.8 41.2926C128.664 44.8563 134.392 45.5988 140.573 42.4805C148.412 47.5291 149.316 71.881 132.734 75.7417C125.8 77.375 110.424 62.9718 110.424 62.9718L106.806 64.6051C106.806 64.6051 104.243 74.2568 96.8568 80.4933C95.3494 81.6812 97.4598 76.3356 91.5807 64.6051C89.621 72.3265 86.6061 76.1871 84.1942 78.1175C83.742 76.9296 85.7017 66.9809 70.4764 55.1019C66.7077 67.7234 53.2914 75.8902 44.2467 77.375C49.2213 70.9901 50.1257 64.7536 50.1257 64.7536C44.3974 66.8324 38.3676 72.7719 39.7243 81.9781C34.7497 82.4236 24.3482 76.0387 26.7602 64.7536C20.8811 70.5446 20.1274 68.6143 17.7154 69.3567C10.9319 71.2871 -0.675517 70.6931 -5.95161 53.0231C-6.85608 53.1716 5.20356 59.1111 6.40952 47.5291C10.4797 6.69511 39.875 10.8528 43.6437 11.8922Z" fill="#FFDF4F"/>
<path d="M77.1665 80.4923C77.8101 82.3353 80.0625 83.3276 82.154 82.9023C84.2456 82.3353 85.3718 80.3506 84.8891 78.5077C84.2456 76.6647 81.9932 75.6724 79.9016 76.0977C77.8101 76.6647 76.523 78.6494 77.1665 80.4923Z" fill="#914A3C"/>
<path d="M81.1258 74.9342C81.1258 74.9342 83.6422 75.7401 84.9842 73C85.152 74.2895 83.9777 76.0625 81.6291 75.9013C80.6225 76.3849 81.1258 74.9342 81.1258 74.9342Z" fill="#914A3C"/>
<path d="M82.0857 75.8408C82.0857 75.8408 83.9714 76.8927 85 74C85 75.3148 83.9714 77.4186 82.4286 76.8927C81.7429 77.4186 82.0857 75.8408 82.0857 75.8408Z" fill="#914A3C"/>
<path d="M82.623 77.4665C81.6166 75.6963 79.3803 75.6963 80.163 76.5814C80.8339 77.34 81.393 77.9722 82.0639 78.7309C82.8466 79.3631 83.4057 78.8573 82.623 77.4665Z" fill="white"/>
<path d="M85 66C85 66 80.7551 66.3226 77 70.5161L77.1633 71C77 71 81.898 68.4194 85 66Z" fill="#914A3C"/>
<path d="M52 69.2394C52 69.2394 55.3103 66.4507 59.8621 69.2394L60 70C60 69.7465 55.3103 70.2535 52 69.2394Z" fill="#914A3C"/>
<path d="M52.6819 79.3213C52.6819 79.3213 50.7673 79.964 49 79C49.1473 79.5623 50.62 80.2853 52.3873 79.8837C53.5655 79.8837 52.6819 79.3213 52.6819 79.3213Z" fill="#914A3C"/>
<path d="M52.7671 80.2683C52.7671 80.2683 51.5373 82.1466 50 80C50.1537 81.3416 51.3836 82.6833 52.6134 81.61C53.3821 81.3416 52.7671 80.2683 52.7671 80.2683Z" fill="#914A3C"/>
<path d="M59.9335 82.852C59.9335 80.5209 59.0363 77.3573 56.3447 77.0243C53.6531 76.6913 52.7559 79.8549 53.055 82.0195C53.5036 82.0195 53.055 82.0195 53.055 82.0195C53.055 82.0195 53.6531 78.3563 56.1952 78.6894C57.541 79.0224 59.3354 79.8549 59.9335 82.852C60.0831 83.185 59.9335 82.852 59.9335 82.852Z" fill="#914A3C"/>
<path d="M64 84L74 84.3058C74 84.3058 72.9706 92.1038 71.0588 95.9263C69.1471 99.7489 64.2941 99.596 64 84Z" fill="#F37678"/>
<path d="M137 46.4479C137 46.4479 121.947 54.667 111 35C112.064 44.0996 117.386 51.1445 126.509 50.9977C134.263 50.851 137 46.4479 137 46.4479Z" fill="#DE8E28"/>
<path d="M7 67.081C7 67.081 23.2395 72.0195 31 59C26.8323 62.2923 21.3713 66.7818 7 67.081Z" fill="#DE8E28"/>
<path d="M105.049 87C105.35 89.487 112.419 96.6717 124 92.9412C119.488 96.6717 111.968 97.5007 107.456 92.5267C104.447 89.487 105.049 87 105.049 87Z" fill="#DE8E28"/>
<path d="M57 20.0161C42.9496 11.9306 24.8201 16.1177 15 32C19.6835 24.9252 43.705 15.2514 57 20.0161Z" fill="#DE8E28"/>
<path d="M50.0814 117C50.0814 117 56.9493 146.058 21.8633 144.866C23.3563 148.591 23.0577 152.317 21.714 156.936C20.2209 161.556 19.773 173.924 33.9568 175.414C46.6475 176.01 48.5884 178.245 53.9633 183.312C59.3382 188.229 77.4037 188.229 83.973 183.312C90.393 178.394 95.1707 174.073 103.532 173.924C114.132 173.775 119.507 164.834 118.91 154.999C118.313 145.313 121 144.27 121 144.27C121 144.27 99.5005 143.972 93.3791 138.309C83.8237 129.368 88.4521 117.745 88.4521 117.745L50.0814 117Z" fill="#4179BD"/>
<path d="M41.0104 115C41.0104 115 40.1193 126.649 54.8222 124.076C56.3073 127.597 62.8419 131.39 73.9804 129.494C80.9605 127.868 83.1882 125.024 83.7823 123.534C86.6041 124.347 96.1089 124.347 97 115C73.9804 117.709 41.0104 115 41.0104 115Z" fill="#FFDF4F"/>
<path d="M57.9508 44.5446C57.9508 44.5446 67.541 41.2054 78.1639 45C81.1148 36.0446 82 33.3125 82 33.3125L75.8033 37.1071L68.4262 28L61.0492 37.1071L55 34.2232L57.9508 44.5446Z" fill="#4179BD"/>
<path d="M57 35C57 36 56.1667 37 55 37C53.8333 37 53 36.1667 53 35C53 34 53.8333 33 55 33C56.1667 33 57 33.8333 57 35Z" fill="#F26522"/>
<path d="M71 28.5C71 29.25 70.1667 30 69 30C67.8333 30 67 29.375 67 28.5C67 27.75 67.8333 27 69 27C70.1667 27 71 27.75 71 28.5Z" fill="#F26522"/>
<path d="M83 33.5C83 34.25 82.375 35 81.5 35C80.625 35 80 34.375 80 33.5C80 32.75 80.625 32 81.5 32C82.375 32 83 32.75 83 33.5Z" fill="#F26522"/>
<path d="M83 33.5C83 33.8333 82.8333 34 82.5 34C82.1667 34 82 33.8333 82 33.5C82 33.1667 82.1667 33 82.5 33C82.8333 33 83 33.3333 83 33.5Z" fill="white"/>
<path d="M57 33.5C57 33.8333 56.6667 34 56 34C55.3333 34 55 33.8333 55 33.5C55 33.1667 55.3333 33 56 33C56.6667 33 57 33.1667 57 33.5Z" fill="white"/>
<path d="M56.8174 110C56.8174 110 64.9358 117.382 81.6155 110.434C94.4574 113.908 98 113.04 98 113.04C96.2287 119.843 91.21 124.33 83.5344 122.593C81.7631 127.659 62.2789 134.173 55.4889 122.303C51.2083 125.633 40.4329 123.461 41.0233 113.763C49.2894 112.316 56.8174 110 56.8174 110Z" fill="#4179BD"/>
<path d="M48 151C46.65 154.935 41.25 167.37 30 168C34.35 165.481 40.5 162.176 48 151Z" fill="#FFDF4F"/>
<path d="M86 141C90.6792 153.425 101.396 164.47 110 167.998C104.717 168.152 88.2642 157.107 86 141Z" fill="#FFDF4F"/>
<path d="M75.0551 151C75.5245 165.019 77.8711 176.752 81 183C76.3067 178.733 71.9263 169.133 75.0551 151Z" fill="#FFDF4F"/>
<path d="M48.9017 119.425L48.242 119.721C48.242 119.721 48.242 119.721 48.1321 119.869L47.9122 120.755C47.9122 121.051 47.5823 121.051 47.4724 120.903L47.0326 120.164C47.0326 120.164 47.0326 120.164 46.9227 120.164H46.263C46.0431 120.164 45.9332 119.869 46.0431 119.721L46.373 118.982C46.373 118.982 46.373 118.982 46.373 118.834L46.1531 117.948C46.0431 117.652 46.263 117.504 46.373 117.504L47.1426 117.8L47.8022 117.061C47.9122 116.913 48.1321 117.061 48.1321 117.209V118.243C48.1321 118.243 48.1321 118.243 48.1321 118.391L48.6818 118.834C49.1216 118.982 49.0116 119.425 48.9017 119.425Z" fill="#FFDF4F"/>
<path d="M53.9473 120.903L53.5914 121.253L53.71 121.719C53.71 121.835 53.5914 121.952 53.4727 121.952L52.9982 121.719L52.5237 121.952C52.405 122.068 52.2864 121.952 52.2864 121.835L52.405 121.369L52.0491 121.02C51.9305 120.903 52.0491 120.787 52.1678 120.787L52.7609 120.67L52.9982 120.087C52.9982 119.971 53.2355 119.971 53.2355 120.087L53.4727 120.553H53.9473C53.9473 120.67 54.0659 120.787 53.9473 120.903Z" fill="#FFDF4F"/>
<path d="M60.9072 121.269L60.4123 121.391L60.2886 121.878C60.2886 122 60.0411 122 59.9174 122L59.6699 121.634H59.175C59.0512 121.634 58.9275 121.513 59.0513 121.391L59.2987 121.025L59.0513 120.538C59.0513 120.416 59.175 120.294 59.2987 120.294L59.7936 120.416L60.2886 120.05C60.4123 119.929 60.536 120.05 60.536 120.172V120.782L60.9072 121.025C61.0309 121.025 61.0309 121.269 60.9072 121.269Z" fill="#FFF0D8"/>
<path d="M79.9282 123.324L79.5622 123.519L79.9282 123.714C80.1112 123.779 79.9282 123.843 79.5622 123.843L78.8301 123.779L78.2811 123.973C78.0981 124.038 77.9151 123.973 77.9151 123.908L77.7321 123.649H77V123.519L77.7321 123.389L77.9151 123.065C77.9151 123 78.0981 123 78.2811 123L78.8301 123.195L79.5622 123.13C79.9282 123.195 80.1112 123.26 79.9282 123.324Z" fill="#FFDF4F"/>
<path d="M91.9275 118.379L91.3729 119.133C91.3729 119.133 91.3729 119.133 91.3729 119.283L91.7426 120.188C91.9275 120.489 91.5578 120.64 91.1881 120.64L90.079 120.338H89.8941L88.9699 120.941C88.7851 121.092 88.2305 120.941 88.2305 120.64V119.735C88.2305 119.735 88.2305 119.735 88.2305 119.585L87.1214 118.982C86.9366 118.831 86.9366 118.53 87.3063 118.53L88.6002 118.229L88.9699 117.174C88.9699 117.023 89.3396 116.873 89.5244 117.174L90.2638 118.078C90.2638 118.078 90.2638 118.078 90.4487 118.078H91.5578C91.9275 117.777 92.1123 118.229 91.9275 118.379Z" fill="#FFDF4F"/>
<path d="M81.9542 121.787L81.7209 122.136L81.8376 122.602C81.8376 122.719 81.7209 122.835 81.6042 122.835L81.1375 122.719L80.7875 122.952C80.6709 123.068 80.5542 122.952 80.5542 122.835V122.369L80.0875 122.02C79.9708 121.903 79.9708 121.787 80.0875 121.787L80.5542 121.67L80.6709 121.087C80.6709 120.971 80.7875 120.971 80.9042 121.087L81.2542 121.553H81.7209C81.9542 121.437 82.0709 121.67 81.9542 121.787Z" fill="#FFF0D8"/>
<path d="M93.4068 115.294L94.2204 115.416L94.8305 115.05C95.0339 114.929 95.2373 115.05 95.2373 115.172V115.66L95.8475 115.903C96.0508 116.025 96.0508 116.147 95.8475 116.269L95.4407 116.391L95.2373 116.878C95.2373 117 95.0339 117 94.8305 117L94.2204 116.634L93.2034 116.756C93 116.756 93 116.634 93 116.513L93.4068 116.025L93 115.66C93 115.416 93.2034 115.172 93.4068 115.294Z" fill="#FFF0D8"/>
<path d="M65.7563 124.821L65.3908 125.139V125.775C65.3908 125.934 65.2689 126.093 65.1471 125.934L64.7815 125.457L64.2942 125.616C64.1723 125.616 64.0505 125.457 64.0505 125.298L64.2942 124.661L64.0505 124.025C63.9286 123.866 64.0505 123.707 64.1723 123.707H64.7815L65.1471 123.071C65.2689 122.912 65.3908 123.071 65.3908 123.071L65.5126 123.866L66 124.025C65.8782 124.343 65.8782 124.661 65.7563 124.821Z" fill="#FFDF4F"/>
<path d="M73.9333 124.981L73.2222 125.849V126.023L73.5778 127.064C73.7556 127.411 73.4 127.758 73.0444 127.585L71.9778 127.238H71.8L70.9111 127.932C70.7333 128.105 70.2 127.932 70.2 127.585V126.543V126.37L69.1333 125.675C68.9556 125.502 68.9556 125.155 69.1333 124.981L70.3778 124.634L70.7333 123.245C70.7333 123.072 71.0889 122.898 71.2667 123.072L72.1556 124.113C72.1556 124.113 72.1556 124.113 72.3333 124.113H73.4C73.9333 124.287 74.1111 124.634 73.9333 124.981Z" fill="#FFF0D8"/>
<path d="M43.8545 115.758L43.5636 116.154L43.7091 116.55C43.7091 116.682 43.7091 116.813 43.5636 116.813L43.1273 116.682L42.8364 116.945C42.6909 117.077 42.5455 116.945 42.5455 116.813V116.418L42.1091 116.154C41.9636 116.154 41.9636 115.89 42.1091 115.89L42.6909 115.626L42.8364 115.099C42.8364 114.967 42.9818 114.967 43.1273 115.099L43.5636 115.495H44C43.8545 115.495 43.8545 115.626 43.8545 115.758Z" fill="#FFF0D8"/>
<path d="M27.8578 165.032L27.2081 165.401C27.2081 165.401 27.2081 165.401 27.0998 165.586L26.8832 166.694C26.8832 167.063 26.5584 167.063 26.4501 166.879L26.017 165.955C26.017 165.955 26.017 165.955 25.9087 165.955H25.259C25.0425 165.955 24.9342 165.586 25.0425 165.401L25.3673 164.478C25.3673 164.478 25.3673 164.478 25.3673 164.293L25.1508 163.185C25.0425 162.815 25.259 162.631 25.3673 162.631L26.1253 163L26.775 162.077C26.8832 161.892 27.0998 162.077 27.0998 162.261V163.554C27.0998 163.554 27.0998 163.554 27.0998 163.739L27.6412 164.293C28.0743 164.478 28.0743 164.847 27.8578 165.032Z" fill="#FFDF4F"/>
<path d="M27.9072 150.269L27.4123 150.391L27.2886 150.878C27.2886 151 27.0411 151 26.9174 151L26.6699 150.634H26.175C26.0513 150.634 25.9275 150.513 26.0513 150.391L26.2987 150.025L26.0513 149.538C26.0513 149.416 26.175 149.294 26.2987 149.294L26.7936 149.416L27.2886 149.05C27.4123 148.929 27.536 149.05 27.536 149.172V149.782L27.9072 150.025C28.0309 150.025 28.0309 150.269 27.9072 150.269Z" fill="#FFF0D8"/>
<path d="M103.954 168.206L103.721 168.723L103.954 169.24C104.071 169.412 103.954 169.584 103.721 169.584L103.254 169.412L102.904 169.929C102.788 170.101 102.671 169.929 102.671 169.756L102.554 169.067L102.088 168.723C101.971 168.723 101.971 168.378 102.088 168.378L102.554 168.034L102.671 167.172C102.671 167 102.788 167 102.904 167L103.254 167.517L103.721 167.345C103.954 167.861 104.071 168.034 103.954 168.206Z" fill="#FFDF4F"/>
<path d="M113.946 157.379L113.376 158.133C113.376 158.133 113.376 158.133 113.376 158.283L113.661 159.188C113.804 159.489 113.518 159.64 113.233 159.64L112.377 159.338H112.234L111.521 159.941C111.378 160.092 110.95 159.941 110.95 159.64V158.735C110.95 158.735 110.95 158.735 110.95 158.585L110.094 157.982C109.951 157.831 109.951 157.53 110.236 157.53L111.235 157.229L111.521 156.174C111.521 156.023 111.806 155.873 111.949 156.174L112.52 157.078C112.52 157.078 112.52 157.078 112.662 157.078H113.518C113.946 156.777 114.089 157.078 113.946 157.379Z" fill="#FFDF4F"/>
<path d="M110.716 148.277L111.433 148.392L111.97 148.048C112.149 147.933 112.328 148.048 112.328 148.162V148.622L112.866 148.852C113.045 148.966 113.045 149.081 112.866 149.196L112.149 149.426L111.97 149.885C111.97 150 111.791 150 111.612 150L111.075 149.655L110.179 149.77C110 149.77 110 149.655 110 149.541L110.358 149.081L110 148.737C110.358 148.392 110.537 148.277 110.716 148.277Z" fill="#FFF0D8"/>
<path d="M97.4776 166.277L97.9552 166.392L98.3134 166.048C98.4328 165.933 98.5522 166.048 98.5522 166.162V166.622L98.9104 166.852C99.0299 166.966 99.0299 167.081 98.9104 167.196L98.4328 167.426L98.3134 167.885C98.3134 168 98.194 168 98.0746 168L97.7164 167.655L97.1194 167.77C97 167.77 97 167.655 97 167.541L97.2388 167.081L97 166.737C97.2388 166.392 97.3582 166.277 97.4776 166.277Z" fill="#FFF0D8"/>
<path d="M108.478 161.277L108.955 161.392L109.313 161.048C109.433 160.933 109.552 161.048 109.552 161.162V161.622L109.91 161.852C110.03 161.966 110.03 162.081 109.91 162.196L109.433 162.426L109.313 162.885C109.313 163 109.194 163 109.075 163L108.716 162.655L108.119 162.77C108 162.77 108 162.655 108 162.541L108.239 162.081L108 161.737C108.119 161.392 108.239 161.162 108.478 161.277Z" fill="#FFF0D8"/>
<path d="M37.9277 168.585L37.3751 169.279V169.418L37.7435 170.251C37.9277 170.529 37.5593 170.807 37.1909 170.668L36.0856 170.39H35.9014L34.9803 170.946C34.7961 171.084 34.2434 170.946 34.2434 170.668V169.835V169.696L33.1382 169.14C32.9539 169.002 32.9539 168.724 33.1382 168.585L34.4277 168.307L34.7961 167.196C34.7961 167.058 35.1645 166.919 35.3487 167.058L36.2698 167.891C36.2698 167.891 36.2698 167.891 36.454 167.891H37.5593C37.9277 168.03 38.1119 168.307 37.9277 168.585Z" fill="#FFF0D8"/>
<path d="M43.8545 169.138L43.5636 169.731L43.7091 170.325C43.7091 170.522 43.7091 170.72 43.5636 170.72L43.1273 170.522L42.8364 170.918C42.6909 171.116 42.5455 170.918 42.5455 170.72V170.127L42.1091 169.731C41.9636 169.731 41.9636 169.335 42.1091 169.335L42.6909 168.94L42.8364 168.148C42.8364 167.951 42.9818 167.951 43.1273 168.148L43.5636 168.742H44C43.8545 168.742 43.8545 169.138 43.8545 169.138Z" fill="#FFF0D8"/>
<path d="M25.8545 158.138L25.5636 158.731L25.7091 159.325C25.7091 159.522 25.7091 159.72 25.5636 159.72L25.1273 159.522L24.8364 159.918C24.6909 160.116 24.5455 159.918 24.5455 159.72V159.127L24.1091 158.731C23.9636 158.731 23.9636 158.335 24.1091 158.335L24.6909 157.94L24.8364 157.148C24.8364 156.951 24.9818 156.951 25.1273 157.148L25.5636 157.742H26C25.8545 157.742 26 157.94 25.8545 158.138Z" fill="#FFF0D8"/>
<path d="M3 89.1985L52.0557 150.921C52.0557 150.921 53.7009 151.52 54 149.423C42.1847 135.191 4.4956 88 4.4956 88L3 89.1985Z" fill="#914A3C"/>
<path d="M3.03258 89.9637C3.03258 89.9637 -5.13976 86.6779 -9.52861 84.587C-13.7661 82.4961 -14.0688 78.3142 -10.7393 77.2687C-11.3447 75.1778 -8.16655 72.3401 -5.2911 73.0868C-4.83708 70.3985 0.00578976 69.353 1.36785 75.9245C2.88124 81.3012 5 88.6195 5 88.6195C5 88.6195 4.69732 90.2624 3.03258 89.9637Z" fill="#914A3C"/>
<path d="M-10.8321 77C-10.8321 77 -12.7996 79.7529 -3.2647 85.5647C3.24326 89.5412 4 90 4 90C4 90 -4.32413 84.0353 -7.95648 80.6706C-10.378 78.2235 -10.8321 77 -10.8321 77Z" fill="#FFDF4F"/>
<path d="M-6 73.0439C-6 73.0439 -2.71642 71.8328 1.71642 82.1275C4.83582 89.243 5 90 5 90C5 90 0.238806 80.9164 -2.71642 76.8288C-4.85075 74.1037 -6 73.0439 -6 73.0439Z" fill="#FFDF4F"/>
<path d="M-3 72.2986C-2.744 72.0941 -1.464 71.5486 -0.056 72.7759C0.072 73.1168 0.0720003 73.0486 -1.08 72.7077C-2.104 72.3668 -3 72.2986 -3 72.2986Z" fill="#B38071"/>
<path d="M3 89.4932C3 89.4932 5.25825 89.3688 5.41955 88C6.38737 88.2489 7.3552 88.871 6.87129 89.8665C6.54868 90.4887 5.74216 90.8619 4.93564 90.9864C3.96782 91.1108 3.1613 90.3642 3 89.4932Z" fill="#914A3C"/>
<path d="M52.0543 150.5C52.0543 150.5 53.6435 150.5 53.6435 149C54.2547 149 55.1105 149.5 54.9882 150.375C54.866 151.375 54.1325 151.875 53.2768 152C52.4211 151.875 51.8098 151.125 52.0543 150.5Z" fill="#B84A27"/>
<path d="M11 96C12.1765 97.8113 12.9118 99.9245 13.7941 102.038C15.2647 105.811 18.3529 110.792 21 112C17.9118 107.623 16.7353 102.792 14.6765 99.1698C13.3529 96.7547 11 96 11 96Z" fill="#FFDF4F"/>
<path d="M14.5034 99.1723C15 98.8412 15.4966 99.0067 15.8277 99.5034C16.1588 100 15.9933 100.497 15.4966 100.828C15 101.159 14.5034 100.993 14.1723 100.497C13.8412 100.166 14.0067 99.5034 14.5034 99.1723Z" fill="white"/>
<path d="M16.2624 105.104C16.4208 104.946 16.7376 104.946 16.896 105.262C17.0543 105.421 17.0543 105.738 16.7376 105.896C16.5792 106.054 16.2624 106.054 16.104 105.738C15.9457 105.579 15.9457 105.262 16.2624 105.104Z" fill="white"/>
<path d="M26 115C27.1765 116.698 27.9118 118.679 28.7941 120.66C30.2647 124.198 33.3529 128.868 36 130C32.9118 125.896 31.7353 121.368 29.6765 117.972C28.3529 115.849 26 115 26 115Z" fill="#FFDF4F"/>
<path d="M28.5034 117.258C29 116.762 29.4966 117.01 29.8277 117.755C30.1588 118.5 29.9933 119.245 29.4966 119.742C29 120.238 28.5034 119.99 28.1723 119.245C27.8412 118.5 28.0067 117.507 28.5034 117.258Z" fill="white"/>
<path d="M31.2624 123.104C31.4208 122.946 31.7376 122.946 31.896 123.262C32.0543 123.421 32.0543 123.738 31.7376 123.896C31.5792 124.054 31.2624 124.054 31.104 123.738C30.9457 123.579 30.9457 123.262 31.2624 123.104Z" fill="white"/>
<path d="M41 133C42.2941 134.811 43.1029 136.925 44.0735 139.038C45.6912 142.811 49.0882 147.792 52 149C48.6029 144.623 47.3088 139.792 45.0441 136.17C43.4265 133.755 41 133 41 133Z" fill="#FFDF4F"/>
<path d="M43.755 135.258C44.5 134.762 45.245 135.01 45.7416 135.755C46.2383 136.5 45.9899 137.245 45.245 137.742C44.5 138.238 43.755 137.99 43.2584 137.245C42.7617 136.748 43.0101 135.755 43.755 135.258Z" fill="white"/>
<path d="M108.397 111C105.54 112.105 103 113.052 103 113.052C103 113.052 103.159 120.155 109.349 119.997C111.889 117.788 113 116.367 113 116.367L108.397 111Z" fill="#4179BD"/>
<path d="M106.588 111.191L107.059 111.574L107.765 111.383C108 111.383 108 111.574 108 111.574L107.765 111.957L108 112.34C108 112.532 108 112.723 107.765 112.532H107.059L106.588 112.915C106.353 113.106 106.353 112.915 106.118 112.915L105.882 112.34L105.176 112.149C104.941 112.149 104.941 111.957 105.176 111.957L105.882 111.574V111C106.118 111.191 106.353 111.191 106.588 111.191Z" fill="#FFF0D8"/>
<path d="M109.436 116.233L109.873 116.397L110.164 116.068C110.309 115.904 110.455 116.068 110.455 116.233V116.726L110.891 116.89C111.036 116.89 111.036 117.219 110.891 117.219L110.455 117.383L110.309 117.877C110.309 118.041 110.164 118.041 110.018 117.877L109.727 117.383H109.145C109 117.383 109 117.219 109 117.219L109.291 116.726L109.145 116.233C109.145 116.397 109.291 116.233 109.436 116.233Z" fill="#FFF0D8"/>
<path d="M107.281 115.262L107.747 115.371L108.097 115.045C108.213 114.936 108.33 115.045 108.447 115.154V115.588L108.913 115.805C109.029 115.914 109.029 116.022 108.913 116.131L108.447 116.348L108.33 116.891C108.33 117 108.097 117 108.097 117L107.747 116.566L107.165 116.674C107.048 116.674 106.932 116.566 107.048 116.457L107.398 116.022C107.398 116.022 107.398 116.022 107.398 115.914L107.165 115.479C107.048 115.371 107.165 115.262 107.281 115.262Z" fill="#FFDF4F"/>
<path d="M101.571 83L100 93.7216L101.571 96L103 93.7216L101.571 83Z" fill="#F26522"/>
<path d="M101.52 96.9957L100.411 98.214L101.636 99.3169L102.745 98.0986L101.52 96.9957Z" fill="white"/>
<path d="M101.645 99.2074L100.536 100.426L101.761 101.529L102.87 100.31L101.645 99.2074Z" fill="#F26522"/>
<path d="M131 75.8581C127.505 74.7798 117.019 72.0073 114 66C115.589 71.6992 122.262 76.9363 131 75.8581Z" fill="#DE8E28"/>
</svg>
