<svg width="201" height="40" viewBox="0 0 201 40" fill="none" xmlns="http://www.w3.org/2000/svg">
<path d="M104.537 16.6127C105.863 16.6127 107 15.4335 107 14.0578C107 12.6821 105.863 11.5029 104.537 11.5029H100.558V8.55491C100.558 7.17919 99.4211 6 98.0947 6C96.579 6 95.4421 7.17919 95.4421 8.55491V11.1098H91.4632C90.1368 11.1098 89 12.289 89 13.6647C89 15.0405 90.1368 16.2197 91.4632 16.2197H95.4421V32.9249C95.4421 36.8555 98.4737 40 102.263 40H104.537C105.863 40 107 38.8208 107 37.4451C107 36.0694 105.863 34.6936 104.537 34.6936H102.263C101.316 34.6936 100.558 33.9075 100.558 32.9249V16.6127H104.537Z" fill="#F17298"/>
<path d="M54.3469 10C52.9184 10 51.6939 11.2162 51.6939 12.6351V13.4459C49.0408 11.2162 45.7755 10 42.102 10C33.7347 10 27 16.6892 27 25C27 33.3108 33.7347 40 42.102 40C45.7755 40 49.0408 38.7838 51.6939 36.5541V37.3649C51.6939 38.7838 52.9184 40 54.3469 40C55.7755 40 57 38.7838 57 37.3649V12.6351C57 11.2162 55.7755 10 54.3469 10ZM41.898 34.527C36.5918 34.527 32.3061 30.2703 32.3061 25C32.3061 19.7297 36.5918 15.2703 41.898 15.2703C47.2041 15.2703 51.4898 19.527 51.4898 24.7973C51.4898 30.0676 47.2041 34.527 41.898 34.527Z" fill="black"/>
<path d="M135.258 10C133.782 10 132.517 11.2162 132.517 12.6351V13.4459C129.776 11.2162 126.401 10 122.605 10C113.959 10 107 16.6892 107 25C107 33.3108 113.959 40 122.605 40C126.401 40 129.776 38.7838 132.517 36.5541V37.3649C132.517 38.7838 133.782 40 135.258 40C136.735 40 138 38.7838 138 37.3649V12.6351C138 11.2162 136.735 10 135.258 10ZM122.395 34.527C116.912 34.527 112.483 30.2703 112.483 25C112.483 19.7297 116.912 15.2703 122.395 15.2703C127.878 15.2703 132.306 19.527 132.306 24.7973C132.306 30.0676 127.878 34.527 122.395 34.527Z" fill="#F17298"/>
<path d="M24.1379 10.6694H10.8621V5.24524H32.3851C33.7931 5.24524 35 4.03988 35 2.63361C35 1.22735 33.7931 0.0219852 32.3851 0.0219852H2.61494C1.2069 -0.178909 0 1.02646 0 2.43272C0 3.83898 1.2069 5.04435 2.61494 5.04435H5.22989V32.7678C5.22989 33.9732 3.82184 34.7767 2.61494 34.7767C1.2069 34.7767 0 35.9821 0 37.3884C0 38.7946 1.2069 40 2.61494 40C8.04598 40 10.6609 36.7857 10.6609 32.5669V16.0935H24.1379C25.546 16.0935 26.7529 14.8882 26.7529 13.4819C26.7529 12.0757 25.7471 10.6694 24.1379 10.6694Z" fill="black"/>
<path d="M74.585 10C71.9462 10 69.3074 10.8163 67.2776 12.2449C67.0746 11.0204 66.0597 10 64.6388 10C63.2179 10 62 11.2245 62 12.6531V37.3469C62 38.7755 63.2179 40 64.6388 40C66.0597 40 67.2776 38.7755 67.2776 37.3469V22.2449C67.2776 17.9592 71.1343 14.6939 75.3969 15.5102C78.6447 16.1224 80.6745 19.1837 80.6745 22.449V37.3469C80.6745 38.7755 81.8924 40 83.3133 40C84.7342 40 85.9521 38.7755 85.9521 37.3469V22.8571C86.5611 16.1224 81.2835 10.2041 74.585 10Z" fill="black"/>
<path d="M151.667 16.1644H164.508C165.85 16.1644 167 14.9726 167 13.5822C167 12.1918 165.85 11 164.508 11H151.667C147.45 11 144 14.5753 144 18.9452C144 22.5205 146.108 25.5 149.367 26.4932L160.1 29.8699C161.25 30.2671 161.825 31.2603 161.825 32.2534C161.825 33.6438 160.675 34.8356 159.333 34.8356H146.492C145.15 34.8356 144 36.0274 144 37.4178C144 38.8082 145.15 40 146.492 40H159.333C163.55 40 167 36.4247 167 32.0548C167 28.4795 164.892 25.5 161.633 24.5068L150.9 21.1301C149.75 20.7329 149.175 19.7397 149.175 18.7466C149.175 17.1575 150.325 16.1644 151.667 16.1644Z" fill="black"/>
<path d="M200.589 12.6174C200.589 11.2081 199.356 10 197.918 10C196.479 10 195.452 11.0067 195.247 12.4161C194.63 17.047 190.726 20.8725 185.795 20.8725C180.863 20.8725 176.753 17.2483 176.342 12.4161C176.137 11.2081 175.11 10 173.671 10C172.233 10 171 11.2081 171 12.8188C171 12.8188 171 12.8188 171 13.0201C171 13.0201 171 13.0201 171 13.2215C171 13.4228 171 13.4228 171 13.6242C171.822 20.0671 176.959 25.1007 183.329 26.3087V26.5101V37.3826C183.329 38.7919 184.562 40 186 40C187.438 40 188.671 38.7919 188.671 37.3826V26.5101V26.3087C195.041 25.1007 200.178 20.0671 201 13.6242V13.4228C200.589 12.8188 200.589 12.8188 200.589 12.6174Z" fill="black"/>
</svg>
