<svg width="30" height="33" viewBox="0 0 30 33" fill="none" xmlns="http://www.w3.org/2000/svg">
<path d="M27.85 20.4878C27.4636 19.4836 27.0288 18.3288 26.5217 16.9731C25.0002 12.9563 22.6577 7.60888 19.7838 7.48336C19.7597 7.48336 19.7355 7.48336 19.7114 7.48336C17.6345 7.48336 15.3885 10.6717 13.0218 16.9731C12.9252 17.2242 12.8528 17.4501 12.7562 17.6761C12.5147 15.9689 12.2248 14.1111 11.8867 12.0525C10.0272 0.755171 7.53973 -0.0230889 6.79108 0.00201624C6.04243 -0.0481941 3.55497 0.755171 1.69541 12.0525C0.0290567 22.1699 -0.381495 27.7181 0.343008 30.078L0.367158 30.1784C0.560358 30.8061 0.874309 31.8354 2.56482 32.3626C3.14442 32.5383 5.29377 32.5885 6.40468 32.6136H6.79108H6.93598H7.17748C8.28838 32.5885 10.4377 32.5383 11.0173 32.3626C11.8384 32.1115 12.3214 31.735 12.6354 31.3584C12.9735 31.509 13.2633 31.6094 13.5531 31.6596C14.3984 31.8354 16.113 31.8856 17.5379 31.8856C18.6488 31.8856 19.5665 31.8605 19.7838 31.8605C20.2668 31.8856 24.5414 31.986 26.0145 31.6847C27.1979 31.4337 29.1782 30.304 29.6854 28.9232C30.3133 26.9901 30.1442 26.5131 27.85 20.4878ZM19.6872 7.98546C19.7114 7.98546 19.7355 7.98546 19.7355 7.98546C21.6434 8.06078 23.6478 10.8977 25.8696 16.6719H22.0781V11.1487V11.1236C21.9573 9.69261 20.9189 8.58799 19.6872 8.58799C18.4314 8.58799 17.3688 9.71772 17.2722 11.1487V16.6719H13.6497C15.7991 11.0483 17.9484 7.98546 19.6872 7.98546ZM21.5951 11.1236V16.6467H17.7311V11.1236C17.8277 9.94367 18.6729 9.03988 19.6631 9.03988C20.6532 9.06498 21.4985 9.96877 21.5951 11.1236ZM6.76693 0.50412H6.79108C6.88768 0.50412 9.35099 0.45391 11.283 11.3998H9.64079V7.73441H9.01289V6.20299H8.67479V2.61295H4.85907V6.20299H4.52097V7.73441H3.89307V11.3998H2.27501C4.18287 0.45391 6.64618 0.50412 6.76693 0.50412ZM8.52989 6.7051V7.6842H5.00397V6.7051H8.52989ZM5.34207 6.12768V3.11506H8.19178V6.12768H5.34207ZM9.15779 8.23651V11.2742H4.40022V8.23651H9.15779ZM12.4422 30.7056C12.3697 30.8312 12.2731 30.9818 12.1524 31.1073C11.8867 31.3835 11.4762 31.6596 10.8483 31.8605C10.3894 32.0111 8.50574 32.0613 6.91183 32.0864H6.81523H6.76693H6.64618C5.05227 32.0613 3.16857 32.0111 2.70972 31.8605C1.26071 31.4086 1.01921 30.5801 0.826009 30.0027L0.801859 29.9023C0.0773568 27.6177 0.512058 22.1448 2.15426 12.1027C2.17841 12.0274 2.17841 11.9521 2.20256 11.8768H11.3796C11.4037 11.9521 11.4037 12.0274 11.4279 12.1027C11.8384 14.5128 12.1524 16.6719 12.418 18.5798C12.4663 18.9313 12.5146 19.2577 12.5629 19.6092C12.6112 20.0359 12.6596 20.4376 12.7079 20.8393C12.7562 21.2159 12.7803 21.5674 12.8286 21.8937C13.0943 24.3791 13.1909 26.2871 13.1184 27.7181C13.1184 27.919 13.0943 28.0947 13.0943 28.2704C13.046 28.9232 12.9494 29.4755 12.8045 29.9023L12.7803 30.0027C12.6596 30.2286 12.5871 30.4546 12.4422 30.7056ZM13.1667 20.9146C13.3116 20.538 13.4565 20.1615 13.6014 19.7347C13.9154 18.856 14.2052 18.5547 14.2776 18.5045C14.6399 18.3539 17.2481 18.4041 19.6631 18.5296H19.6872H19.7114C22.1264 18.4041 24.7346 18.3539 25.0968 18.5045C25.1693 18.5296 25.4591 18.8309 25.773 19.7347C26.1594 20.8142 26.5217 21.718 26.7873 22.446C27.8017 25.057 28.0915 25.8603 27.4153 26.7641C26.4492 28.0445 25.0485 28.2202 24.4931 28.2453C22.0539 28.3207 20.4359 28.2955 19.6872 28.2704C18.9386 28.2955 17.3447 28.3458 14.8814 28.2453C14.5916 28.2453 14.1086 28.1951 13.5531 27.9692C13.6256 26.3122 13.5048 24.0026 13.1667 20.9146ZM29.2024 28.6972C28.7918 29.8521 26.9564 30.9316 25.8938 31.1575C24.7346 31.4086 21.4985 31.3835 19.7355 31.3333C17.9967 31.3835 14.7606 31.4086 13.6014 31.1575C13.3841 31.1073 13.1426 31.032 12.8769 30.9316C13.0218 30.6554 13.0943 30.4044 13.1667 30.1784L13.1909 30.078C13.3358 29.6512 13.4082 29.124 13.4807 28.4964C13.9154 28.647 14.3501 28.7474 14.8331 28.7474C17.2964 28.8228 18.9144 28.7977 19.6389 28.7725C20.0495 28.7977 20.7015 28.7977 21.6192 28.7977C22.392 28.7977 23.3339 28.7725 24.4689 28.7474C25.7972 28.6972 27.0047 28.0947 27.7534 27.0905C28.5986 25.9608 28.2122 24.9566 27.1979 22.2954C26.9081 21.5172 26.57 20.6636 26.1836 19.5841C25.8938 18.7556 25.5557 18.2284 25.2417 18.0777C24.638 17.8016 20.8223 18.0024 19.6389 18.0526C18.4556 17.9773 14.6399 17.8016 14.0361 18.0777C13.7222 18.2284 13.3841 18.7556 13.0943 19.5841C13.046 19.6845 13.0218 19.7849 12.9977 19.8853C12.9494 19.5087 12.9011 19.1071 12.8528 18.7054C13.0218 18.2284 13.215 17.7263 13.4324 17.1991H17.2481H22.0781H26.0628C26.57 18.5296 27.0047 19.7096 27.3911 20.6887C29.6612 26.6386 29.8061 26.9901 29.2024 28.6972Z" fill="black"/>
<path d="M4.52078 13.132C4.37589 13.132 4.2793 13.2325 4.2793 13.3831V13.7848C4.2793 13.9354 4.37589 14.0358 4.52078 14.0358C4.66567 14.0358 4.76227 13.9354 4.76227 13.7848V13.3831C4.76227 13.2325 4.66567 13.132 4.52078 13.132Z" fill="black"/>
<path d="M4.52078 14.9145C4.37589 14.9145 4.2793 15.0149 4.2793 15.1655V15.5672C4.2793 15.7179 4.37589 15.8183 4.52078 15.8183C4.66567 15.8183 4.76227 15.7179 4.76227 15.5672V15.1655C4.76227 15.0149 4.66567 14.9145 4.52078 14.9145Z" fill="black"/>
<path d="M3.86812 14.2115H3.48173C3.33683 14.2115 3.24023 14.3119 3.24023 14.4624C3.24023 14.6128 3.33683 14.7132 3.48173 14.7132H3.86812C4.01302 14.7132 4.10962 14.6128 4.10962 14.4624C4.10962 14.3119 3.98887 14.2115 3.86812 14.2115Z" fill="black"/>
<path d="M5.58297 14.2115H5.19657C5.05168 14.2115 4.95508 14.3119 4.95508 14.4624C4.95508 14.6128 5.05168 14.7132 5.19657 14.7132H5.58297C5.72786 14.7132 5.82446 14.6128 5.82446 14.4624C5.82446 14.3119 5.70372 14.2115 5.58297 14.2115Z" fill="black"/>
<path d="M8.50516 22.7975C8.36027 22.7975 8.26367 22.8979 8.26367 23.0486V23.4503C8.26367 23.6009 8.36027 23.7013 8.50516 23.7013C8.65005 23.7013 8.74664 23.6009 8.74664 23.4503V23.0486C8.74664 22.8979 8.65005 22.7975 8.50516 22.7975Z" fill="black"/>
<path d="M8.50516 24.58C8.36027 24.58 8.26367 24.6804 8.26367 24.831V25.2327C8.26367 25.3833 8.36027 25.4838 8.50516 25.4838C8.65005 25.4838 8.74664 25.3833 8.74664 25.2327V24.831C8.74664 24.6804 8.65005 24.58 8.50516 24.58Z" fill="black"/>
<path d="M7.85445 23.877H7.46806C7.32316 23.877 7.22656 23.9773 7.22656 24.1278C7.22656 24.2783 7.32316 24.3787 7.46806 24.3787H7.85445C7.99935 24.3787 8.09595 24.2783 8.09595 24.1278C8.09595 23.9773 7.9752 23.877 7.85445 23.877Z" fill="black"/>
<path d="M9.56734 23.877H9.18095C9.03605 23.877 8.93945 23.9773 8.93945 24.1278C8.93945 24.2783 9.03605 24.3787 9.18095 24.3787H9.56734C9.71224 24.3787 9.80884 24.2783 9.80884 24.1278C9.80884 23.9773 9.68809 23.877 9.56734 23.877Z" fill="black"/>
<path d="M8.36051 21.492C8.26392 21.3917 8.11902 21.4167 8.02243 21.5171C7.92583 21.6174 7.94998 21.793 8.04658 21.8682C8.09488 21.9184 8.14317 21.9184 8.21562 21.9184C8.28807 21.9184 8.33636 21.8933 8.40881 21.8431C8.48126 21.7428 8.48126 21.5923 8.36051 21.492Z" fill="black"/>
<path d="M8.31345 17.8262C8.36175 17.8262 8.41004 17.8011 8.45834 17.7761C8.55494 17.7008 8.57909 17.5252 8.50664 17.4249C8.43419 17.3246 8.26515 17.2995 8.16855 17.3747C8.07195 17.45 8.0478 17.6256 8.12025 17.7259C8.16855 17.7761 8.241 17.8262 8.31345 17.8262Z" fill="black"/>
<path d="M2.87879 20.4125C2.75803 20.4627 2.68558 20.6132 2.73388 20.7386C2.75803 20.8389 2.85464 20.9141 2.97539 20.9141C2.99954 20.9141 3.0237 20.9141 3.04785 20.8891C3.1686 20.8389 3.24106 20.6884 3.19276 20.563C3.14445 20.4376 2.99954 20.3623 2.87879 20.4125Z" fill="black"/>
<path d="M4.42489 22.1196C4.30414 22.0444 4.15923 22.0946 4.08678 22.22C4.01432 22.3454 4.06263 22.4959 4.18338 22.5711C4.23168 22.5962 4.25584 22.5962 4.30414 22.5962C4.37659 22.5962 4.4732 22.546 4.5215 22.4708C4.59395 22.3454 4.54565 22.1949 4.42489 22.1196Z" fill="black"/>
<path d="M4.32791 16.471C4.20716 16.5462 4.15885 16.6967 4.23131 16.8221C4.27961 16.8974 4.35206 16.9475 4.44867 16.9475C4.49697 16.9475 4.52112 16.9475 4.56943 16.9225C4.69018 16.8723 4.73848 16.6967 4.66603 16.5713C4.59358 16.471 4.44867 16.4208 4.32791 16.471Z" fill="black"/>
<path d="M3.40953 17.199C3.31293 17.2993 3.31293 17.4498 3.43368 17.5501C3.48199 17.6003 3.53029 17.6254 3.60274 17.6254C3.6752 17.6254 3.7235 17.6003 3.7718 17.5501C3.86841 17.4498 3.86841 17.2993 3.74765 17.199C3.6752 17.0986 3.50614 17.0986 3.40953 17.199Z" fill="black"/>
<path d="M3.3376 21.4167C3.241 21.517 3.21685 21.6675 3.31345 21.7678C3.36175 21.818 3.43419 21.8681 3.50664 21.8681C3.55494 21.8681 3.60324 21.8431 3.65154 21.818C3.74814 21.7177 3.77229 21.5672 3.67569 21.4668C3.60324 21.3414 3.43419 21.3414 3.3376 21.4167Z" fill="black"/>
<path d="M7.4913 22.5962C7.61206 22.521 7.66036 22.3705 7.58791 22.2451C7.51545 22.1197 7.37054 22.0946 7.24979 22.1448C7.12903 22.22 7.08073 22.3705 7.15318 22.4959C7.20149 22.5711 7.27394 22.6213 7.37054 22.6213C7.41885 22.6213 7.46715 22.6213 7.4913 22.5962Z" fill="black"/>
<path d="M7.39446 17.048C7.44276 17.073 7.46691 17.073 7.51521 17.073C7.58767 17.073 7.68427 17.0229 7.73257 16.9476C7.80502 16.8222 7.75672 16.6717 7.66012 16.5965C7.53936 16.5212 7.39446 16.5714 7.322 16.6717C7.24955 16.7971 7.2737 16.9727 7.39446 17.048Z" fill="black"/>
<path d="M5.34124 22.4711C5.22049 22.4461 5.0756 22.5213 5.05145 22.6718C5.0273 22.7972 5.09975 22.9477 5.24464 22.9728C5.26879 22.9728 5.26879 22.9728 5.29294 22.9728C5.41368 22.9728 5.51028 22.8975 5.53443 22.7721C5.55857 22.6467 5.48613 22.4962 5.34124 22.4711Z" fill="black"/>
<path d="M8.98963 20.8139C9.03793 20.6885 8.96548 20.538 8.84472 20.4878C8.72397 20.4377 8.57906 20.4878 8.53075 20.6383C8.48245 20.7637 8.55491 20.9142 8.67566 20.9644C8.69981 20.9644 8.72397 20.9894 8.77227 20.9894C8.86887 20.9894 8.96548 20.9142 8.98963 20.8139Z" fill="black"/>
<path d="M5.43804 16.1195C5.3173 16.1446 5.2207 16.27 5.2207 16.3954C5.24485 16.5209 5.34145 16.6212 5.46219 16.6212H5.48634C5.60708 16.5961 5.70367 16.4707 5.70367 16.3453C5.67953 16.1948 5.55878 16.0945 5.43804 16.1195Z" fill="black"/>
<path d="M3.11958 18.0777C2.99883 18.0276 2.85392 18.0777 2.80562 18.2031C2.75732 18.3285 2.80562 18.479 2.92637 18.5292C2.95053 18.5543 2.97468 18.5543 3.02298 18.5543C3.11958 18.5543 3.21619 18.5041 3.24034 18.4038C3.28864 18.2784 3.24034 18.1279 3.11958 18.0777Z" fill="black"/>
<path d="M8.81914 18.8053C8.84329 18.8053 8.86745 18.8053 8.8916 18.8053C9.01235 18.7552 9.08481 18.6297 9.03651 18.4793C8.9882 18.3539 8.86745 18.2786 8.72254 18.3288C8.60178 18.3789 8.52933 18.5043 8.57763 18.6548C8.62593 18.7301 8.72254 18.8053 8.81914 18.8053Z" fill="black"/>
<path d="M3.02401 19.5586C3.02401 19.5335 3.02401 19.5084 3.02401 19.4833C3.02401 19.4583 3.04816 19.4332 3.04816 19.4081C3.04816 19.2576 2.95156 19.1573 2.80666 19.1573C2.66176 19.1573 2.56517 19.2576 2.56517 19.4081C2.56517 19.4332 2.56517 19.4583 2.56517 19.4833C2.56517 19.5084 2.54102 19.5335 2.54102 19.5837C2.54102 19.7091 2.63761 19.8345 2.78251 19.8345C2.90326 19.8094 3.02401 19.7091 3.02401 19.5586Z" fill="black"/>
<path d="M8.74805 19.634C8.74805 19.7845 8.84464 19.8849 8.98953 19.8849C9.11028 19.8849 9.23102 19.7845 9.23102 19.634C9.23102 19.4835 9.13442 19.3832 8.98953 19.3832C8.84464 19.3832 8.74805 19.5086 8.74805 19.634Z" fill="black"/>
<path d="M6.57366 16.1697C6.45291 16.1446 6.30802 16.2199 6.28387 16.3704C6.25972 16.4958 6.33217 16.6463 6.47706 16.6714C6.50121 16.6714 6.50121 16.6714 6.52536 16.6714C6.6461 16.6714 6.7427 16.5961 6.76685 16.4707C6.791 16.3202 6.71855 16.1948 6.57366 16.1697Z" fill="black"/>
<path d="M6.33255 22.4962C6.18765 22.5213 6.11519 22.6467 6.13934 22.7721C6.16349 22.8975 6.2601 22.9979 6.38086 22.9979C6.40501 22.9979 6.40501 22.9979 6.42916 22.9979C6.54992 22.9728 6.64652 22.8474 6.62237 22.722C6.59822 22.5715 6.47746 22.4712 6.33255 22.4962Z" fill="black"/>
<path d="M24.8079 21.3665C24.9528 21.3665 25.0494 21.2661 25.0494 21.1155V20.7138C25.0494 20.5631 24.9528 20.4627 24.8079 20.4627C24.663 20.4627 24.5664 20.5631 24.5664 20.7138V21.1155C24.5664 21.2661 24.663 21.3665 24.8079 21.3665Z" fill="black"/>
<path d="M24.8079 23.149C24.9528 23.149 25.0494 23.0486 25.0494 22.8979V22.4963C25.0494 22.3456 24.9528 22.2452 24.8079 22.2452C24.663 22.2452 24.5664 22.3456 24.5664 22.4963V22.8979C24.5664 23.0486 24.663 23.149 24.8079 23.149Z" fill="black"/>
<path d="M25.4583 22.0439H25.8447C25.9896 22.0439 26.0862 21.9436 26.0862 21.7931C26.0862 21.6426 25.9896 21.5423 25.8447 21.5423H25.4583C25.3134 21.5423 25.2168 21.6426 25.2168 21.7931C25.2168 21.9436 25.3375 22.0439 25.4583 22.0439Z" fill="black"/>
<path d="M23.7454 22.0439H24.1318C24.2767 22.0439 24.3733 21.9436 24.3733 21.7931C24.3733 21.6426 24.2767 21.5423 24.1318 21.5423H23.7454C23.6005 21.5423 23.5039 21.6426 23.5039 21.7931C23.5039 21.9436 23.6247 22.0439 23.7454 22.0439Z" fill="black"/>
<path d="M25.8938 24.2034C25.7489 24.2034 25.6523 24.3037 25.6523 24.4542V24.7552C25.6523 24.9057 25.7489 25.006 25.8938 25.006C26.0387 25.006 26.1353 24.9057 26.1353 24.7552V24.4542C26.1353 24.3037 26.0146 24.2034 25.8938 24.2034Z" fill="black"/>
<path d="M25.8938 25.5089C25.7489 25.5089 25.6523 25.6092 25.6523 25.7597V26.0607C25.6523 26.2112 25.7489 26.3115 25.8938 26.3115C26.0387 26.3115 26.1353 26.2112 26.1353 26.0607V25.7597C26.1353 25.6343 26.0146 25.5089 25.8938 25.5089Z" fill="black"/>
<path d="M26.3763 25.5084H26.6661C26.811 25.5084 26.9076 25.4081 26.9076 25.2576C26.9076 25.1071 26.811 25.0068 26.6661 25.0068H26.3763C26.2314 25.0068 26.1348 25.1071 26.1348 25.2576C26.1348 25.4081 26.2555 25.5084 26.3763 25.5084Z" fill="black"/>
<path d="M24.8555 25.2576C24.8555 25.4081 24.9521 25.5084 25.097 25.5084H25.3868C25.5317 25.5084 25.6283 25.4081 25.6283 25.2576C25.6283 25.1071 25.5317 25.0068 25.3868 25.0068H25.097C24.9762 25.0068 24.8555 25.1071 24.8555 25.2576Z" fill="black"/>
<path d="M21.0394 23.6255C21.0877 23.6255 21.136 23.6255 21.1601 23.6004C21.2809 23.5252 21.305 23.3747 21.2326 23.2493C21.1601 23.1239 21.0152 23.0988 20.8945 23.1741C20.7737 23.2493 20.7496 23.3998 20.822 23.5252C20.8703 23.5754 20.9669 23.6255 21.0394 23.6255Z" fill="black"/>
<path d="M21.5233 27.0398C21.5474 27.0398 21.5474 27.0398 21.5716 27.0398C21.6923 27.0398 21.7889 26.9646 21.8131 26.8392C21.8372 26.7138 21.7648 26.5633 21.6199 26.5382C21.475 26.5131 21.3542 26.5884 21.3301 26.7388C21.3301 26.8893 21.4025 27.0147 21.5233 27.0398Z" fill="black"/>
<path d="M20.2434 24.4289C20.2676 24.454 20.3159 24.454 20.34 24.454C20.4366 24.454 20.5332 24.4038 20.5574 24.3035C20.6057 24.1781 20.5574 24.0276 20.4366 23.9774C20.3159 23.9273 20.171 23.9774 20.1227 24.1028C20.0502 24.2032 20.1227 24.3536 20.2434 24.4289Z" fill="black"/>
<path d="M20.1937 25.5335C20.1937 25.5335 20.2179 25.5335 20.242 25.5335C20.3628 25.5084 20.4594 25.383 20.4352 25.2325C20.4111 25.1071 20.2903 25.0068 20.1696 25.0319C20.0488 25.057 19.9522 25.1824 19.9764 25.3078C19.9764 25.4332 20.073 25.5335 20.1937 25.5335Z" fill="black"/>
<path d="M20.4836 26.4374C20.5319 26.4875 20.6044 26.5126 20.6527 26.5126C20.701 26.5126 20.7734 26.4875 20.8217 26.4374C20.9183 26.337 20.9183 26.1866 20.8217 26.0862C20.7251 25.9859 20.5802 25.9859 20.4836 26.0862C20.4112 26.1866 20.387 26.337 20.4836 26.4374Z" fill="black"/>
<path d="M22.0531 23.3494C22.198 23.3494 22.2946 23.249 22.3187 23.1236C22.3187 22.9731 22.2221 22.8728 22.1014 22.8728C21.9565 22.8728 21.8599 22.9731 21.8357 23.0986C21.8116 23.224 21.9082 23.3494 22.0531 23.3494Z" fill="black"/>
<path d="M23.7688 24.7306C23.6481 24.7306 23.5273 24.856 23.5273 24.9814C23.5273 25.1319 23.6481 25.2322 23.7688 25.2322C23.9137 25.2322 24.0103 25.1319 24.0103 24.9814C24.0103 24.8309 23.9137 24.7306 23.7688 24.7306Z" fill="black"/>
<path d="M23.2615 25.8853C23.189 26.0107 23.2132 26.1612 23.3339 26.2365C23.3822 26.2615 23.4305 26.2866 23.4788 26.2866C23.5513 26.2866 23.6237 26.2365 23.672 26.1863C23.7445 26.0609 23.7203 25.9104 23.5996 25.8352C23.4788 25.7348 23.3339 25.7599 23.2615 25.8853Z" fill="black"/>
<path d="M23.6727 24.6297C23.6968 24.6297 23.721 24.6297 23.7451 24.6297C23.8659 24.5796 23.9383 24.4291 23.89 24.3037C23.8417 24.1783 23.6968 24.103 23.5761 24.1532C23.4553 24.2033 23.3828 24.3538 23.4311 24.4792C23.4794 24.5545 23.5761 24.6297 23.6727 24.6297Z" fill="black"/>
<path d="M23.0674 23.7259C23.1398 23.7259 23.2122 23.7009 23.2605 23.6256C23.333 23.5253 23.3088 23.3497 23.2122 23.2745C23.1157 23.1992 22.9466 23.2243 22.8742 23.3246C22.8017 23.425 22.8259 23.6005 22.9225 23.6758C22.9466 23.7259 23.0191 23.7259 23.0674 23.7259Z" fill="black"/>
<path d="M22.6329 26.9645C22.657 26.9645 22.6812 26.9645 22.7295 26.9394C22.8502 26.8892 22.9227 26.7387 22.8744 26.6133C22.8261 26.4879 22.6812 26.4127 22.5604 26.4628C22.4397 26.513 22.3672 26.6635 22.4155 26.7889C22.4397 26.9143 22.5363 26.9645 22.6329 26.9645Z" fill="black"/>
</svg>
