<svg width="98" height="40" viewBox="0 0 98 40" fill="none" xmlns="http://www.w3.org/2000/svg">
<path d="M41.4562 18.4226L42.6978 21.7892C42.7445 21.9159 42.8652 22 43.0001 22C43.135 22 43.2557 21.9159 43.3024 21.7892L44.544 18.4226C45.5491 15.6971 47.6975 13.5486 50.4228 12.5438L53.7894 11.3021C53.9159 11.2554 54 11.1347 54 10.9998C54 10.8649 53.9159 10.7442 53.7894 10.6975L50.4226 9.45587C47.6973 8.4508 45.5489 6.30252 44.544 3.57723L43.3024 0.210615C43.2557 0.0840565 43.135 0 43.0001 0C42.8652 0 42.7445 0.0840565 42.6978 0.210615L41.4562 3.57723C40.4511 6.30252 38.3028 8.4508 35.5774 9.45587L32.2106 10.6975C32.0841 10.7442 32 10.8649 32 10.9998C32 11.1347 32.0841 11.2554 32.2106 11.3021L35.5772 12.5438C38.3027 13.5486 40.4511 15.6969 41.4562 18.4226Z" fill="#F17298" fill-opacity="0.3"/>
<path d="M97.6934 23.0462L92.7967 21.1839C88.8324 19.6763 85.7074 16.4539 84.2457 12.3659L82.4397 7.31593C82.3718 7.12609 82.1962 7 82 7C81.8038 7 81.6282 7.12609 81.5603 7.31593L79.7543 12.3656C78.2923 16.4539 75.1673 19.6763 71.2033 21.1839L66.3063 23.0462C66.1223 23.1162 66 23.2972 66 23.4996C66 23.7019 66.1223 23.883 66.3063 23.953L71.2035 25.8158C75.1676 27.3234 78.2923 30.5459 79.7543 34.6338L81.5603 39.6841C81.6282 39.8739 81.8038 40 82 40C82.1962 40 82.3718 39.8739 82.4397 39.6841L84.2457 34.6338C85.7077 30.5459 88.8324 27.3231 92.7965 25.8158L97.6937 23.953C97.8777 23.883 98 23.7019 98 23.4996C98 23.2972 97.8775 23.1162 97.6934 23.0462Z" fill="#F17298" fill-opacity="0.3"/>
<path d="M15.8467 31.2662L13.3981 30.3069C11.4162 29.5302 9.85373 27.8701 9.12276 25.7643L8.2198 23.1629C8.18569 23.0652 8.09797 23 7.9999 23C7.90183 23 7.81411 23.0652 7.78 23.1629L6.87725 25.764C6.14627 27.8701 4.58382 29.5302 2.60166 30.3069L0.153302 31.2662C0.0613216 31.3023 0 31.3955 0 31.4997C0 31.6039 0.0613216 31.6973 0.153302 31.7333L2.60186 32.6925C4.58382 33.4694 6.14627 35.1295 6.87725 37.2353L7.78 39.8371C7.81411 39.9348 7.90183 40 7.9999 40C8.09797 40 8.18569 39.9348 8.2198 39.8371L9.12276 37.2353C9.85373 35.1293 11.416 33.4694 13.3981 32.6927L15.8467 31.7333C15.9387 31.6973 16 31.6039 16 31.4997C16 31.3955 15.9387 31.3023 15.8467 31.2662Z" fill="#F17298" fill-opacity="0.3"/>
</svg>
