<svg width="81" height="56" viewBox="0 0 81 56" fill="none" xmlns="http://www.w3.org/2000/svg">
<path d="M49.2724 3.7929C56.7931 -2.26585 69.6011 -0.663883 75.5979 5.75137C82.6954 13.3281 84.1126 27.6882 71.7478 40.5337C65.6147 46.9053 58.2234 51.7361 49.5813 55.0264L45.5955 49.4643C57.8892 44.3027 67.0778 37.3043 68.3799 25.571C62.8331 25.571 58.2311 25.7451 54.1322 24.4743C49.4654 23.0275 46.6308 20.3441 45.4675 17.2672C43.622 12.4495 44.5166 7.62418 49.2724 3.7929ZM4.6982 3.7929C12.219 -2.26585 25.0269 -0.663883 31.0238 5.75137C38.1213 13.3281 39.5384 27.6882 27.1736 40.5337C21.0406 46.9053 13.6492 51.7361 5.0071 55.0264L1.02135 49.4643C13.315 44.3027 22.5036 37.3043 23.8057 25.571C18.259 25.571 13.6569 25.7451 9.55797 24.4743C4.89124 23.0275 2.05663 20.3441 0.89328 17.2672C-0.952171 12.4495 -0.0575638 7.62418 4.6982 3.7929Z" fill="#F17298"/>
</svg>
