<svg width="24" height="25" viewBox="0 0 24 25" fill="none" xmlns="http://www.w3.org/2000/svg">
<path d="M23.4001 20.8323L20.63 18.1339L20.6629 18.1019C20.8456 17.9238 20.8456 17.6362 20.6629 17.4581C20.4801 17.28 20.1848 17.28 20.002 17.4581L19.9692 17.4901L19.0318 16.5769C19.2146 16.1796 19.1396 15.6956 18.8068 15.3715L17.8225 14.4126C19.7301 10.9242 19.1771 6.4861 16.1633 3.55019C14.6073 2.0343 12.545 1.08914 10.3561 0.88824C8.19543 0.691904 6.02066 1.22612 4.22554 2.39044C4.00994 2.53199 3.9537 2.81507 4.09431 3.02511C4.2396 3.23514 4.5302 3.28993 4.7458 3.15296C8.11107 0.961296 12.6387 1.40419 15.5025 4.19399C18.8302 7.43582 18.8302 12.7049 15.5025 15.9468C12.1747 19.1886 6.7659 19.1886 3.43813 15.9468C0.550935 13.1387 0.115043 8.70973 2.39293 5.4268C2.53822 5.21677 2.48198 4.93368 2.26638 4.79213C2.05077 4.65059 1.76018 4.70538 1.61488 4.91541C-0.916097 8.56361 -0.428649 13.4766 2.77257 16.5951C4.61925 18.3941 7.04243 19.2936 9.46561 19.2936C10.9983 19.2936 12.5356 18.9329 13.9229 18.2115L14.9072 19.1703C15.1228 19.3804 15.4087 19.4854 15.6899 19.4854C15.8446 19.4854 15.9993 19.4534 16.1446 19.3895L17.0773 20.2981L17.0445 20.3301C16.8617 20.5082 16.8617 20.7958 17.0445 20.9739C17.1382 21.0652 17.2554 21.1063 17.3773 21.1063C17.4991 21.1063 17.6163 21.0606 17.71 20.9739L17.7429 20.9419L20.5129 23.6404C20.9113 24.0285 21.4315 24.2203 21.9565 24.2203C22.4814 24.2203 23.0017 24.0285 23.4001 23.6404C23.7844 23.266 24 22.7637 24 22.2341C24 21.7044 23.7891 21.2068 23.4001 20.8323ZM15.5728 18.522L14.7572 17.7275C15.2541 17.4033 15.7274 17.0243 16.168 16.5951C16.6086 16.1659 16.9929 15.7048 17.3304 15.2208L18.1459 16.0153C18.2116 16.0792 18.2116 16.1888 18.1459 16.2527L15.8165 18.522C15.7462 18.5859 15.6384 18.5859 15.5728 18.522ZM16.8617 18.7914L18.4225 17.2709L19.3036 18.1293L17.7429 19.6498L16.8617 18.7914ZM22.7392 22.9966C22.308 23.4167 21.6096 23.4167 21.1784 22.9966L18.4084 20.2981L19.9692 18.7777L22.7392 21.4761C23.1704 21.8962 23.1704 22.5765 22.7392 22.9966Z" fill="white"/>
<path d="M9.44643 5.61322C11.4643 5.61322 13.1071 7.21308 13.1071 9.17812C13.1071 9.41723 13.308 9.61287 13.5536 9.61287C13.7991 9.61287 14 9.41723 14 9.17812C14 6.73486 11.9554 4.74373 9.44643 4.74373C9.20089 4.74373 9 4.93936 9 5.17847C9 5.41758 9.20089 5.61322 9.44643 5.61322Z" fill="white"/>
<path d="M7.48593 5.71756C7.56368 5.71756 7.63658 5.69835 7.70947 5.66473L7.73376 5.65032C7.97187 5.53027 8.06906 5.24214 7.94758 5.00683C7.82609 4.77152 7.53453 4.67548 7.29642 4.79553L7.2624 4.81474C7.02429 4.9396 6.93196 5.22773 7.05345 5.46304C7.14092 5.62151 7.31099 5.71756 7.48593 5.71756Z" fill="white"/>
</svg>
