<svg width="179" height="172" viewBox="0 0 179 172" fill="none" xmlns="http://www.w3.org/2000/svg">
<path d="M36.9558 130.29C36.9558 129.52 36.2334 119.311 27.0228 120.082C17.8122 120.852 19.6182 117 19.6182 117C19.6182 117 17.0898 118.348 18.354 122.393C19.6182 126.245 21.966 136.646 34.7886 133.372C37.4976 132.409 36.9558 130.29 36.9558 130.29Z" fill="#F27280"/>
<path d="M77.7859 181.571C73.1943 190.339 56.6645 195.818 48.3996 190.887C40.1346 185.772 30.7677 174.631 41.7876 156.913C51.1545 141.57 42.8896 132.255 38.1143 132.072C35.9103 131.524 36.4613 134.264 36.4613 134.264C36.4613 134.264 50.4199 139.561 37.5633 159.105C28.0127 175.361 39.2163 193.079 52.8075 195.636C62.1744 198.01 77.0513 188.147 79.9899 184.311C80.1736 182.119 77.7859 181.571 77.7859 181.571Z" fill="#F27280"/>
<path d="M137.963 36.3808C137.963 36.3808 113.808 28.1205 90.0198 25C66.2313 28.1205 42.0769 36.3808 42.0769 36.3808C41.5279 49.5972 43.7238 78.0491 55.069 90.8984C60.3757 96.7723 74.8318 100.994 89.6539 100.994C89.8369 100.994 90.0198 100.994 90.0198 100.994C90.2028 100.994 90.3858 100.994 90.3858 100.994C105.208 101.178 119.664 96.9559 124.971 90.8984C136.133 77.8656 138.329 49.5972 137.963 36.3808Z" fill="#FFF1DA"/>
<path d="M115 78.5C115 79.3333 112.273 80 109 80C105.727 80 103 79.3333 103 78.5C103 77.6667 105.727 77 109 77C112.455 77 115 77.6667 115 78.5Z" fill="#FAB49C"/>
<path d="M75 78C75 79.1111 72.2727 80 69 80C65.7273 80 63 79.1111 63 78C63 76.8889 65.7273 76 69 76C72.2727 76.2222 75 76.8889 75 78Z" fill="#FAB49C"/>
<path d="M134.404 67.0755C138.565 66.1404 142.545 74.1823 133.68 74.9304C124.997 75.8654 134.404 67.0755 134.404 67.0755Z" fill="#FFF1DA"/>
<path d="M134.83 69.0643C137.946 68.3835 139.961 73.3192 135.014 74C133.731 73.8298 133.731 72.4682 134.647 71.7874C135.563 71.2768 135.747 70.0855 135.014 69.4047C134.83 69.2345 134.83 69.0643 134.83 69.0643Z" fill="#FAB49C"/>
<path d="M44.5961 69.0758C40.4353 68.1379 36.4554 76.2035 45.3197 76.9538C54.0032 77.704 44.5961 69.0758 44.5961 69.0758Z" fill="#FFF1DA"/>
<path d="M44.1696 70.0771C41.0545 69.2602 39.0388 75.1831 43.9864 76C45.2691 75.7958 45.2691 74.1619 44.3529 73.3449C43.4367 72.7322 43.2534 71.3026 43.9864 70.4856C43.9864 70.0771 44.1696 70.0771 44.1696 70.0771Z" fill="#FAB49C"/>
<path d="M113 78.5C113 78.8333 112.833 79 112.5 79C112.167 79 112 78.8333 112 78.5C112 78.1667 112.167 78 112.5 78C112.833 78 113 78.1667 113 78.5Z" fill="white"/>
<path d="M73 78C73 78.5 72.75 79 72.5 79C72.25 79 72 78.5 72 78C72 77.5 72.25 77 72.5 77C72.75 77 73 77.5 73 78Z" fill="white"/>
<path d="M89.736 5.0727C84.2452 -3.84473 46.7248 -3.84472 35.5601 29.4591C29.7033 41.2884 23.1143 42.3803 18.9047 39.2865C9.20427 32.007 20.0028 17.2659 28.7881 21.6336C23.8464 17.2659 1.51715 19.2678 0.0529317 40.7424C-1.22826 62.217 21.101 68.2226 28.7881 68.0406C25.6767 71.4984 17.4405 69.6785 17.4405 69.6785C17.4405 69.6785 29.8863 80.4158 44.5284 68.0406C45.0775 64.0369 43.2472 41.6523 65.2105 37.1026C56.4252 45.1101 59.9027 63.8549 79.1205 60.5791C72.7146 59.4872 67.7728 44.0182 84.6113 36.1927C78.5714 45.1101 79.3035 58.3952 97.4232 59.1232C94.3117 56.2114 88.4549 43.8362 99.8025 35.8287C96.8741 44.2002 96.8741 56.3934 112.614 59.1232C107.856 55.4834 106.575 42.7443 114.262 37.1026C127.257 42.1983 134.944 53.2996 134.212 66.7667C145.925 73.1363 158.188 67.8586 161.666 66.4027C153.246 66.4027 150.318 61.3071 150.318 61.3071C150.318 61.3071 173.928 66.0387 180.334 42.3803C184.361 24.3634 168.987 18.5398 164.594 18.3578C174.477 26.0013 170.634 40.7424 153.978 37.8306C145.559 33.8268 145.193 30.733 140.617 20.1777C133.479 3.25281 101.084 -6.57455 89.736 5.0727Z" fill="#F27280"/>
<path d="M84.0077 80C84.1815 82.2105 85.2243 86.4474 90.4381 86.2632C94.7829 85.8947 95.6519 83.3158 95.9995 80.1842C95.9995 83.1316 96.1733 86.6316 90.2643 87C86.6146 86.8158 83.8339 85.7105 84.0077 80Z" fill="#F37886"/>
<path d="M87.5164 86.1999C86.8212 86.9993 86.126 94.194 90.4708 93.9942C93.9467 94.194 94.8157 89.1977 93.2515 86C92.3826 86.7994 88.9067 86.7994 87.5164 86.1999Z" fill="#F37886"/>
<path d="M90.1975 87C90.1975 87 89.5926 90.0769 90.5 92C91.4074 89.6923 90.8025 87 90.8025 87H90.1975Z" fill="#EE4D72"/>
<path d="M135.249 49.8348C137.958 56.2261 161.62 60.9739 173 46C173 54.0348 161.44 62.4348 144.099 59.1478C143.919 59.3304 145.364 64.9913 152.77 67C143.558 65.7217 133.262 60.6087 135.249 49.8348Z" fill="#F7ADB5"/>
<path d="M42.7081 55.0174C40.0018 61.2261 16.3666 66.1565 5 51C5 59.0348 16.547 67.4348 33.8675 64.1478C34.0479 64.3304 32.6045 69.9913 25.2072 72C34.5892 70.9043 44.8732 65.7913 42.7081 55.0174Z" fill="#F7ADB5"/>
<path d="M89.7181 7.4447C93.9807 4.1682 108.622 -0.746541 119 7.62673C115.293 3.44009 95.834 4.53226 90.0888 16C88.7915 10.1751 78.7838 5.62443 71 6.35254C75.8185 1.43779 85.8263 4.35023 89.7181 7.4447Z" fill="#F7ADB5"/>
<path d="M67.7558 67.3417C67.7558 67.3417 64.9079 69.0448 63.0092 65C62.851 67.1289 64.7496 69.6835 67.2812 68.8319C68.5469 69.4706 67.7558 67.3417 67.7558 67.3417Z" fill="#924B3D"/>
<path d="M68.5287 69.4063C68.5287 69.4063 66.3628 71.2346 64 69C64.1969 70.422 66.1659 71.6409 68.3318 70.6252C69.7102 70.6252 68.5287 69.4063 68.5287 69.4063Z" fill="#924B3D"/>
<path d="M77.837 56.8402C79.2834 57.2001 70.7857 51.2606 65 59C66.4464 57.5601 70.2433 54.5004 77.837 56.8402Z" fill="#924B3D"/>
<path d="M68.1633 66C69.1198 70.1791 69.8849 71.7712 73.1369 71.9702C76.1976 72.1692 78.1105 69.1841 77.728 66.199C78.8757 70.7762 76.1976 73.7613 73.3282 73.9603C70.6501 74.3583 67.2068 71.7712 68.1633 66Z" fill="#924B3D"/>
<path d="M109.293 67.3417C109.293 67.3417 112.711 69.0448 114.989 65C115.179 67.1289 112.9 69.6835 109.863 68.8319C108.344 69.4706 109.293 67.3417 109.293 67.3417Z" fill="#924B3D"/>
<path d="M109.391 69.4063C109.391 69.4063 111.595 71.2346 114 69C113.8 70.422 111.796 71.6409 109.592 70.6252C108.389 70.6252 109.391 69.4063 109.391 69.4063Z" fill="#924B3D"/>
<path d="M99.163 56.8402C97.7166 57.2001 106.214 51.2606 112 59C110.734 57.5601 106.938 54.6804 99.163 56.8402Z" fill="#924B3D"/>
<path d="M109.775 67C108.824 70.6697 108.064 72.0677 104.833 72.2425C101.791 72.4172 99.8902 69.796 100.27 67.1747C99.1298 71.194 101.791 73.8152 104.642 73.99C107.494 74.1647 110.915 72.0677 109.775 67Z" fill="#924B3D"/>
<path d="M132.333 94C129.286 94 126.238 92.75 124.143 90.4286C123.952 90.25 123.952 89.8929 124.143 89.7143C124.333 89.5357 124.714 89.5357 124.905 89.7143C126.81 91.6786 129.476 92.9286 132.333 92.9286C137.667 92.9286 142.048 88.8214 142.048 83.8214C142.048 79.3571 138.619 75.6071 134.048 74.8929C133.857 74.8929 133.667 74.5357 133.667 74.3571C133.667 74.1786 134.048 74 134.238 74C139.381 74.8929 143 79 143 84C143 89.3571 138.238 94 132.333 94Z" fill="#F27280"/>
<path d="M133.813 93.0507L134 93.7511C134 93.7511 134 94.9768 132.688 94.9768C131.375 95.152 131.187 94.2764 131.187 94.2764C131 93.7511 131 93.2258 131 93.2258C131 93.2258 131 92 132.5 92C133.625 92 133.813 93.0507 133.813 93.0507Z" fill="#FFF1DA"/>
<path d="M141.323 80.1852L142.677 80C142.677 80 145 80.1852 145 82.4074C145 84.6296 142.484 85 142.484 85H141.516C141.516 85 139.194 85 139 82.4074C139.194 80.5556 141.323 80.1852 141.323 80.1852Z" fill="#9ED29C"/>
<path d="M144 81.8007C143.833 82.0413 143.333 82.0413 142.833 81.921C142.333 81.8007 142 81.4399 142 81.1993C142.167 80.9587 142.667 80.9587 143.167 81.079C143.667 81.1993 144 81.5601 144 81.8007Z" fill="white"/>
<path d="M140.39 88.2015L141.351 88.5101C141.351 88.5101 142.505 89.2815 141.736 90.3616C140.774 91.4416 139.236 90.8245 139.236 90.8245L138.659 90.5159C138.659 90.5159 137.314 89.7444 138.467 88.5101C139.236 87.5844 140.39 88.2015 140.39 88.2015Z" fill="#FFF1DA"/>
<path d="M48.1075 96C50.9939 96 53.8803 94.6875 55.8647 92.25C56.0451 92.0625 56.0451 91.6875 55.8647 91.5C55.6843 91.3125 55.3235 91.3125 55.1431 91.5C53.3391 93.5625 50.8135 94.875 48.1075 94.875C43.0563 94.875 38.907 90.5625 38.907 85.3125C38.907 80.625 42.1542 76.6875 46.4839 75.9375C46.6643 75.9375 46.8447 75.5625 46.8447 75.375C46.8447 75.1875 46.4839 75 46.3035 75C41.4326 75.9375 38.005 80.25 38.005 85.5C37.8246 91.3125 42.5151 96 48.1075 96Z" fill="#F27280"/>
<path d="M46.1875 95.0507L46 95.7511C46 95.7511 46 96.9768 47.3125 96.9768C48.625 97.152 48.8125 96.2764 48.8125 96.2764C49 95.7511 49 95.2258 49 95.2258C49 95.2258 49 94 47.5 94C46.375 94 46.1875 95.0507 46.1875 95.0507Z" fill="#FFF1DA"/>
<path d="M38.6774 82.1852L37.3226 82C37.3226 82 35 82.1852 35 84.4074C35 86.6296 37.5161 87 37.5161 87H38.4839C38.4839 87 40.8065 87 41 84.4074C40.6129 82.5556 38.6774 82.1852 38.6774 82.1852Z" fill="#9ED29C"/>
<path d="M36.0416 83.6014C36.2048 84.0825 36.6944 84.0826 37.184 83.842C37.6736 83.6014 38 82.8797 38 82.3986C37.8368 81.9174 37.3472 81.9175 36.8576 82.158C36.2048 82.6392 35.8784 83.1203 36.0416 83.6014Z" fill="white"/>
<path d="M39.6102 90.1407L38.6489 90.456C38.6489 90.456 37.4953 91.2442 38.2644 92.3477C39.2257 93.4512 40.7638 92.8206 40.7638 92.8206L41.3405 92.5053C41.3405 92.5053 42.6864 91.7171 41.5328 90.456C40.956 89.6678 39.6102 90.1407 39.6102 90.1407Z" fill="#FFF1DA"/>
<path d="M63 119.849C63.9105 114.892 67.7347 110.485 75.019 108.833C82.4853 107.18 85.399 104.059 85.7632 98.1836C93.2295 98 95.0505 98 95.0505 98C95.0505 98 93.9579 106.446 103.609 107.915C113.443 109.384 115.446 114.708 115.993 118.931C116.721 122.971 63 119.849 63 119.849Z" fill="#FFF1DA"/>
<path d="M115.705 115.551C115.705 115.551 115.705 118.675 91.7571 119.227C72.3792 119.41 63.4215 116.286 65.2496 115C68.9058 142.564 72.7448 158.184 72.7448 158.184C72.7448 158.184 59.2169 178.765 54.4638 199.347C52.6357 211.108 55.5606 222.501 75.1213 219.377C84.4447 230.035 99.9836 222.868 101.446 219.561C106.93 223.052 120.275 221.766 124.846 214.967C132.341 203.941 118.813 175.825 106.748 158.735C112.597 128.415 115.705 115.551 115.705 115.551Z" fill="#9ED29C"/>
<path d="M108.5 168.555C108.5 168.555 72.9474 215.874 63 219.016C66.1316 225.116 75.8947 220.125 77 219.201C98.7368 192.399 112 168 112 168L108.5 168.555Z" fill="#CFE5AF"/>
<path d="M113 166C113 166 113 210.699 105.307 220.551C97.797 226.024 81.8614 227.119 76 220.003C98.3465 193.549 111.168 166.182 111.168 166.182L113 166Z" fill="#89C766"/>
<path d="M115.278 116C117.324 118.003 147.833 149.876 121.045 163.9C109.697 168.636 107.837 169 107.837 169L103 163.536C105.418 156.979 105.604 126.928 104.674 123.103C103.93 119.278 115.278 116 115.278 116Z" fill="#CFE5AF"/>
<path d="M111 166C113.938 164.925 131.569 157.94 125.876 142C124.223 151.493 111 166 111 166Z" fill="#EBF5E4"/>
<path d="M108 163C108 163 113.304 154.923 111.697 149C110.089 154.385 108 163 108 163Z" fill="#EBF5E4"/>
<path d="M110 168.667L106.154 172L100 164.807L103.846 162L110 168.667Z" fill="#EBF5E4"/>
<path d="M64.722 115C62.6757 117.003 32.1668 148.876 58.9551 162.9C70.3029 167.636 72.1632 168 72.1632 168L77 162.536C74.5816 155.979 74.3956 125.928 75.3257 122.103C76.2559 118.278 64.722 115 64.722 115Z" fill="#CFE5AF"/>
<path d="M70 165C67.0616 163.925 49.4312 156.94 55.1244 141C56.7772 150.493 70 165 70 165Z" fill="#EBF5E4"/>
<path d="M73 163C73 163 66.3701 154.346 68.3791 148C70.3882 153.962 73 163 73 163Z" fill="#EBF5E4"/>
<path d="M71 168.333L74.2885 172L80 164.088L76.5385 161L71 168.333Z" fill="#EBF5E4"/>
<path d="M68 117.5C68 118.846 66.5882 120 65 120C63.4118 120 62 118.846 62 117.5C62 116.154 63.4118 115 65 115C66.7647 115 68 116.154 68 117.5Z" fill="white"/>
<path d="M72.9828 118.881C72.802 120.214 71.3558 121.166 69.7288 120.976C68.1019 120.785 66.8364 119.452 67.0172 118.119C67.198 116.786 68.6442 115.834 70.2712 116.024C71.8981 116.215 73.1636 117.548 72.9828 118.881Z" fill="white"/>
<path d="M78.9828 119.881C78.802 121.214 77.3558 122.166 75.7288 121.976C74.1019 121.785 72.8364 120.452 73.0172 119.119C73.198 117.786 74.6442 116.834 76.2712 117.024C77.8981 117.215 79.1636 118.548 78.9828 119.881Z" fill="white"/>
<path d="M83.9833 120.153C83.9833 121.22 82.5755 122.136 80.8157 121.983C79.2319 121.831 78 120.915 78 119.847C78 118.78 79.4078 117.864 81.1676 118.017C82.9274 118.169 84.1593 119.085 83.9833 120.153Z" fill="white"/>
<path d="M90 120.691C90 122.026 88.5882 123.17 86.8235 122.979C85.2353 122.788 84 121.644 84 120.309C84 118.974 85.4118 117.83 87.1765 118.021C88.7647 118.021 90 119.356 90 120.691Z" fill="white"/>
<path d="M96 120.691C96 122.026 94.5882 123.17 92.8235 122.979C91.2353 122.788 90 121.644 90 120.309C90 118.974 91.4118 117.83 93.1765 118.021C94.7647 118.021 96 119.165 96 120.691Z" fill="white"/>
<path d="M100.98 119.942C101.161 121.244 100.077 122.545 98.4516 122.917C96.8259 123.289 95.3809 122.36 95.0196 121.058C94.839 119.756 95.9228 118.455 97.5484 118.083C99.3547 117.711 100.8 118.64 100.98 119.942Z" fill="white"/>
<path d="M106.98 118.942C107.161 120.244 106.077 121.545 104.452 121.917C102.826 122.289 101.381 121.36 101.02 120.058C100.839 118.756 101.923 117.455 103.548 117.083C105.174 116.711 106.619 117.64 106.98 118.942Z" fill="white"/>
<path d="M111.98 117.942C112.161 119.244 111.077 120.545 109.452 120.917C107.826 121.289 106.381 120.36 106.02 119.058C105.839 117.756 106.923 116.455 108.548 116.083C110.355 115.711 111.8 116.64 111.98 117.942Z" fill="white"/>
<path d="M116.98 116.942C117.161 118.244 116.077 119.545 114.452 119.917C112.826 120.289 111.381 119.36 111.02 118.058C110.839 116.756 111.923 115.455 113.548 115.083C115.174 114.711 116.8 115.64 116.98 116.942Z" fill="white"/>
<path d="M82.3434 185.988C87.8167 169.011 129.049 103.476 194 98C182.141 100.738 119.015 114.794 83.438 187.814C81.0663 188.726 82.3434 185.988 82.3434 185.988Z" fill="#7C8B39"/>
<path d="M154.231 111.708C151.698 110.364 170.873 107.869 169.969 113.627C168.884 119.769 155.135 112.092 154.231 111.708Z" fill="#A5CF4C"/>
<path d="M119.437 138.494C115.272 137.764 142.25 125.359 142.974 134.116C143.879 143.602 120.885 138.859 119.437 138.494Z" fill="#A5CF4C"/>
<path d="M111.171 143.698C109.304 147.035 106.129 121.633 114.532 122.004C123.682 122.189 111.918 142.585 111.171 143.698Z" fill="#A5CF4C"/>
<path d="M138.229 119.88C135.698 118.595 155.041 115.657 153.956 121.533C152.871 127.776 139.132 120.247 138.229 119.88Z" fill="#A5CF4C"/>
<path d="M131.072 124.765C129.951 127.326 128.67 108.117 133.154 109.032C138.118 110.129 131.552 123.85 131.072 124.765Z" fill="#A5CF4C"/>
<path d="M170.193 105.162C168.196 103.785 182.356 102.999 181.993 106.539C181.449 110.866 175.639 108.899 170.193 105.162Z" fill="#A5CF4C"/>
<path d="M174.177 102.792C172.979 104.674 171.953 93.1937 175.032 93.0055C177.941 92.8173 177.599 97.5222 174.177 102.792Z" fill="#A5CF4C"/>
<path d="M149.744 112.708C147.932 115.246 149.563 100.408 153.187 100.017C156.629 99.6269 154.999 105.875 149.744 112.708Z" fill="#A5CF4C"/>
<path d="M120 132.021L120.929 130.184C121.858 130.735 122.229 131.838 121.858 132.94C121.3 133.859 120.186 134.227 119.071 133.859C118.142 133.308 117.771 132.205 118.142 131.103C118.514 130.368 119.257 130 120 130V132.021Z" fill="#EFEFAD"/>
<path d="M147 113.167C146.833 113.667 146.333 114 145.833 114C145.333 113.833 145 113.333 145 112.833C145.167 112.333 145.667 112 146.167 112C146.667 112.167 147 112.667 147 113.167Z" fill="#EFEFAD"/>
<path d="M153.958 113.167C153.795 113.667 153.306 114 152.816 114C152.326 113.833 152 113.333 152 112.833C152.163 112.333 152.653 112 153.142 112C153.795 112.167 154.122 112.667 153.958 113.167Z" fill="#EFEFAD"/>
<path d="M117 142.316C116.842 143.368 116.053 144 115.263 144C114.474 143.789 114 142.737 114 141.684C114 140.632 114.947 140 115.737 140C116.526 140.421 117 141.263 117 142.316Z" fill="#EFEFAD"/>
<path d="M167 106.167C166.833 106.667 166.333 107 165.833 107C165.333 106.833 165 106.333 165 105.833C165.167 105.333 165.667 105 166.167 105C166.667 105.167 167 105.667 167 106.167Z" fill="#EFEFAD"/>
<path d="M158 108.167C157.833 108.667 157.333 109 156.833 109C156.333 108.833 156 108.333 156 107.833C156.167 107.333 156.667 107 157.167 107C157.667 107 158 107.5 158 108.167Z" fill="#EFEFAD"/>
<path d="M133.968 126.167C133.804 126.667 133.312 127 132.82 127C132.328 126.833 132 126.333 132 125.833C132.164 125.333 132.656 125 133.148 125C133.64 125.167 134.132 125.667 133.968 126.167Z" fill="#EFEFAD"/>
<path d="M108.518 150L110.793 150.821C110.173 151.807 108.725 152.299 107.484 151.807C106.243 151.314 105.623 150.164 106.243 149.179C106.864 148.193 108.311 147.701 109.552 148.193C110.173 148.522 110.793 148.85 111 149.507L108.518 150Z" fill="#EFEFAD"/>
<path d="M35.6153 137.268C33.8488 136.031 33.4955 133.558 34.732 131.615C35.9686 129.849 38.4416 129.496 40.3847 130.732C42.1512 131.969 42.5045 134.442 41.268 136.385C39.8548 138.151 37.3817 138.504 35.6153 137.268Z" fill="#C4DF9C"/>
<path d="M46.9486 138.832C46.5769 141.607 43.9751 143.456 41.1875 142.902C38.3998 142.532 36.5414 139.942 37.0989 137.168C37.4706 134.393 40.0724 132.544 42.86 133.098C45.6477 133.468 47.3203 136.058 46.9486 138.832Z" fill="#89C766"/>
<path d="M45.5345 135.327C46.1552 135.982 46.1552 136.855 45.5345 137.509C44.9138 138.164 44.0862 138.164 43.4655 137.509C42.8448 136.855 42.8448 135.982 43.4655 135.327C44.0862 134.891 44.9138 134.891 45.5345 135.327Z" fill="#F2ECEC"/>
<path d="M39.8846 131.115C40.0385 131.269 40.0385 131.731 39.8846 131.885C39.7308 132.038 39.2692 132.038 39.1154 131.885C38.9615 131.731 38.9615 131.269 39.1154 131.115C39.2692 130.962 39.5769 130.962 39.8846 131.115Z" fill="#F2ECEC"/>
<path d="M40.8333 132.167C41.0556 132.389 41.0556 132.611 40.8333 132.833C40.6111 133.056 40.3889 133.056 40.1667 132.833C39.9444 132.611 39.9444 132.389 40.1667 132.167C40.3889 131.944 40.6111 131.944 40.8333 132.167Z" fill="#F2ECEC"/>
<path d="M45.8846 139.207C46.0385 139.345 46.0385 139.621 45.8846 139.897C45.7308 140.034 45.4231 140.034 45.1154 139.897C44.9615 139.759 44.9615 139.483 45.1154 139.207C45.4231 138.931 45.7308 138.931 45.8846 139.207Z" fill="#F2ECEC"/>
<path d="M34 131.263C34 131.263 19.7692 130.724 19 123C19.1923 126.233 22.4615 134.497 34 131.263Z" fill="#F7ADB5"/>
<path d="M101.932 165C100.453 166.408 95.645 167.64 95.645 167.64C95.645 167.64 91.9468 167.112 91.9468 167.816C91.9468 168.52 93.426 168.696 93.426 168.872C92.6864 169.048 89.5429 170.104 89.1731 170.984C88.8033 171.864 88.9882 175.384 90.0976 175.912C91.2071 176.44 97.679 174.504 101.377 172.216C105.075 169.752 106 168.344 106 168.344L101.932 165Z" fill="#FFF1DA"/>
<path d="M79.4873 165C81.8207 166.985 85.2311 167.888 85.2311 167.888C87.385 168.61 89.0004 168.068 89.8979 168.61C90.9749 169.151 88.6415 169.693 88.6415 169.693C88.6415 169.693 92.7698 172.039 91.8723 173.664C90.7954 176.371 87.744 181.605 82.5387 174.205C78.0514 170.415 75 168.79 75 168.79L79.4873 165Z" fill="#FFF1DA"/>
</svg>
