<svg width="166" height="171" viewBox="0 0 166 171" fill="none" xmlns="http://www.w3.org/2000/svg">
<path d="M20.6766 73.9904C25.3529 83.9648 19.9321 91.1122 11.2756 93.3491C20.367 101.227 34.5899 95.1055 34.6215 89.2339C39.6363 96.9267 32.0899 105.041 32.0899 105.041C32.0899 105.041 41.8495 109.987 46.7837 102.348C48.8829 106.273 44.7248 121.256 14.7568 113.266C16.1589 125.507 23.8043 129.299 30.1617 129.986C38.8015 130.848 46.1681 125.831 46.1681 125.831C46.1681 125.831 52.5246 126.681 44.9922 132.186C52.9375 140.873 62.9585 127.552 62.9585 127.552C62.9585 127.552 75.3486 158.935 74.6559 136.097L73.9632 113.259L63.624 94.7723L44.4074 89.2866L27.5109 76.963L14.8893 58.3013C14.4035 57.6463 20.1917 73.1722 20.6766 73.9904Z" fill="#ADE0F9"/>
<path d="M57.6238 118.716C52.8439 127.987 46.9487 132.359 39.2849 131.992C31.621 131.625 25.7977 122.623 29.7717 111.553C28.8089 108.612 29.9602 106.824 32.7399 105.534C34.3744 104.89 35.6766 105.387 36.9761 106.372C38.6001 107.686 40.21 111.609 37.1041 112.897C34.4805 115.493 39.006 123.183 41.7901 121.078C46.3762 117.514 53.1176 107.438 53.1176 107.438L57.6238 118.716Z" fill="#FFF0D8"/>
<path d="M78.3888 169.879C78.3888 169.879 83.1958 216.226 83.0204 218.509C80.1171 212.458 77.5286 208.53 77.5286 208.53C77.5286 208.53 76.2203 209.175 76.379 209.992C74.7857 202.97 69.9796 186.797 67.7541 176.02C65.3664 165.079 78.3888 169.879 78.3888 169.879Z" fill="#FFF0D8"/>
<path d="M101.731 166.416C101.731 166.416 105.922 175.736 108.166 182.924C87.1162 184.769 90.2554 177.283 70.0076 181.578C51.8835 185.231 42.9446 179.312 42.9446 179.312L49.6843 169.562L101.731 166.416Z" fill="#F3703A"/>
<path d="M37.5959 21.3991C24.8743 21.3306 7.68929 32.3292 14.8893 58.3013C22.0875 84.5996 55.1043 101.903 63.9046 103.255C72.5418 104.606 77.6286 98.9252 77.6286 98.9252L37.5959 21.3991Z" fill="#ADE0F9"/>
<path d="M32.1226 38.3324C32.1226 38.3324 53.6911 31.1088 74.9088 28.4501C96.0966 31.3368 117.586 38.792 117.586 38.792C117.849 50.5369 115.757 75.6435 105.583 87.006C100.826 92.1997 87.9206 95.8817 74.8736 95.6484C74.7105 95.6475 74.5474 95.6467 74.5474 95.6467C74.3843 95.6458 74.2212 95.6449 74.2212 95.6449C61.0094 95.737 48.1448 91.9164 43.6061 86.6727C33.3923 75.2006 31.5702 50.0729 32.1226 38.3324Z" fill="#FFF0D8"/>
<path d="M44.3987 90.9174C48.6076 96.8118 45.6228 105.929 35.6808 104.571C41.0779 101.827 44.838 100.217 44.3987 90.9174Z" fill="#6DAEDF"/>
<path d="M103.211 164.141L109.187 175.101C109.187 175.101 97.4213 179.278 73.3074 174.582C57.8288 171.563 42.6343 176.374 42.6343 176.374C49.2232 164.34 52.194 157.832 52.194 157.832L103.211 164.141Z" fill="#F99E4F"/>
<path d="M110.493 53.5961C103.828 49.4827 75.1526 43.783 70.4587 37.0705C70.114 40.4938 77.8875 50.8111 84.8867 53.4584C82.7612 54.4256 78.1804 57.0106 69.8773 54.1932C63.6901 52.2027 60.3045 44.8449 58.8787 37.0082C57.2152 43.0341 52.2521 56.0557 32.832 58.0716C22.1324 45.9444 30.4733 11.4114 65.7324 6.05552C92.3393 2.12103 125.853 17.9591 123.25 47.1406C122.727 53.3357 115.858 56.887 110.493 53.5961Z" fill="#ADE0F9"/>
<path d="M122.267 138.799L28.6306 81.0466L28.941 83.9841L123.393 141.741L122.267 138.799Z" fill="#F37C96"/>
<path d="M56.161 148.067C46.0585 146.218 39.4556 160.862 28.1694 166.836C14.5928 174.103 -1.36981 170.103 0.524258 151.519C3.26448 157.569 14.1438 166.598 31.8269 153.971C38.8673 148.952 51.3057 141.027 56.161 148.067Z" fill="#FFD990"/>
<path d="M56.161 148.067C56.161 148.067 49.6687 142.16 32.6302 156.259C23.4589 163.223 9.10981 162.493 7.38501 149.599C8.8336 153.195 18.765 156.51 25.98 149.373C32.8678 142.396 50.3684 133.356 56.161 148.067Z" fill="#F99E4F"/>
<path d="M55.1912 146.431C54.9071 138.6 43.3622 132.014 31.7384 140.107C27.482 143.02 22.7136 150.17 15.5566 146.544C20.2496 153.419 28.2493 151.994 38.4017 144.546C42.986 141.309 52.4545 139.729 55.1912 146.431Z" fill="#F3703A"/>
<path d="M55.2491 105.329C56.396 104.356 57.8683 103.549 59.3388 103.067C61.9528 102.266 62.9349 101.619 64.7368 100.161C67.5209 98.0553 68.6758 95.6149 69.3387 93.6612C69.8385 91.7067 69.5211 90.074 69.5211 90.074L74.25 90.2625L78.8177 90.124C78.8177 90.124 76.8 101.367 94.5584 105.051C107.925 106.591 116.446 99.1339 115.055 84.7733C114.744 81.9989 115.093 77.7601 119.175 76.9665C123.91 76.0134 125.038 78.6291 125.522 79.6103C126.814 81.9007 126.002 81.2439 124.858 81.7271C123.059 82.5329 125.337 83.6869 123.037 86.6104C121.563 87.7442 120.094 88.0625 120.094 88.0625C120.094 88.0625 125.888 102.447 110.988 113.131C110.321 115.901 107.388 115.395 107.388 115.395C103.463 117.332 92.5346 117.436 83.7536 112.496C75.7854 108.049 74.2772 115.544 74.2772 115.544C74.2772 115.544 64.8324 112.72 57.7867 118.717C53.1989 122.607 51.2575 119.66 45.877 119.305C47.1985 116.214 49.5152 110.028 55.2491 105.329Z" fill="#FFF0D8"/>
<path d="M70.4584 37.0706C79.043 48.2078 102.635 58.9364 121.231 58.5471C150.105 57.7237 145.53 28.8299 133.661 21.9157C130.702 26.1405 121.228 28.6992 116.847 24.5981C124.192 23.4958 127.049 7.85332 115.182 0.612966C115.331 3.22342 114.616 14.7999 84.1596 6.64406C66.5695 1.98258 67.2403 28.8982 67.2403 28.8982C67.2403 28.8982 69.1632 35.2695 70.4584 37.0706Z" fill="#ABE1FA"/>
<path d="M89.8391 103.068C89.8391 103.068 79.9962 113.617 59.3415 102.578C58.4655 113.828 57.7657 152.969 45.9551 165.464C61.1013 169.623 64.515 171.762 81.6666 166.961C98.9813 162.161 106.133 166.766 106.133 166.766C94.6522 148.274 90.8852 120.852 89.8391 103.068Z" fill="#FFD990"/>
<path d="M78.4503 37.1137C81.3607 41.8593 106.568 55.5324 123.382 52.8501C136.441 50.8 137.651 38.2476 137.651 38.2476C129.272 49.4566 116.22 50.2019 97.4899 45.2081C85.9318 41.0684 78.4503 37.1137 78.4503 37.1137Z" fill="#6DAEDF"/>
<path d="M27.0604 39.4469C27.0604 39.4469 18.8143 56.3652 30.1461 72.2472C27.092 63.9125 25.0059 57.5403 27.0604 39.4469Z" fill="#6DAEDF"/>
<path d="M55.6042 39.2742C51.6276 50.8331 39.2085 55.1701 29.7549 53.9775C42.6546 51.2742 49.5266 47.2335 55.6042 39.2742Z" fill="#6DAEDF"/>
<path d="M87.4206 67.499C87.4057 70.2717 89.6768 72.5674 92.4495 72.5823C95.2222 72.5972 97.5178 70.3261 97.5327 67.5534C97.5477 64.7807 95.2765 62.4851 92.5039 62.4702C89.7303 62.6184 87.4347 64.8895 87.4206 67.499Z" fill="#914A3C"/>
<path d="M94.4582 63.1329C94.4582 63.1329 97.2209 64.9417 99.682 62.1825C99.5102 63.8124 97.3814 65.4318 94.7774 64.4393C93.3088 64.5945 94.4582 63.1329 94.4582 63.1329Z" fill="#914A3C"/>
<path d="M95.2665 64.4421C95.2665 64.4421 97.0524 65.9195 99.019 64.1361C98.8498 65.2768 97.2138 66.2465 95.4252 65.2584C94.2827 65.4153 95.2665 64.4421 95.2665 64.4421Z" fill="#914A3C"/>
<path d="M96.0683 66.8927C95.2705 63.6268 91.3618 62.6272 92.1693 64.0993C92.976 65.7345 93.6221 66.8796 94.5927 68.3525C95.5633 69.8255 96.7075 69.3424 96.0683 66.8927Z" fill="white"/>
<path d="M57.0906 66.1939C57.0906 66.1939 54.3086 67.9729 51.8773 65.1874C52.0316 66.819 54.1429 68.4612 56.7574 67.4968C58.2234 67.8308 57.0906 66.1939 57.0906 66.1939Z" fill="#914A3C"/>
<path d="M56.4312 67.4953C56.4312 67.4953 54.6294 68.9533 52.6821 67.149C53.0022 68.2923 54.6277 69.2795 56.2629 68.4729C57.2413 68.4781 56.4312 67.4953 56.4312 67.4953Z" fill="#914A3C"/>
<path d="M88.3055 54.6187C87.0025 54.2855 96.3052 53.1938 98.8797 59.7317C96.4455 57.4352 94.0069 55.9542 88.3055 54.6187Z" fill="#914A3C"/>
<path d="M64.9877 53.5147C66.2942 53.1955 57.0037 52.0038 54.3591 58.5137C56.8178 56.2435 59.2722 54.7888 64.9877 53.5147Z" fill="#914A3C"/>
<path d="M79.3597 80.3406C79.3597 80.3406 79.0151 83.7639 74.6123 83.5772C71.8396 83.5623 70.5463 81.435 70.5524 80.2933C70.3735 83.2282 72.1597 84.7057 74.7693 84.7197C77.7033 85.0617 79.6727 82.7889 79.3597 80.3406Z" fill="#BE8788"/>
<path d="M46.5963 76.5762C46.591 77.5548 49.5224 78.3861 53.2736 78.4063C57.0249 78.4264 59.9651 77.6267 59.9703 76.6481C59.9756 75.6696 57.0442 74.8383 53.2929 74.8181C49.5417 74.7979 46.6024 75.4345 46.5963 76.5762Z" fill="#F9B49B"/>
<path d="M90.7994 76.1616C90.7941 77.1401 93.7255 77.9714 97.4768 77.9916C101.065 78.0109 104.168 77.2121 104.173 76.2335C104.179 75.2549 101.247 74.4236 97.4961 74.4034C93.7448 74.3833 90.8046 75.183 90.7994 76.1616Z" fill="#F9B49B"/>
<path d="M34.4205 66.0722C30.674 65.2367 27.0486 72.2298 35.036 72.925C42.8602 73.6195 34.4205 66.0722 34.4205 66.0722Z" fill="#FFF0D8"/>
<path d="M33.9254 67.0482C31.1565 66.3809 29.3372 71.1006 33.7369 71.7766C34.8793 71.6196 34.8863 70.315 34.0744 69.6583C33.2617 69.1647 33.1047 68.0223 33.7605 67.3734C33.9245 67.2112 33.9254 67.0482 33.9254 67.0482Z" fill="#F9B49B"/>
<path d="M114.495 67.8077C118.25 67.0125 121.8 74.0442 113.806 74.6535C105.973 75.4268 114.495 67.8077 114.495 67.8077Z" fill="#FFF0D8"/>
<path d="M114.979 68.7888C117.754 68.1514 119.523 72.8903 115.116 73.519C113.976 73.3498 113.983 72.0451 114.802 71.3972C115.62 70.9123 115.789 69.7717 115.14 69.1158C114.978 68.9519 114.979 68.7888 114.979 68.7888Z" fill="#F9B49B"/>
<path d="M66.5292 70.1595C66.545 67.2237 65.2612 63.3023 61.5126 62.7928C57.6009 62.2825 56.4373 66.3538 56.9116 69.1291C57.564 69.1326 56.9116 69.1291 56.9116 69.1291C56.9116 69.1291 57.7517 64.5668 61.5003 65.0762C63.2935 65.249 65.5708 66.4029 66.5292 70.1595C66.6905 70.4865 66.5292 70.1595 66.5292 70.1595Z" fill="#914A3C"/>
<path d="M91.2378 85.6239L155.977 70.9666L153.375 66.0595L164.908 71.9932L154.737 81.7247L156.472 76.6779L91.2326 86.6025L91.2378 85.6239Z" fill="#F3703A"/>
<path d="M89.8391 103.068C88.6711 107.955 75.3987 119.301 59.3414 102.578C72.6848 108.359 84.1069 107.441 89.8391 103.068Z" fill="#F37C96"/>
<path d="M88.0337 105.179C89.1796 104.37 89.1586 108.284 87.8487 109.255C86.8676 109.739 86.8878 105.988 88.0337 105.179Z" fill="white"/>
<path d="M85.5756 107.286C87.5326 107.297 84.5744 111.521 82.4543 111.51C80.6631 111.011 83.6196 107.113 85.5756 107.286Z" fill="white"/>
<path d="M72.3561 108.846C73.6563 109.669 69.5706 111.277 68.2712 110.292C67.2971 109.471 71.2189 108.025 72.3561 108.846Z" fill="white"/>
<path d="M66.0066 106.692C66.8185 107.348 63.5525 108.146 62.5784 107.326C61.9296 106.67 65.0316 106.034 66.0066 106.692Z" fill="white"/>
<path d="M63.569 105.047C64.3809 105.704 61.441 106.504 60.467 105.683C59.8181 105.027 62.594 104.39 63.569 105.047Z" fill="white"/>
<path d="M68.119 108.171C69.0931 108.991 65.3379 109.787 64.2007 108.965C63.5537 107.983 67.1449 107.35 68.119 108.171Z" fill="white"/>
<path d="M76.7571 109.359C78.3852 109.857 74.4555 112.771 72.6661 111.946C71.3649 111.287 75.1289 108.861 76.7571 109.359Z" fill="white"/>
<path d="M80.5119 108.727C82.1427 108.736 79.6763 112.473 77.7185 112.626C76.2516 112.455 78.8802 108.881 80.5119 108.727Z" fill="white"/>
<path d="M87.2348 11.0643C92.2689 15.169 107.909 18.5151 114.973 9.09314C107.276 14.9235 95.0504 13.5529 87.2348 11.0643Z" fill="#6DAEDF"/>
<path d="M12.5253 73.2942C14.0151 69.2246 18.4346 66.3125 23.3188 67.9698C29.0158 70.1208 31.4447 73.3959 31.0431 87.4206C31.1527 97.3705 31.421 108.137 38.2475 112.577C50.7631 120.637 52.0863 117.219 67.8577 126.437C78.2635 132.528 82.4611 140.542 92.8819 143.861C99.7206 146.018 110.028 140.038 115.917 136.808C120.498 134.223 124.587 132.125 128.982 133.779C131.749 134.773 133.694 137.067 134.33 140.169C134.967 142.945 134.299 145.877 132.331 147.987C130.855 149.447 129.219 150.254 127.425 150.407C125.466 150.56 123.675 150.061 122.049 149.074C120.098 147.921 118.966 146.121 118.487 144.324C111.617 147.876 101.472 154.019 90.2337 151.023C82.7417 149.025 74.6359 139.848 63.9083 132.94C51.718 125.045 40.2958 125.963 32.8337 118.42C24.3981 109.893 24.1272 99.6161 23.8729 86.2403L23.8826 84.4462C21.757 85.4134 18.3311 85.5581 15.2445 83.2581C11.9975 80.4678 11.367 76.3869 12.5253 73.2942Z" fill="#F3703A"/>
<path d="M15.9151 79.8364C14.7805 78.5255 14.7936 76.079 16.4307 74.9461C17.4128 74.299 19.2078 74.1455 20.3407 75.7827C23.0941 79.3857 26.0413 77.2813 27.0295 75.4924C27.332 79.8978 23.5693 81.9979 21.1229 81.9848C18.6746 82.2978 16.8876 80.9834 15.9151 79.8364Z" fill="#FFD990"/>
<path d="M128.749 146.663C129.894 146.179 130.555 144.552 129.745 143.406C129.26 142.751 128.122 142.093 126.977 142.739C124.196 144.192 122.74 142.064 122.585 140.595C121.265 143.361 123.209 145.817 124.836 146.478C126.299 147.465 127.768 147.146 128.749 146.663Z" fill="#FFD990"/>
<path d="M85.3537 148.55C72.0077 143.259 73.8807 128.59 61.8404 123.143C71.9568 122.382 76.9603 132.195 78.7298 136.771C80.4993 141.347 83.2509 145.277 85.3537 148.55Z" fill="#6DAEDF"/>
<path d="M60.6574 130.802C51.6879 130.591 49.6334 118.347 43.4506 115.541C48.6715 115.243 53.0585 118.366 56.1266 124.091C58.0628 128.016 59.0317 129.815 60.6574 130.802Z" fill="#6DAEDF"/>
<path d="M87.1866 141.383C94.8303 145.502 94.4453 156.428 106.878 149.644C101.809 151.9 98.2439 147.641 96.947 146.166C94.6794 143.218 91.2649 141.242 87.1866 141.383Z" fill="#6DAEDF"/>
<path d="M71.9182 129.721C72.0742 131.026 73.0483 131.847 74.3538 131.691C75.6593 131.535 76.48 130.561 76.3239 129.255C76.1678 127.95 75.1938 127.129 73.8883 127.285C72.7467 127.279 71.7621 128.415 71.9182 129.721Z" fill="white"/>
<path d="M73.4921 140.331C73.6482 141.636 74.6223 142.457 75.9278 142.301C77.2333 142.145 78.054 141.171 77.8979 139.865C77.7418 138.56 76.7677 137.739 75.4622 137.895C74.3198 138.052 73.3352 139.188 73.4921 140.331Z" fill="white"/>
<path d="M47.4938 122.087C47.6499 123.392 48.624 124.213 49.9295 124.057C51.235 123.901 52.0557 122.927 51.8996 121.621C51.7435 120.316 50.7694 119.495 49.4639 119.651C48.3215 119.808 47.3369 120.944 47.4938 122.087Z" fill="white"/>
<path d="M90.6077 142.217C90.7638 143.522 91.7379 144.343 93.0434 144.187C94.3489 144.031 95.1696 143.057 95.0135 141.751C94.8574 140.446 93.8833 139.625 92.5778 139.781C91.4354 139.938 90.6139 141.075 90.6077 142.217Z" fill="white"/>
<path d="M98.0743 148.944C98.2303 150.25 99.2044 151.071 100.51 150.915C101.815 150.758 102.636 149.784 102.48 148.479C102.324 147.173 101.35 146.353 100.044 146.509C98.9028 146.503 97.9182 147.639 98.0743 148.944Z" fill="white"/>
<path d="M49.9719 146.403C49.957 149.175 52.2281 151.471 55.0008 151.486C57.7735 151.501 60.0691 149.23 60.084 146.457C60.0989 143.684 57.8278 141.389 55.0552 141.374C52.4456 141.36 49.9868 143.63 49.9719 146.403Z" fill="#F37C96"/>
<path d="M51.5906 148.857C51.2986 142.495 56.6758 143.34 57.9778 143.836C56.3584 141.707 53.5835 142.181 52.2727 143.316C50.7988 144.45 50.2964 146.893 51.5906 148.857Z" fill="#FDC688"/>
<path d="M29.9065 116.773C26.6611 113.657 26.0526 105.498 31.6076 103.734C33.7314 103.093 35.5088 106.201 36.6286 110.285C37.2704 112.246 41.1804 113.082 40.3526 115.361C38.8681 118.452 33.3131 120.217 29.9065 116.773Z" fill="#FFF0D8"/>
</svg>
