<svg width="34" height="35" viewBox="0 0 34 35" fill="none" xmlns="http://www.w3.org/2000/svg">
<path d="M17 34.9934C26.3888 34.9934 34 27.3822 34 17.9934C34 8.60457 26.3888 0.993408 17 0.993408C7.61116 0.993408 0 8.60457 0 17.9934C0 27.3822 7.61116 34.9934 17 34.9934Z" fill="#FF7D92"/>
<path fill-rule="evenodd" clip-rule="evenodd" d="M11 24.9866C11.2256 22.3989 11.5263 20.0987 11.6767 17.7266C11.8271 15.4264 11.8271 13.1263 11.9023 10.8261C11.9023 10.251 11.9774 9.74788 12.203 9.24471C12.6541 8.02274 13.4812 7.66334 14.6842 8.31027C15.9624 9.02907 17.0902 9.89164 18.2932 10.7542C19.8722 11.9043 21.4511 13.1263 22.9549 14.4201C23.782 15.1389 24.5338 16.0015 25.3609 16.7922C26.2632 17.7266 26.1128 18.733 25.5113 19.7393C25.2105 20.2424 24.7594 20.7456 24.3083 21.105C21.8271 22.902 19.2707 24.5553 16.7143 26.2804C16.1128 26.7117 15.4361 27.143 14.7594 27.4305C14.3083 27.6462 13.782 27.8618 13.2556 27.9337C12.1278 28.1493 11.5263 27.7899 11.2256 26.7117C11.0752 26.0648 11.0752 25.4179 11 24.9866ZM12.8045 26.9992C13.7068 26.5679 14.5338 26.2804 15.2857 25.8491C17.4662 24.4834 19.5714 23.1177 21.6767 21.6082C22.9549 20.7456 24.0827 19.8112 24.7594 18.3736C24.5338 17.3672 23.782 16.5765 23.0301 15.9296C22.0526 15.067 21.0752 14.2764 20.0226 13.5576C18.1429 12.1918 16.2632 10.8261 14.3835 9.53224C13.6316 9.02907 13.1805 9.24471 13.0301 10.1792C12.9549 10.3948 13.0301 10.6104 13.0301 10.898C12.8045 14.9952 12.5038 19.1642 12.2782 23.2614C12.203 24.4115 12.203 25.6335 12.8045 26.9992Z" fill="black"/>
</svg>
